<?xml version="1.0" encoding="UTF-8" standalone="no"?>
<!-- This is a Stata 16.1 generated SVG file (http://www.stata.com) -->

<svg version="1.1" width="5.50in" height="4.00in" viewBox="0 0 3960 2880" xmlns="http://www.w3.org/2000/svg" xmlns:xlink="http://www.w3.org/1999/xlink">
	<desc>Stata Graph - Graph</desc>
	<rect x="0" y="0" width="3960" height="2880" style="fill:#EAF2F3;stroke:none"/>
	<rect x="0.00" y="0.00" width="3959.88" height="2880.00" style="fill:#EAF2F3"/>
	<rect x="2.88" y="2.88" width="3954.12" height="2874.24" style="fill:none;stroke:#EAF2F3;stroke-width:5.76"/>
	<rect x="479.28" y="250.97" width="870.83" height="797.59" style="fill:#FFFFFF"/>
	<rect x="481.59" y="253.28" width="866.22" height="792.99" style="fill:none;stroke:#FFFFFF;stroke-width:4.61"/>
	<line x1="479.28" y1="1048.57" x2="1350.11" y2="1048.57" style="stroke:#EAF2F3;stroke-width:6.91"/>
	<line x1="479.28" y1="809.60" x2="1350.11" y2="809.60" style="stroke:#EAF2F3;stroke-width:6.91"/>
	<line x1="479.28" y1="570.63" x2="1350.11" y2="570.63" style="stroke:#EAF2F3;stroke-width:6.91"/>
	<rect x="1716.54" y="250.97" width="870.83" height="797.59" style="fill:#FFFFFF"/>
	<rect x="1718.84" y="253.28" width="866.22" height="792.99" style="fill:none;stroke:#FFFFFF;stroke-width:4.61"/>
	<line x1="1716.54" y1="1048.57" x2="2587.36" y2="1048.57" style="stroke:#EAF2F3;stroke-width:6.91"/>
	<line x1="1716.54" y1="818.38" x2="2587.36" y2="818.38" style="stroke:#EAF2F3;stroke-width:6.91"/>
	<line x1="1716.54" y1="588.20" x2="2587.36" y2="588.20" style="stroke:#EAF2F3;stroke-width:6.91"/>
	<line x1="1716.54" y1="357.90" x2="2587.36" y2="357.90" style="stroke:#EAF2F3;stroke-width:6.91"/>
	<rect x="2953.79" y="250.97" width="870.70" height="797.59" style="fill:#FFFFFF"/>
	<rect x="2956.09" y="253.28" width="866.10" height="792.99" style="fill:none;stroke:#FFFFFF;stroke-width:4.61"/>
	<line x1="2953.79" y1="1048.57" x2="3824.49" y2="1048.57" style="stroke:#EAF2F3;stroke-width:6.91"/>
	<line x1="2953.79" y1="905.14" x2="3824.49" y2="905.14" style="stroke:#EAF2F3;stroke-width:6.91"/>
	<line x1="2953.79" y1="761.83" x2="3824.49" y2="761.83" style="stroke:#EAF2F3;stroke-width:6.91"/>
	<line x1="2953.79" y1="618.40" x2="3824.49" y2="618.40" style="stroke:#EAF2F3;stroke-width:6.91"/>
	<line x1="2953.79" y1="475.09" x2="3824.49" y2="475.09" style="stroke:#EAF2F3;stroke-width:6.91"/>
	<line x1="2953.79" y1="331.66" x2="3824.49" y2="331.66" style="stroke:#EAF2F3;stroke-width:6.91"/>
	<rect x="479.28" y="1532.94" width="870.83" height="797.59" style="fill:#FFFFFF"/>
	<rect x="481.59" y="1535.24" width="866.22" height="792.99" style="fill:none;stroke:#FFFFFF;stroke-width:4.61"/>
	<line x1="479.28" y1="2330.53" x2="1350.11" y2="2330.53" style="stroke:#EAF2F3;stroke-width:6.91"/>
	<line x1="479.28" y1="2187.60" x2="1350.11" y2="2187.60" style="stroke:#EAF2F3;stroke-width:6.91"/>
	<line x1="479.28" y1="2044.66" x2="1350.11" y2="2044.66" style="stroke:#EAF2F3;stroke-width:6.91"/>
	<line x1="479.28" y1="1901.73" x2="1350.11" y2="1901.73" style="stroke:#EAF2F3;stroke-width:6.91"/>
	<line x1="479.28" y1="1758.91" x2="1350.11" y2="1758.91" style="stroke:#EAF2F3;stroke-width:6.91"/>
	<line x1="479.28" y1="1615.98" x2="1350.11" y2="1615.98" style="stroke:#EAF2F3;stroke-width:6.91"/>
	<rect x="1716.54" y="1532.94" width="870.83" height="797.59" style="fill:#FFFFFF"/>
	<rect x="1718.84" y="1535.24" width="866.22" height="792.99" style="fill:none;stroke:#FFFFFF;stroke-width:4.61"/>
	<line x1="1716.54" y1="2330.53" x2="2587.36" y2="2330.53" style="stroke:#EAF2F3;stroke-width:6.91"/>
	<line x1="1716.54" y1="2091.56" x2="2587.36" y2="2091.56" style="stroke:#EAF2F3;stroke-width:6.91"/>
	<line x1="1716.54" y1="1852.60" x2="2587.36" y2="1852.60" style="stroke:#EAF2F3;stroke-width:6.91"/>
	<line x1="1716.54" y1="1613.63" x2="2587.36" y2="1613.63" style="stroke:#EAF2F3;stroke-width:6.91"/>
	<rect x="2953.79" y="1532.94" width="870.70" height="797.59" style="fill:#FFFFFF"/>
	<rect x="2956.09" y="1535.24" width="866.10" height="792.99" style="fill:none;stroke:#FFFFFF;stroke-width:4.61"/>
	<line x1="2953.79" y1="2330.53" x2="3824.49" y2="2330.53" style="stroke:#EAF2F3;stroke-width:6.91"/>
	<line x1="2953.79" y1="2091.56" x2="3824.49" y2="2091.56" style="stroke:#EAF2F3;stroke-width:6.91"/>
	<line x1="2953.79" y1="1852.60" x2="3824.49" y2="1852.60" style="stroke:#EAF2F3;stroke-width:6.91"/>
	<line x1="2953.79" y1="1613.63" x2="3824.49" y2="1613.63" style="stroke:#EAF2F3;stroke-width:6.91"/>
	<rect x="577.66" y="1003.77" width="88.73" height="44.80" style="fill:#000000"/>
	<rect x="579.97" y="1006.07" width="84.12" height="40.19" style="fill:none;stroke:#000000;stroke-width:4.61"/>
	<rect x="772.82" y="795.24" width="88.73" height="253.32" style="fill:#707070"/>
	<rect x="775.12" y="797.55" width="84.12" height="248.72" style="fill:none;stroke:#707070;stroke-width:4.61"/>
	<rect x="870.33" y="1048.57" width="88.73" height="0.00" style="fill:#707070"/>
	<rect x="872.64" y="1046.26" width="84.12" height="4.61" style="fill:none;stroke:#707070;stroke-width:4.61"/>
	<rect x="967.97" y="919.99" width="88.61" height="128.58" style="fill:#707070"/>
	<rect x="970.28" y="922.29" width="84.00" height="123.97" style="fill:none;stroke:#707070;stroke-width:4.61"/>
	<rect x="1065.49" y="1018.25" width="88.73" height="30.32" style="fill:#707070"/>
	<rect x="1067.79" y="1020.55" width="84.12" height="25.71" style="fill:none;stroke:#707070;stroke-width:4.61"/>
	<rect x="1163.00" y="500.83" width="88.73" height="547.73" style="fill:#707070"/>
	<rect x="1165.31" y="503.14" width="84.12" height="543.13" style="fill:none;stroke:#707070;stroke-width:4.61"/>
	<rect x="1814.92" y="909.96" width="88.73" height="138.60" style="fill:#000000"/>
	<rect x="1817.22" y="912.27" width="84.12" height="134.00" style="fill:none;stroke:#000000;stroke-width:4.61"/>
	<rect x="2010.07" y="392.92" width="88.61" height="655.65" style="fill:#707070"/>
	<rect x="2012.38" y="395.22" width="84.00" height="651.04" style="fill:none;stroke:#707070;stroke-width:4.61"/>
	<rect x="2107.59" y="1046.71" width="88.73" height="1.86" style="fill:#707070"/>
	<rect x="2109.89" y="1046.26" width="84.12" height="2.75" style="fill:none;stroke:#707070;stroke-width:4.61"/>
	<rect x="2205.10" y="643.40" width="88.73" height="405.17" style="fill:#707070"/>
	<rect x="2207.41" y="645.70" width="84.12" height="400.56" style="fill:none;stroke:#707070;stroke-width:4.61"/>
	<rect x="2302.74" y="946.22" width="88.61" height="102.34" style="fill:#707070"/>
	<rect x="2305.04" y="948.53" width="84.00" height="97.74" style="fill:none;stroke:#707070;stroke-width:4.61"/>
	<rect x="2400.26" y="331.66" width="88.73" height="716.91" style="fill:#707070"/>
	<rect x="2402.56" y="333.96" width="84.12" height="712.30" style="fill:none;stroke:#707070;stroke-width:4.61"/>
	<rect x="3052.17" y="918.25" width="88.61" height="130.31" style="fill:#000000"/>
	<rect x="3054.47" y="920.56" width="84.00" height="125.70" style="fill:none;stroke:#000000;stroke-width:4.61"/>
	<rect x="3247.20" y="410.49" width="88.73" height="638.07" style="fill:#707070"/>
	<rect x="3249.50" y="412.80" width="84.12" height="633.47" style="fill:none;stroke:#707070;stroke-width:4.61"/>
	<rect x="3344.84" y="1040.89" width="88.61" height="7.67" style="fill:#707070"/>
	<rect x="3347.14" y="1043.20" width="84.00" height="3.06" style="fill:none;stroke:#707070;stroke-width:4.61"/>
	<rect x="3442.35" y="704.04" width="88.73" height="344.53" style="fill:#707070"/>
	<rect x="3444.66" y="706.34" width="84.12" height="339.92" style="fill:none;stroke:#707070;stroke-width:4.61"/>
	<rect x="3539.87" y="950.43" width="88.73" height="98.14" style="fill:#707070"/>
	<rect x="3542.17" y="952.73" width="84.12" height="93.53" style="fill:none;stroke:#707070;stroke-width:4.61"/>
	<rect x="3637.51" y="642.65" width="88.61" height="405.91" style="fill:#707070"/>
	<rect x="3639.81" y="644.96" width="84.00" height="401.30" style="fill:none;stroke:#707070;stroke-width:4.61"/>
	<rect x="577.66" y="2181.41" width="88.73" height="149.12" style="fill:#000000"/>
	<rect x="579.97" y="2183.71" width="84.12" height="144.52" style="fill:none;stroke:#000000;stroke-width:4.61"/>
	<rect x="772.82" y="1613.63" width="88.73" height="716.91" style="fill:#707070"/>
	<rect x="775.12" y="1615.93" width="84.12" height="712.30" style="fill:none;stroke:#707070;stroke-width:4.61"/>
	<rect x="870.33" y="2298.73" width="88.73" height="31.80" style="fill:#707070"/>
	<rect x="872.64" y="2301.03" width="84.12" height="27.20" style="fill:none;stroke:#707070;stroke-width:4.61"/>
	<rect x="967.97" y="1978.45" width="88.61" height="352.08" style="fill:#707070"/>
	<rect x="970.28" y="1980.76" width="84.00" height="347.47" style="fill:none;stroke:#707070;stroke-width:4.61"/>
	<rect x="1065.49" y="2182.65" width="88.73" height="147.89" style="fill:#707070"/>
	<rect x="1067.79" y="2184.95" width="84.12" height="143.28" style="fill:none;stroke:#707070;stroke-width:4.61"/>
	<rect x="1163.00" y="2033.89" width="88.73" height="296.64" style="fill:#707070"/>
	<rect x="1165.31" y="2036.20" width="84.12" height="292.03" style="fill:none;stroke:#707070;stroke-width:4.61"/>
	<rect x="1814.92" y="2140.82" width="88.73" height="189.71" style="fill:#000000"/>
	<rect x="1817.22" y="2143.12" width="84.12" height="185.11" style="fill:none;stroke:#000000;stroke-width:4.61"/>
	<rect x="2010.07" y="1657.68" width="88.61" height="672.85" style="fill:#707070"/>
	<rect x="2012.38" y="1659.99" width="84.00" height="668.24" style="fill:none;stroke:#707070;stroke-width:4.61"/>
	<rect x="2107.59" y="2185.86" width="88.73" height="144.67" style="fill:#707070"/>
	<rect x="2109.89" y="2188.17" width="84.12" height="140.06" style="fill:none;stroke:#707070;stroke-width:4.61"/>
	<rect x="2205.10" y="1933.78" width="88.73" height="396.75" style="fill:#707070"/>
	<rect x="2207.41" y="1936.08" width="84.12" height="392.15" style="fill:none;stroke:#707070;stroke-width:4.61"/>
	<rect x="2302.74" y="2126.83" width="88.61" height="203.70" style="fill:#707070"/>
	<rect x="2305.04" y="2129.14" width="84.00" height="199.09" style="fill:none;stroke:#707070;stroke-width:4.61"/>
	<rect x="2400.26" y="2031.67" width="88.73" height="298.87" style="fill:#707070"/>
	<rect x="2402.56" y="2033.97" width="84.12" height="294.26" style="fill:none;stroke:#707070;stroke-width:4.61"/>
	<rect x="3052.17" y="1977.59" width="88.61" height="352.95" style="fill:#000000"/>
	<rect x="3054.47" y="1979.89" width="84.00" height="348.34" style="fill:none;stroke:#000000;stroke-width:4.61"/>
	<rect x="3247.20" y="1766.71" width="88.73" height="563.82" style="fill:#707070"/>
	<rect x="3249.50" y="1769.01" width="84.12" height="559.21" style="fill:none;stroke:#707070;stroke-width:4.61"/>
	<rect x="3344.84" y="1631.20" width="88.61" height="699.33" style="fill:#707070"/>
	<rect x="3347.14" y="1633.50" width="84.00" height="694.73" style="fill:none;stroke:#707070;stroke-width:4.61"/>
	<rect x="3442.35" y="1618.82" width="88.73" height="711.71" style="fill:#707070"/>
	<rect x="3444.66" y="1621.13" width="84.12" height="707.10" style="fill:none;stroke:#707070;stroke-width:4.61"/>
	<rect x="3539.87" y="1994.17" width="88.73" height="336.36" style="fill:#707070"/>
	<rect x="3542.17" y="1996.47" width="84.12" height="331.76" style="fill:none;stroke:#707070;stroke-width:4.61"/>
	<rect x="3637.51" y="1688.13" width="88.61" height="642.41" style="fill:#707070"/>
	<rect x="3639.81" y="1690.43" width="84.00" height="637.80" style="fill:none;stroke:#707070;stroke-width:4.61"/>
	<line x1="479.28" y1="1048.57" x2="479.28" y2="250.97" style="stroke:#000000;stroke-width:4.61"/>
	<line x1="479.28" y1="1048.57" x2="447.36" y2="1048.57" style="stroke:#000000;stroke-width:4.61"/>
	<text x="431.39" y="1076.58" style="font-family:'Helvetica';font-size:79.94px;fill:#000000" text-anchor="end">0</text>
	<line x1="479.28" y1="809.60" x2="447.36" y2="809.60" style="stroke:#000000;stroke-width:4.61"/>
	<text x="431.39" y="837.61" style="font-family:'Helvetica';font-size:79.94px;fill:#000000" text-anchor="end">.00005</text>
	<line x1="479.28" y1="570.63" x2="447.36" y2="570.63" style="stroke:#000000;stroke-width:4.61"/>
	<text x="431.39" y="598.64" style="font-family:'Helvetica';font-size:79.94px;fill:#000000" text-anchor="end">.0001</text>
	<line x1="479.28" y1="331.66" x2="447.36" y2="331.66" style="stroke:#000000;stroke-width:4.61"/>
	<text x="431.39" y="359.67" style="font-family:'Helvetica';font-size:79.94px;fill:#000000" text-anchor="end">.00015</text>
	<line x1="1716.54" y1="1048.57" x2="1716.54" y2="250.97" style="stroke:#000000;stroke-width:4.61"/>
	<line x1="1716.54" y1="1048.57" x2="1684.61" y2="1048.57" style="stroke:#000000;stroke-width:4.61"/>
	<text x="1668.52" y="1076.58" style="font-family:'Helvetica';font-size:79.94px;fill:#000000" text-anchor="end">0</text>
	<line x1="1716.54" y1="818.38" x2="1684.61" y2="818.38" style="stroke:#000000;stroke-width:4.61"/>
	<text x="1668.52" y="846.40" style="font-family:'Helvetica';font-size:79.94px;fill:#000000" text-anchor="end">.0001</text>
	<line x1="1716.54" y1="588.20" x2="1684.61" y2="588.20" style="stroke:#000000;stroke-width:4.61"/>
	<text x="1668.52" y="616.21" style="font-family:'Helvetica';font-size:79.94px;fill:#000000" text-anchor="end">.0002</text>
	<line x1="1716.54" y1="357.90" x2="1684.61" y2="357.90" style="stroke:#000000;stroke-width:4.61"/>
	<text x="1668.52" y="385.91" style="font-family:'Helvetica';font-size:79.94px;fill:#000000" text-anchor="end">.0003</text>
	<line x1="2953.79" y1="1048.57" x2="2953.79" y2="250.97" style="stroke:#000000;stroke-width:4.61"/>
	<line x1="2953.79" y1="1048.57" x2="2921.74" y2="1048.57" style="stroke:#000000;stroke-width:4.61"/>
	<text x="2905.77" y="1076.58" style="font-family:'Helvetica';font-size:79.94px;fill:#000000" text-anchor="end">0</text>
	<line x1="2953.79" y1="905.14" x2="2921.74" y2="905.14" style="stroke:#000000;stroke-width:4.61"/>
	<text x="2905.77" y="933.15" style="font-family:'Helvetica';font-size:79.94px;fill:#000000" text-anchor="end">.0002</text>
	<line x1="2953.79" y1="761.83" x2="2921.74" y2="761.83" style="stroke:#000000;stroke-width:4.61"/>
	<text x="2905.77" y="789.84" style="font-family:'Helvetica';font-size:79.94px;fill:#000000" text-anchor="end">.0004</text>
	<line x1="2953.79" y1="618.40" x2="2921.74" y2="618.40" style="stroke:#000000;stroke-width:4.61"/>
	<text x="2905.77" y="646.41" style="font-family:'Helvetica';font-size:79.94px;fill:#000000" text-anchor="end">.0006</text>
	<line x1="2953.79" y1="475.09" x2="2921.74" y2="475.09" style="stroke:#000000;stroke-width:4.61"/>
	<text x="2905.77" y="503.10" style="font-family:'Helvetica';font-size:79.94px;fill:#000000" text-anchor="end">.0008</text>
	<line x1="2953.79" y1="331.66" x2="2921.74" y2="331.66" style="stroke:#000000;stroke-width:4.61"/>
	<text x="2905.77" y="359.67" style="font-family:'Helvetica';font-size:79.94px;fill:#000000" text-anchor="end">.001</text>
	<line x1="479.28" y1="2330.53" x2="479.28" y2="1532.94" style="stroke:#000000;stroke-width:4.61"/>
	<line x1="479.28" y1="2330.53" x2="447.36" y2="2330.53" style="stroke:#000000;stroke-width:4.61"/>
	<text x="431.39" y="2358.54" style="font-family:'Helvetica';font-size:79.94px;fill:#000000" text-anchor="end">0</text>
	<line x1="479.28" y1="2187.60" x2="447.36" y2="2187.60" style="stroke:#000000;stroke-width:4.61"/>
	<text x="431.39" y="2215.61" style="font-family:'Helvetica';font-size:79.94px;fill:#000000" text-anchor="end">.0005</text>
	<line x1="479.28" y1="2044.66" x2="447.36" y2="2044.66" style="stroke:#000000;stroke-width:4.61"/>
	<text x="431.39" y="2072.67" style="font-family:'Helvetica';font-size:79.94px;fill:#000000" text-anchor="end">.001</text>
	<line x1="479.28" y1="1901.73" x2="447.36" y2="1901.73" style="stroke:#000000;stroke-width:4.61"/>
	<text x="431.39" y="1929.74" style="font-family:'Helvetica';font-size:79.94px;fill:#000000" text-anchor="end">.0015</text>
	<line x1="479.28" y1="1758.91" x2="447.36" y2="1758.91" style="stroke:#000000;stroke-width:4.61"/>
	<text x="431.39" y="1786.93" style="font-family:'Helvetica';font-size:79.94px;fill:#000000" text-anchor="end">.002</text>
	<line x1="479.28" y1="1615.98" x2="447.36" y2="1615.98" style="stroke:#000000;stroke-width:4.61"/>
	<text x="431.39" y="1643.99" style="font-family:'Helvetica';font-size:79.94px;fill:#000000" text-anchor="end">.0025</text>
	<line x1="1716.54" y1="2330.53" x2="1716.54" y2="1532.94" style="stroke:#000000;stroke-width:4.61"/>
	<line x1="1716.54" y1="2330.53" x2="1684.61" y2="2330.53" style="stroke:#000000;stroke-width:4.61"/>
	<text x="1668.52" y="2358.54" style="font-family:'Helvetica';font-size:79.94px;fill:#000000" text-anchor="end">0</text>
	<line x1="1716.54" y1="2091.56" x2="1684.61" y2="2091.56" style="stroke:#000000;stroke-width:4.61"/>
	<text x="1668.52" y="2119.58" style="font-family:'Helvetica';font-size:79.94px;fill:#000000" text-anchor="end">.002</text>
	<line x1="1716.54" y1="1852.60" x2="1684.61" y2="1852.60" style="stroke:#000000;stroke-width:4.61"/>
	<text x="1668.52" y="1880.61" style="font-family:'Helvetica';font-size:79.94px;fill:#000000" text-anchor="end">.004</text>
	<line x1="1716.54" y1="1613.63" x2="1684.61" y2="1613.63" style="stroke:#000000;stroke-width:4.61"/>
	<text x="1668.52" y="1641.64" style="font-family:'Helvetica';font-size:79.94px;fill:#000000" text-anchor="end">.006</text>
	<line x1="2953.79" y1="2330.53" x2="2953.79" y2="1532.94" style="stroke:#000000;stroke-width:4.61"/>
	<line x1="2953.79" y1="2330.53" x2="2921.74" y2="2330.53" style="stroke:#000000;stroke-width:4.61"/>
	<text x="2905.77" y="2358.54" style="font-family:'Helvetica';font-size:79.94px;fill:#000000" text-anchor="end">0</text>
	<line x1="2953.79" y1="2091.56" x2="2921.74" y2="2091.56" style="stroke:#000000;stroke-width:4.61"/>
	<text x="2905.77" y="2119.58" style="font-family:'Helvetica';font-size:79.94px;fill:#000000" text-anchor="end">.005</text>
	<line x1="2953.79" y1="1852.60" x2="2921.74" y2="1852.60" style="stroke:#000000;stroke-width:4.61"/>
	<text x="2905.77" y="1880.61" style="font-family:'Helvetica';font-size:79.94px;fill:#000000" text-anchor="end">.01</text>
	<line x1="2953.79" y1="1613.63" x2="2921.74" y2="1613.63" style="stroke:#000000;stroke-width:4.61"/>
	<text x="2905.77" y="1641.64" style="font-family:'Helvetica';font-size:79.94px;fill:#000000" text-anchor="end">.015</text>
	<line x1="479.28" y1="1048.57" x2="1350.11" y2="1048.57" style="stroke:#000000;stroke-width:4.61"/>
	<text x="638.93" y="1080.62" style="font-family:'Helvetica';font-size:48.02px;fill:#000000" transform="rotate(-90 638.93,1080.62)" text-anchor="end">COVID</text>
	<text x="736.44" y="1080.62" style="font-family:'Helvetica';font-size:48.02px;fill:#000000" transform="rotate(-90 736.44,1080.62)" text-anchor="end">---------</text>
	<text x="833.96" y="1080.62" style="font-family:'Helvetica';font-size:48.02px;fill:#000000" transform="rotate(-90 833.96,1080.62)" text-anchor="end">CANCER</text>
	<text x="931.60" y="1080.62" style="font-family:'Helvetica';font-size:48.02px;fill:#000000" transform="rotate(-90 931.60,1080.62)" text-anchor="end">CVD</text>
	<text x="1029.11" y="1080.62" style="font-family:'Helvetica';font-size:48.02px;fill:#000000" transform="rotate(-90 1029.11,1080.62)" text-anchor="end">DEM_ALZ</text>
	<text x="1126.63" y="1080.62" style="font-family:'Helvetica';font-size:48.02px;fill:#000000" transform="rotate(-90 1126.63,1080.62)" text-anchor="end">RESPIR</text>
	<text x="1224.26" y="1080.62" style="font-family:'Helvetica';font-size:48.02px;fill:#000000" transform="rotate(-90 1224.26,1080.62)" text-anchor="end">OTHER</text>
	<line x1="1716.54" y1="1048.57" x2="2587.36" y2="1048.57" style="stroke:#000000;stroke-width:4.61"/>
	<text x="1876.06" y="1080.62" style="font-family:'Helvetica';font-size:48.02px;fill:#000000" transform="rotate(-90 1876.06,1080.62)" text-anchor="end">COVID</text>
	<text x="1973.69" y="1080.62" style="font-family:'Helvetica';font-size:48.02px;fill:#000000" transform="rotate(-90 1973.69,1080.62)" text-anchor="end">---------</text>
	<text x="2071.21" y="1080.62" style="font-family:'Helvetica';font-size:48.02px;fill:#000000" transform="rotate(-90 2071.21,1080.62)" text-anchor="end">CANCER</text>
	<text x="2168.72" y="1080.62" style="font-family:'Helvetica';font-size:48.02px;fill:#000000" transform="rotate(-90 2168.72,1080.62)" text-anchor="end">CVD</text>
	<text x="2266.36" y="1080.62" style="font-family:'Helvetica';font-size:48.02px;fill:#000000" transform="rotate(-90 2266.36,1080.62)" text-anchor="end">DEM_ALZ</text>
	<text x="2363.88" y="1080.62" style="font-family:'Helvetica';font-size:48.02px;fill:#000000" transform="rotate(-90 2363.88,1080.62)" text-anchor="end">RESPIR</text>
	<text x="2461.39" y="1080.62" style="font-family:'Helvetica';font-size:48.02px;fill:#000000" transform="rotate(-90 2461.39,1080.62)" text-anchor="end">OTHER</text>
	<line x1="2953.79" y1="1048.57" x2="3824.49" y2="1048.57" style="stroke:#000000;stroke-width:4.61"/>
	<text x="3113.31" y="1080.62" style="font-family:'Helvetica';font-size:48.02px;fill:#000000" transform="rotate(-90 3113.31,1080.62)" text-anchor="end">COVID</text>
	<text x="3210.82" y="1080.62" style="font-family:'Helvetica';font-size:48.02px;fill:#000000" transform="rotate(-90 3210.82,1080.62)" text-anchor="end">---------</text>
	<text x="3308.46" y="1080.62" style="font-family:'Helvetica';font-size:48.02px;fill:#000000" transform="rotate(-90 3308.46,1080.62)" text-anchor="end">CANCER</text>
	<text x="3405.98" y="1080.62" style="font-family:'Helvetica';font-size:48.02px;fill:#000000" transform="rotate(-90 3405.98,1080.62)" text-anchor="end">CVD</text>
	<text x="3503.49" y="1080.62" style="font-family:'Helvetica';font-size:48.02px;fill:#000000" transform="rotate(-90 3503.49,1080.62)" text-anchor="end">DEM_ALZ</text>
	<text x="3601.13" y="1080.62" style="font-family:'Helvetica';font-size:48.02px;fill:#000000" transform="rotate(-90 3601.13,1080.62)" text-anchor="end">RESPIR</text>
	<text x="3698.65" y="1080.62" style="font-family:'Helvetica';font-size:48.02px;fill:#000000" transform="rotate(-90 3698.65,1080.62)" text-anchor="end">OTHER</text>
	<line x1="479.28" y1="2330.53" x2="1350.11" y2="2330.53" style="stroke:#000000;stroke-width:4.61"/>
	<text x="638.93" y="2362.46" style="font-family:'Helvetica';font-size:48.02px;fill:#000000" transform="rotate(-90 638.93,2362.46)" text-anchor="end">COVID</text>
	<text x="736.44" y="2362.46" style="font-family:'Helvetica';font-size:48.02px;fill:#000000" transform="rotate(-90 736.44,2362.46)" text-anchor="end">---------</text>
	<text x="833.96" y="2362.46" style="font-family:'Helvetica';font-size:48.02px;fill:#000000" transform="rotate(-90 833.96,2362.46)" text-anchor="end">CANCER</text>
	<text x="931.60" y="2362.46" style="font-family:'Helvetica';font-size:48.02px;fill:#000000" transform="rotate(-90 931.60,2362.46)" text-anchor="end">CVD</text>
	<text x="1029.11" y="2362.46" style="font-family:'Helvetica';font-size:48.02px;fill:#000000" transform="rotate(-90 1029.11,2362.46)" text-anchor="end">DEM_ALZ</text>
	<text x="1126.63" y="2362.46" style="font-family:'Helvetica';font-size:48.02px;fill:#000000" transform="rotate(-90 1126.63,2362.46)" text-anchor="end">RESPIR</text>
	<text x="1224.26" y="2362.46" style="font-family:'Helvetica';font-size:48.02px;fill:#000000" transform="rotate(-90 1224.26,2362.46)" text-anchor="end">OTHER</text>
	<line x1="1716.54" y1="2330.53" x2="2587.36" y2="2330.53" style="stroke:#000000;stroke-width:4.61"/>
	<text x="1876.06" y="2362.46" style="font-family:'Helvetica';font-size:48.02px;fill:#000000" transform="rotate(-90 1876.06,2362.46)" text-anchor="end">COVID</text>
	<text x="1973.69" y="2362.46" style="font-family:'Helvetica';font-size:48.02px;fill:#000000" transform="rotate(-90 1973.69,2362.46)" text-anchor="end">---------</text>
	<text x="2071.21" y="2362.46" style="font-family:'Helvetica';font-size:48.02px;fill:#000000" transform="rotate(-90 2071.21,2362.46)" text-anchor="end">CANCER</text>
	<text x="2168.72" y="2362.46" style="font-family:'Helvetica';font-size:48.02px;fill:#000000" transform="rotate(-90 2168.72,2362.46)" text-anchor="end">CVD</text>
	<text x="2266.36" y="2362.46" style="font-family:'Helvetica';font-size:48.02px;fill:#000000" transform="rotate(-90 2266.36,2362.46)" text-anchor="end">DEM_ALZ</text>
	<text x="2363.88" y="2362.46" style="font-family:'Helvetica';font-size:48.02px;fill:#000000" transform="rotate(-90 2363.88,2362.46)" text-anchor="end">RESPIR</text>
	<text x="2461.39" y="2362.46" style="font-family:'Helvetica';font-size:48.02px;fill:#000000" transform="rotate(-90 2461.39,2362.46)" text-anchor="end">OTHER</text>
	<line x1="2953.79" y1="2330.53" x2="3824.49" y2="2330.53" style="stroke:#000000;stroke-width:4.61"/>
	<text x="3113.31" y="2362.46" style="font-family:'Helvetica';font-size:48.02px;fill:#000000" transform="rotate(-90 3113.31,2362.46)" text-anchor="end">COVID</text>
	<text x="3210.82" y="2362.46" style="font-family:'Helvetica';font-size:48.02px;fill:#000000" transform="rotate(-90 3210.82,2362.46)" text-anchor="end">---------</text>
	<text x="3308.46" y="2362.46" style="font-family:'Helvetica';font-size:48.02px;fill:#000000" transform="rotate(-90 3308.46,2362.46)" text-anchor="end">CANCER</text>
	<text x="3405.98" y="2362.46" style="font-family:'Helvetica';font-size:48.02px;fill:#000000" transform="rotate(-90 3405.98,2362.46)" text-anchor="end">CVD</text>
	<text x="3503.49" y="2362.46" style="font-family:'Helvetica';font-size:48.02px;fill:#000000" transform="rotate(-90 3503.49,2362.46)" text-anchor="end">DEM_ALZ</text>
	<text x="3601.13" y="2362.46" style="font-family:'Helvetica';font-size:48.02px;fill:#000000" transform="rotate(-90 3601.13,2362.46)" text-anchor="end">RESPIR</text>
	<text x="3698.65" y="2362.46" style="font-family:'Helvetica';font-size:48.02px;fill:#000000" transform="rotate(-90 3698.65,2362.46)" text-anchor="end">OTHER</text>
	<rect x="479.28" y="135.39" width="870.83" height="115.59" style="fill:#D9E6EB"/>
	<rect x="481.59" y="137.69" width="866.22" height="110.98" style="fill:none;stroke:#D9E6EB;stroke-width:4.61"/>
	<text x="914.76" y="210.78" style="font-family:'Helvetica';font-size:87.99px;fill:#000000" text-anchor="middle">18-&lt;40</text>
	<rect x="1716.54" y="135.39" width="870.83" height="115.59" style="fill:#D9E6EB"/>
	<rect x="1718.84" y="137.69" width="866.22" height="110.98" style="fill:none;stroke:#D9E6EB;stroke-width:4.61"/>
	<text x="2151.89" y="210.78" style="font-family:'Helvetica';font-size:87.99px;fill:#000000" text-anchor="middle">40-&lt;50</text>
	<rect x="2953.79" y="135.39" width="870.70" height="115.59" style="fill:#D9E6EB"/>
	<rect x="2956.09" y="137.69" width="866.10" height="110.98" style="fill:none;stroke:#D9E6EB;stroke-width:4.61"/>
	<text x="3389.14" y="210.78" style="font-family:'Helvetica';font-size:87.99px;fill:#000000" text-anchor="middle">50-&lt;60</text>
	<rect x="479.28" y="1417.35" width="870.83" height="115.59" style="fill:#D9E6EB"/>
	<rect x="481.59" y="1419.66" width="866.22" height="110.98" style="fill:none;stroke:#D9E6EB;stroke-width:4.61"/>
	<text x="914.76" y="1492.62" style="font-family:'Helvetica';font-size:87.99px;fill:#000000" text-anchor="middle">60-&lt;70</text>
	<rect x="1716.54" y="1417.35" width="870.83" height="115.59" style="fill:#D9E6EB"/>
	<rect x="1718.84" y="1419.66" width="866.22" height="110.98" style="fill:none;stroke:#D9E6EB;stroke-width:4.61"/>
	<text x="2151.89" y="1492.62" style="font-family:'Helvetica';font-size:87.99px;fill:#000000" text-anchor="middle">70-&lt;80</text>
	<rect x="2953.79" y="1417.35" width="870.70" height="115.59" style="fill:#D9E6EB"/>
	<rect x="2956.09" y="1419.66" width="866.10" height="110.98" style="fill:none;stroke:#D9E6EB;stroke-width:4.61"/>
	<text x="3389.14" y="1492.62" style="font-family:'Helvetica';font-size:87.99px;fill:#000000" text-anchor="middle">80+</text>
	<text x="118.06" y="2737.89" style="font-family:'Helvetica';font-size:79.94px;fill:#000000">Graphs by agegroup</text>
</svg>
