<?xml version="1.0" encoding="UTF-8" standalone="no"?>
<!-- This is a Stata 16.1 generated SVG file (http://www.stata.com) -->

<svg version="1.1" width="5.50in" height="4.00in" viewBox="0 0 3960 2880" xmlns="http://www.w3.org/2000/svg" xmlns:xlink="http://www.w3.org/1999/xlink">
	<desc>Stata Graph - Graph</desc>
	<rect x="0" y="0" width="3960" height="2880" style="fill:#EAF2F3;stroke:none"/>
	<rect x="0.00" y="0.00" width="3959.88" height="2880.00" style="fill:#EAF2F3"/>
	<rect x="2.88" y="2.88" width="3954.12" height="2874.24" style="fill:none;stroke:#EAF2F3;stroke-width:5.76"/>
	<rect x="479.28" y="250.97" width="870.83" height="797.59" style="fill:#FFFFFF"/>
	<rect x="481.59" y="253.28" width="866.22" height="792.99" style="fill:none;stroke:#FFFFFF;stroke-width:4.61"/>
	<line x1="479.28" y1="1048.57" x2="1350.11" y2="1048.57" style="stroke:#EAF2F3;stroke-width:6.91"/>
	<line x1="479.28" y1="809.60" x2="1350.11" y2="809.60" style="stroke:#EAF2F3;stroke-width:6.91"/>
	<line x1="479.28" y1="570.63" x2="1350.11" y2="570.63" style="stroke:#EAF2F3;stroke-width:6.91"/>
	<line x1="479.28" y1="331.66" x2="1350.11" y2="331.66" style="stroke:#EAF2F3;stroke-width:6.91"/>
	<rect x="1716.54" y="250.97" width="870.83" height="797.59" style="fill:#FFFFFF"/>
	<rect x="1718.84" y="253.28" width="866.22" height="792.99" style="fill:none;stroke:#FFFFFF;stroke-width:4.61"/>
	<line x1="1716.54" y1="1048.57" x2="2587.36" y2="1048.57" style="stroke:#EAF2F3;stroke-width:6.91"/>
	<line x1="1716.54" y1="869.37" x2="2587.36" y2="869.37" style="stroke:#EAF2F3;stroke-width:6.91"/>
	<line x1="1716.54" y1="690.05" x2="2587.36" y2="690.05" style="stroke:#EAF2F3;stroke-width:6.91"/>
	<line x1="1716.54" y1="510.86" x2="2587.36" y2="510.86" style="stroke:#EAF2F3;stroke-width:6.91"/>
	<rect x="2953.79" y="250.97" width="870.70" height="797.59" style="fill:#FFFFFF"/>
	<rect x="2956.09" y="253.28" width="866.10" height="792.99" style="fill:none;stroke:#FFFFFF;stroke-width:4.61"/>
	<line x1="2953.79" y1="1048.57" x2="3824.49" y2="1048.57" style="stroke:#EAF2F3;stroke-width:6.91"/>
	<line x1="2953.79" y1="911.45" x2="3824.49" y2="911.45" style="stroke:#EAF2F3;stroke-width:6.91"/>
	<line x1="2953.79" y1="774.33" x2="3824.49" y2="774.33" style="stroke:#EAF2F3;stroke-width:6.91"/>
	<line x1="2953.79" y1="637.21" x2="3824.49" y2="637.21" style="stroke:#EAF2F3;stroke-width:6.91"/>
	<line x1="2953.79" y1="500.09" x2="3824.49" y2="500.09" style="stroke:#EAF2F3;stroke-width:6.91"/>
	<line x1="2953.79" y1="362.85" x2="3824.49" y2="362.85" style="stroke:#EAF2F3;stroke-width:6.91"/>
	<rect x="479.28" y="1532.94" width="870.83" height="797.59" style="fill:#FFFFFF"/>
	<rect x="481.59" y="1535.24" width="866.22" height="792.99" style="fill:none;stroke:#FFFFFF;stroke-width:4.61"/>
	<line x1="479.28" y1="2330.53" x2="1350.11" y2="2330.53" style="stroke:#EAF2F3;stroke-width:6.91"/>
	<line x1="479.28" y1="2091.56" x2="1350.11" y2="2091.56" style="stroke:#EAF2F3;stroke-width:6.91"/>
	<line x1="479.28" y1="1852.60" x2="1350.11" y2="1852.60" style="stroke:#EAF2F3;stroke-width:6.91"/>
	<line x1="479.28" y1="1613.63" x2="1350.11" y2="1613.63" style="stroke:#EAF2F3;stroke-width:6.91"/>
	<rect x="1716.54" y="1532.94" width="870.83" height="797.59" style="fill:#FFFFFF"/>
	<rect x="1718.84" y="1535.24" width="866.22" height="792.99" style="fill:none;stroke:#FFFFFF;stroke-width:4.61"/>
	<line x1="1716.54" y1="2330.53" x2="2587.36" y2="2330.53" style="stroke:#EAF2F3;stroke-width:6.91"/>
	<line x1="1716.54" y1="2151.34" x2="2587.36" y2="2151.34" style="stroke:#EAF2F3;stroke-width:6.91"/>
	<line x1="1716.54" y1="1972.02" x2="2587.36" y2="1972.02" style="stroke:#EAF2F3;stroke-width:6.91"/>
	<line x1="1716.54" y1="1792.82" x2="2587.36" y2="1792.82" style="stroke:#EAF2F3;stroke-width:6.91"/>
	<rect x="2953.79" y="1532.94" width="870.70" height="797.59" style="fill:#FFFFFF"/>
	<rect x="2956.09" y="1535.24" width="866.10" height="792.99" style="fill:none;stroke:#FFFFFF;stroke-width:4.61"/>
	<line x1="2953.79" y1="2330.53" x2="3824.49" y2="2330.53" style="stroke:#EAF2F3;stroke-width:6.91"/>
	<line x1="2953.79" y1="2151.34" x2="3824.49" y2="2151.34" style="stroke:#EAF2F3;stroke-width:6.91"/>
	<line x1="2953.79" y1="1972.02" x2="3824.49" y2="1972.02" style="stroke:#EAF2F3;stroke-width:6.91"/>
	<line x1="2953.79" y1="1792.82" x2="3824.49" y2="1792.82" style="stroke:#EAF2F3;stroke-width:6.91"/>
	<line x1="2953.79" y1="1613.63" x2="3824.49" y2="1613.63" style="stroke:#EAF2F3;stroke-width:6.91"/>
	<rect x="577.66" y="992.01" width="88.73" height="56.56" style="fill:#000000"/>
	<rect x="579.97" y="994.31" width="84.12" height="51.95" style="fill:none;stroke:#000000;stroke-width:4.61"/>
	<rect x="772.82" y="750.94" width="88.73" height="297.63" style="fill:#707070"/>
	<rect x="775.12" y="753.24" width="84.12" height="293.02" style="fill:none;stroke:#707070;stroke-width:4.61"/>
	<rect x="870.33" y="892.88" width="88.73" height="155.68" style="fill:#707070"/>
	<rect x="872.64" y="895.19" width="84.12" height="151.07" style="fill:none;stroke:#707070;stroke-width:4.61"/>
	<rect x="967.97" y="1048.57" width="88.61" height="0.00" style="fill:#707070"/>
	<rect x="970.28" y="1046.26" width="84.00" height="4.61" style="fill:none;stroke:#707070;stroke-width:4.61"/>
	<rect x="1065.49" y="1013.05" width="88.73" height="35.52" style="fill:#707070"/>
	<rect x="1067.79" y="1015.35" width="84.12" height="30.91" style="fill:none;stroke:#707070;stroke-width:4.61"/>
	<rect x="1163.00" y="470.26" width="88.73" height="578.30" style="fill:#707070"/>
	<rect x="1165.31" y="472.57" width="84.12" height="573.69" style="fill:none;stroke:#707070;stroke-width:4.61"/>
	<rect x="1814.92" y="912.44" width="88.73" height="136.13" style="fill:#000000"/>
	<rect x="1817.22" y="914.74" width="84.12" height="131.52" style="fill:none;stroke:#000000;stroke-width:4.61"/>
	<rect x="2010.07" y="448.73" width="88.61" height="599.83" style="fill:#707070"/>
	<rect x="2012.38" y="451.04" width="84.00" height="595.23" style="fill:none;stroke:#707070;stroke-width:4.61"/>
	<rect x="2107.59" y="666.54" width="88.73" height="382.03" style="fill:#707070"/>
	<rect x="2109.89" y="668.84" width="84.12" height="377.42" style="fill:none;stroke:#707070;stroke-width:4.61"/>
	<rect x="2205.10" y="1047.33" width="88.73" height="1.24" style="fill:#707070"/>
	<rect x="2207.41" y="1046.26" width="84.12" height="3.37" style="fill:none;stroke:#707070;stroke-width:4.61"/>
	<rect x="2302.74" y="955.50" width="88.61" height="93.06" style="fill:#707070"/>
	<rect x="2305.04" y="957.81" width="84.00" height="88.46" style="fill:none;stroke:#707070;stroke-width:4.61"/>
	<rect x="2400.26" y="459.25" width="88.73" height="589.32" style="fill:#707070"/>
	<rect x="2402.56" y="461.55" width="84.12" height="584.71" style="fill:none;stroke:#707070;stroke-width:4.61"/>
	<rect x="3052.17" y="891.40" width="88.61" height="157.17" style="fill:#000000"/>
	<rect x="3054.47" y="893.70" width="84.00" height="152.56" style="fill:none;stroke:#000000;stroke-width:4.61"/>
	<rect x="3247.20" y="331.66" width="88.73" height="716.91" style="fill:#707070"/>
	<rect x="3249.50" y="333.96" width="84.12" height="712.30" style="fill:none;stroke:#707070;stroke-width:4.61"/>
	<rect x="3344.84" y="649.46" width="88.61" height="399.11" style="fill:#707070"/>
	<rect x="3347.14" y="651.76" width="84.00" height="394.50" style="fill:none;stroke:#707070;stroke-width:4.61"/>
	<rect x="3442.35" y="1042.38" width="88.73" height="6.19" style="fill:#707070"/>
	<rect x="3444.66" y="1044.68" width="84.12" height="1.58" style="fill:none;stroke:#707070;stroke-width:4.61"/>
	<rect x="3539.87" y="938.80" width="88.73" height="109.77" style="fill:#707070"/>
	<rect x="3542.17" y="941.10" width="84.12" height="105.16" style="fill:none;stroke:#707070;stroke-width:4.61"/>
	<rect x="3637.51" y="638.82" width="88.61" height="409.75" style="fill:#707070"/>
	<rect x="3639.81" y="641.12" width="84.00" height="405.14" style="fill:none;stroke:#707070;stroke-width:4.61"/>
	<rect x="577.66" y="2173.37" width="88.73" height="157.17" style="fill:#000000"/>
	<rect x="579.97" y="2175.67" width="84.12" height="152.56" style="fill:none;stroke:#000000;stroke-width:4.61"/>
	<rect x="772.82" y="1626.74" width="88.73" height="703.79" style="fill:#707070"/>
	<rect x="775.12" y="1629.05" width="84.12" height="699.18" style="fill:none;stroke:#707070;stroke-width:4.61"/>
	<rect x="870.33" y="1974.25" width="88.73" height="356.29" style="fill:#707070"/>
	<rect x="872.64" y="1976.55" width="84.12" height="351.68" style="fill:none;stroke:#707070;stroke-width:4.61"/>
	<rect x="967.97" y="2308.26" width="88.61" height="22.28" style="fill:#707070"/>
	<rect x="970.28" y="2310.56" width="84.00" height="17.67" style="fill:none;stroke:#707070;stroke-width:4.61"/>
	<rect x="1065.49" y="2186.11" width="88.73" height="144.42" style="fill:#707070"/>
	<rect x="1067.79" y="2188.42" width="84.12" height="139.81" style="fill:none;stroke:#707070;stroke-width:4.61"/>
	<rect x="1163.00" y="2068.92" width="88.73" height="261.62" style="fill:#707070"/>
	<rect x="1165.31" y="2071.22" width="84.12" height="257.01" style="fill:none;stroke:#707070;stroke-width:4.61"/>
	<rect x="1814.92" y="2151.46" width="88.73" height="179.07" style="fill:#000000"/>
	<rect x="1817.22" y="2153.76" width="84.12" height="174.46" style="fill:none;stroke:#000000;stroke-width:4.61"/>
	<rect x="2010.07" y="1738.74" width="88.61" height="591.79" style="fill:#707070"/>
	<rect x="2012.38" y="1741.05" width="84.00" height="587.18" style="fill:none;stroke:#707070;stroke-width:4.61"/>
	<rect x="2107.59" y="1970.90" width="88.73" height="359.63" style="fill:#707070"/>
	<rect x="2109.89" y="1973.21" width="84.12" height="355.02" style="fill:none;stroke:#707070;stroke-width:4.61"/>
	<rect x="2205.10" y="2239.82" width="88.73" height="90.71" style="fill:#707070"/>
	<rect x="2207.41" y="2242.13" width="84.12" height="86.10" style="fill:none;stroke:#707070;stroke-width:4.61"/>
	<rect x="2302.74" y="2152.33" width="88.61" height="178.21" style="fill:#707070"/>
	<rect x="2305.04" y="2154.63" width="84.00" height="173.60" style="fill:none;stroke:#707070;stroke-width:4.61"/>
	<rect x="2400.26" y="2094.41" width="88.73" height="236.12" style="fill:#707070"/>
	<rect x="2402.56" y="2096.71" width="84.12" height="231.51" style="fill:none;stroke:#707070;stroke-width:4.61"/>
	<rect x="3052.17" y="1998.87" width="88.61" height="331.66" style="fill:#000000"/>
	<rect x="3054.47" y="2001.18" width="84.00" height="327.05" style="fill:none;stroke:#000000;stroke-width:4.61"/>
	<rect x="3247.20" y="1836.88" width="88.73" height="493.65" style="fill:#707070"/>
	<rect x="3249.50" y="1839.18" width="84.12" height="489.05" style="fill:none;stroke:#707070;stroke-width:4.61"/>
	<rect x="3344.84" y="1688.37" width="88.61" height="642.16" style="fill:#707070"/>
	<rect x="3347.14" y="1690.68" width="84.00" height="637.55" style="fill:none;stroke:#707070;stroke-width:4.61"/>
	<rect x="3442.35" y="1893.93" width="88.73" height="436.60" style="fill:#707070"/>
	<rect x="3444.66" y="1896.23" width="84.12" height="432.00" style="fill:none;stroke:#707070;stroke-width:4.61"/>
	<rect x="3539.87" y="2037.61" width="88.73" height="292.93" style="fill:#707070"/>
	<rect x="3542.17" y="2039.91" width="84.12" height="288.32" style="fill:none;stroke:#707070;stroke-width:4.61"/>
	<rect x="3637.51" y="1825.12" width="88.61" height="505.41" style="fill:#707070"/>
	<rect x="3639.81" y="1827.43" width="84.00" height="500.80" style="fill:none;stroke:#707070;stroke-width:4.61"/>
	<line x1="479.28" y1="1048.57" x2="479.28" y2="250.97" style="stroke:#000000;stroke-width:4.61"/>
	<line x1="479.28" y1="1048.57" x2="447.36" y2="1048.57" style="stroke:#000000;stroke-width:4.61"/>
	<text x="431.39" y="1076.58" style="font-family:'Helvetica';font-size:79.94px;fill:#000000" text-anchor="end">0</text>
	<line x1="479.28" y1="809.60" x2="447.36" y2="809.60" style="stroke:#000000;stroke-width:4.61"/>
	<text x="431.39" y="837.61" style="font-family:'Helvetica';font-size:79.94px;fill:#000000" text-anchor="end">.00005</text>
	<line x1="479.28" y1="570.63" x2="447.36" y2="570.63" style="stroke:#000000;stroke-width:4.61"/>
	<text x="431.39" y="598.64" style="font-family:'Helvetica';font-size:79.94px;fill:#000000" text-anchor="end">.0001</text>
	<line x1="479.28" y1="331.66" x2="447.36" y2="331.66" style="stroke:#000000;stroke-width:4.61"/>
	<text x="431.39" y="359.67" style="font-family:'Helvetica';font-size:79.94px;fill:#000000" text-anchor="end">.00015</text>
	<line x1="1716.54" y1="1048.57" x2="1716.54" y2="250.97" style="stroke:#000000;stroke-width:4.61"/>
	<line x1="1716.54" y1="1048.57" x2="1684.61" y2="1048.57" style="stroke:#000000;stroke-width:4.61"/>
	<text x="1668.52" y="1076.58" style="font-family:'Helvetica';font-size:79.94px;fill:#000000" text-anchor="end">0</text>
	<line x1="1716.54" y1="869.37" x2="1684.61" y2="869.37" style="stroke:#000000;stroke-width:4.61"/>
	<text x="1668.52" y="897.38" style="font-family:'Helvetica';font-size:79.94px;fill:#000000" text-anchor="end">.0001</text>
	<line x1="1716.54" y1="690.05" x2="1684.61" y2="690.05" style="stroke:#000000;stroke-width:4.61"/>
	<text x="1668.52" y="718.06" style="font-family:'Helvetica';font-size:79.94px;fill:#000000" text-anchor="end">.0002</text>
	<line x1="1716.54" y1="510.86" x2="1684.61" y2="510.86" style="stroke:#000000;stroke-width:4.61"/>
	<text x="1668.52" y="538.87" style="font-family:'Helvetica';font-size:79.94px;fill:#000000" text-anchor="end">.0003</text>
	<line x1="1716.54" y1="331.66" x2="1684.61" y2="331.66" style="stroke:#000000;stroke-width:4.61"/>
	<text x="1668.52" y="359.67" style="font-family:'Helvetica';font-size:79.94px;fill:#000000" text-anchor="end">.0004</text>
	<line x1="2953.79" y1="1048.57" x2="2953.79" y2="250.97" style="stroke:#000000;stroke-width:4.61"/>
	<line x1="2953.79" y1="1048.57" x2="2921.74" y2="1048.57" style="stroke:#000000;stroke-width:4.61"/>
	<text x="2905.77" y="1076.58" style="font-family:'Helvetica';font-size:79.94px;fill:#000000" text-anchor="end">0</text>
	<line x1="2953.79" y1="911.45" x2="2921.74" y2="911.45" style="stroke:#000000;stroke-width:4.61"/>
	<text x="2905.77" y="939.46" style="font-family:'Helvetica';font-size:79.94px;fill:#000000" text-anchor="end">.0002</text>
	<line x1="2953.79" y1="774.33" x2="2921.74" y2="774.33" style="stroke:#000000;stroke-width:4.61"/>
	<text x="2905.77" y="802.34" style="font-family:'Helvetica';font-size:79.94px;fill:#000000" text-anchor="end">.0004</text>
	<line x1="2953.79" y1="637.21" x2="2921.74" y2="637.21" style="stroke:#000000;stroke-width:4.61"/>
	<text x="2905.77" y="665.22" style="font-family:'Helvetica';font-size:79.94px;fill:#000000" text-anchor="end">.0006</text>
	<line x1="2953.79" y1="500.09" x2="2921.74" y2="500.09" style="stroke:#000000;stroke-width:4.61"/>
	<text x="2905.77" y="528.10" style="font-family:'Helvetica';font-size:79.94px;fill:#000000" text-anchor="end">.0008</text>
	<line x1="2953.79" y1="362.85" x2="2921.74" y2="362.85" style="stroke:#000000;stroke-width:4.61"/>
	<text x="2905.77" y="390.86" style="font-family:'Helvetica';font-size:79.94px;fill:#000000" text-anchor="end">.001</text>
	<line x1="479.28" y1="2330.53" x2="479.28" y2="1532.94" style="stroke:#000000;stroke-width:4.61"/>
	<line x1="479.28" y1="2330.53" x2="447.36" y2="2330.53" style="stroke:#000000;stroke-width:4.61"/>
	<text x="431.39" y="2358.54" style="font-family:'Helvetica';font-size:79.94px;fill:#000000" text-anchor="end">0</text>
	<line x1="479.28" y1="2091.56" x2="447.36" y2="2091.56" style="stroke:#000000;stroke-width:4.61"/>
	<text x="431.39" y="2119.58" style="font-family:'Helvetica';font-size:79.94px;fill:#000000" text-anchor="end">.001</text>
	<line x1="479.28" y1="1852.60" x2="447.36" y2="1852.60" style="stroke:#000000;stroke-width:4.61"/>
	<text x="431.39" y="1880.61" style="font-family:'Helvetica';font-size:79.94px;fill:#000000" text-anchor="end">.002</text>
	<line x1="479.28" y1="1613.63" x2="447.36" y2="1613.63" style="stroke:#000000;stroke-width:4.61"/>
	<text x="431.39" y="1641.64" style="font-family:'Helvetica';font-size:79.94px;fill:#000000" text-anchor="end">.003</text>
	<line x1="1716.54" y1="2330.53" x2="1716.54" y2="1532.94" style="stroke:#000000;stroke-width:4.61"/>
	<line x1="1716.54" y1="2330.53" x2="1684.61" y2="2330.53" style="stroke:#000000;stroke-width:4.61"/>
	<text x="1668.52" y="2358.54" style="font-family:'Helvetica';font-size:79.94px;fill:#000000" text-anchor="end">0</text>
	<line x1="1716.54" y1="2151.34" x2="1684.61" y2="2151.34" style="stroke:#000000;stroke-width:4.61"/>
	<text x="1668.52" y="2179.35" style="font-family:'Helvetica';font-size:79.94px;fill:#000000" text-anchor="end">.002</text>
	<line x1="1716.54" y1="1972.02" x2="1684.61" y2="1972.02" style="stroke:#000000;stroke-width:4.61"/>
	<text x="1668.52" y="2000.03" style="font-family:'Helvetica';font-size:79.94px;fill:#000000" text-anchor="end">.004</text>
	<line x1="1716.54" y1="1792.82" x2="1684.61" y2="1792.82" style="stroke:#000000;stroke-width:4.61"/>
	<text x="1668.52" y="1820.83" style="font-family:'Helvetica';font-size:79.94px;fill:#000000" text-anchor="end">.006</text>
	<line x1="1716.54" y1="1613.63" x2="1684.61" y2="1613.63" style="stroke:#000000;stroke-width:4.61"/>
	<text x="1668.52" y="1641.64" style="font-family:'Helvetica';font-size:79.94px;fill:#000000" text-anchor="end">.008</text>
	<line x1="2953.79" y1="2330.53" x2="2953.79" y2="1532.94" style="stroke:#000000;stroke-width:4.61"/>
	<line x1="2953.79" y1="2330.53" x2="2921.74" y2="2330.53" style="stroke:#000000;stroke-width:4.61"/>
	<text x="2905.77" y="2358.54" style="font-family:'Helvetica';font-size:79.94px;fill:#000000" text-anchor="end">0</text>
	<line x1="2953.79" y1="2151.34" x2="2921.74" y2="2151.34" style="stroke:#000000;stroke-width:4.61"/>
	<text x="2905.77" y="2179.35" style="font-family:'Helvetica';font-size:79.94px;fill:#000000" text-anchor="end">.005</text>
	<line x1="2953.79" y1="1972.02" x2="2921.74" y2="1972.02" style="stroke:#000000;stroke-width:4.61"/>
	<text x="2905.77" y="2000.03" style="font-family:'Helvetica';font-size:79.94px;fill:#000000" text-anchor="end">.01</text>
	<line x1="2953.79" y1="1792.82" x2="2921.74" y2="1792.82" style="stroke:#000000;stroke-width:4.61"/>
	<text x="2905.77" y="1820.83" style="font-family:'Helvetica';font-size:79.94px;fill:#000000" text-anchor="end">.015</text>
	<line x1="2953.79" y1="1613.63" x2="2921.74" y2="1613.63" style="stroke:#000000;stroke-width:4.61"/>
	<text x="2905.77" y="1641.64" style="font-family:'Helvetica';font-size:79.94px;fill:#000000" text-anchor="end">.02</text>
	<line x1="479.28" y1="1048.57" x2="1350.11" y2="1048.57" style="stroke:#000000;stroke-width:4.61"/>
	<text x="638.93" y="1080.62" style="font-family:'Helvetica';font-size:48.02px;fill:#000000" transform="rotate(-90 638.93,1080.62)" text-anchor="end">COVID</text>
	<text x="736.44" y="1080.62" style="font-family:'Helvetica';font-size:48.02px;fill:#000000" transform="rotate(-90 736.44,1080.62)" text-anchor="end">---------</text>
	<text x="833.96" y="1080.62" style="font-family:'Helvetica';font-size:48.02px;fill:#000000" transform="rotate(-90 833.96,1080.62)" text-anchor="end">CANCER</text>
	<text x="931.60" y="1080.62" style="font-family:'Helvetica';font-size:48.02px;fill:#000000" transform="rotate(-90 931.60,1080.62)" text-anchor="end">CVD</text>
	<text x="1029.11" y="1080.62" style="font-family:'Helvetica';font-size:48.02px;fill:#000000" transform="rotate(-90 1029.11,1080.62)" text-anchor="end">DEM_ALZ</text>
	<text x="1126.63" y="1080.62" style="font-family:'Helvetica';font-size:48.02px;fill:#000000" transform="rotate(-90 1126.63,1080.62)" text-anchor="end">RESPIR</text>
	<text x="1224.26" y="1080.62" style="font-family:'Helvetica';font-size:48.02px;fill:#000000" transform="rotate(-90 1224.26,1080.62)" text-anchor="end">OTHER</text>
	<line x1="1716.54" y1="1048.57" x2="2587.36" y2="1048.57" style="stroke:#000000;stroke-width:4.61"/>
	<text x="1876.06" y="1080.62" style="font-family:'Helvetica';font-size:48.02px;fill:#000000" transform="rotate(-90 1876.06,1080.62)" text-anchor="end">COVID</text>
	<text x="1973.69" y="1080.62" style="font-family:'Helvetica';font-size:48.02px;fill:#000000" transform="rotate(-90 1973.69,1080.62)" text-anchor="end">---------</text>
	<text x="2071.21" y="1080.62" style="font-family:'Helvetica';font-size:48.02px;fill:#000000" transform="rotate(-90 2071.21,1080.62)" text-anchor="end">CANCER</text>
	<text x="2168.72" y="1080.62" style="font-family:'Helvetica';font-size:48.02px;fill:#000000" transform="rotate(-90 2168.72,1080.62)" text-anchor="end">CVD</text>
	<text x="2266.36" y="1080.62" style="font-family:'Helvetica';font-size:48.02px;fill:#000000" transform="rotate(-90 2266.36,1080.62)" text-anchor="end">DEM_ALZ</text>
	<text x="2363.88" y="1080.62" style="font-family:'Helvetica';font-size:48.02px;fill:#000000" transform="rotate(-90 2363.88,1080.62)" text-anchor="end">RESPIR</text>
	<text x="2461.39" y="1080.62" style="font-family:'Helvetica';font-size:48.02px;fill:#000000" transform="rotate(-90 2461.39,1080.62)" text-anchor="end">OTHER</text>
	<line x1="2953.79" y1="1048.57" x2="3824.49" y2="1048.57" style="stroke:#000000;stroke-width:4.61"/>
	<text x="3113.31" y="1080.62" style="font-family:'Helvetica';font-size:48.02px;fill:#000000" transform="rotate(-90 3113.31,1080.62)" text-anchor="end">COVID</text>
	<text x="3210.82" y="1080.62" style="font-family:'Helvetica';font-size:48.02px;fill:#000000" transform="rotate(-90 3210.82,1080.62)" text-anchor="end">---------</text>
	<text x="3308.46" y="1080.62" style="font-family:'Helvetica';font-size:48.02px;fill:#000000" transform="rotate(-90 3308.46,1080.62)" text-anchor="end">CANCER</text>
	<text x="3405.98" y="1080.62" style="font-family:'Helvetica';font-size:48.02px;fill:#000000" transform="rotate(-90 3405.98,1080.62)" text-anchor="end">CVD</text>
	<text x="3503.49" y="1080.62" style="font-family:'Helvetica';font-size:48.02px;fill:#000000" transform="rotate(-90 3503.49,1080.62)" text-anchor="end">DEM_ALZ</text>
	<text x="3601.13" y="1080.62" style="font-family:'Helvetica';font-size:48.02px;fill:#000000" transform="rotate(-90 3601.13,1080.62)" text-anchor="end">RESPIR</text>
	<text x="3698.65" y="1080.62" style="font-family:'Helvetica';font-size:48.02px;fill:#000000" transform="rotate(-90 3698.65,1080.62)" text-anchor="end">OTHER</text>
	<line x1="479.28" y1="2330.53" x2="1350.11" y2="2330.53" style="stroke:#000000;stroke-width:4.61"/>
	<text x="638.93" y="2362.46" style="font-family:'Helvetica';font-size:48.02px;fill:#000000" transform="rotate(-90 638.93,2362.46)" text-anchor="end">COVID</text>
	<text x="736.44" y="2362.46" style="font-family:'Helvetica';font-size:48.02px;fill:#000000" transform="rotate(-90 736.44,2362.46)" text-anchor="end">---------</text>
	<text x="833.96" y="2362.46" style="font-family:'Helvetica';font-size:48.02px;fill:#000000" transform="rotate(-90 833.96,2362.46)" text-anchor="end">CANCER</text>
	<text x="931.60" y="2362.46" style="font-family:'Helvetica';font-size:48.02px;fill:#000000" transform="rotate(-90 931.60,2362.46)" text-anchor="end">CVD</text>
	<text x="1029.11" y="2362.46" style="font-family:'Helvetica';font-size:48.02px;fill:#000000" transform="rotate(-90 1029.11,2362.46)" text-anchor="end">DEM_ALZ</text>
	<text x="1126.63" y="2362.46" style="font-family:'Helvetica';font-size:48.02px;fill:#000000" transform="rotate(-90 1126.63,2362.46)" text-anchor="end">RESPIR</text>
	<text x="1224.26" y="2362.46" style="font-family:'Helvetica';font-size:48.02px;fill:#000000" transform="rotate(-90 1224.26,2362.46)" text-anchor="end">OTHER</text>
	<line x1="1716.54" y1="2330.53" x2="2587.36" y2="2330.53" style="stroke:#000000;stroke-width:4.61"/>
	<text x="1876.06" y="2362.46" style="font-family:'Helvetica';font-size:48.02px;fill:#000000" transform="rotate(-90 1876.06,2362.46)" text-anchor="end">COVID</text>
	<text x="1973.69" y="2362.46" style="font-family:'Helvetica';font-size:48.02px;fill:#000000" transform="rotate(-90 1973.69,2362.46)" text-anchor="end">---------</text>
	<text x="2071.21" y="2362.46" style="font-family:'Helvetica';font-size:48.02px;fill:#000000" transform="rotate(-90 2071.21,2362.46)" text-anchor="end">CANCER</text>
	<text x="2168.72" y="2362.46" style="font-family:'Helvetica';font-size:48.02px;fill:#000000" transform="rotate(-90 2168.72,2362.46)" text-anchor="end">CVD</text>
	<text x="2266.36" y="2362.46" style="font-family:'Helvetica';font-size:48.02px;fill:#000000" transform="rotate(-90 2266.36,2362.46)" text-anchor="end">DEM_ALZ</text>
	<text x="2363.88" y="2362.46" style="font-family:'Helvetica';font-size:48.02px;fill:#000000" transform="rotate(-90 2363.88,2362.46)" text-anchor="end">RESPIR</text>
	<text x="2461.39" y="2362.46" style="font-family:'Helvetica';font-size:48.02px;fill:#000000" transform="rotate(-90 2461.39,2362.46)" text-anchor="end">OTHER</text>
	<line x1="2953.79" y1="2330.53" x2="3824.49" y2="2330.53" style="stroke:#000000;stroke-width:4.61"/>
	<text x="3113.31" y="2362.46" style="font-family:'Helvetica';font-size:48.02px;fill:#000000" transform="rotate(-90 3113.31,2362.46)" text-anchor="end">COVID</text>
	<text x="3210.82" y="2362.46" style="font-family:'Helvetica';font-size:48.02px;fill:#000000" transform="rotate(-90 3210.82,2362.46)" text-anchor="end">---------</text>
	<text x="3308.46" y="2362.46" style="font-family:'Helvetica';font-size:48.02px;fill:#000000" transform="rotate(-90 3308.46,2362.46)" text-anchor="end">CANCER</text>
	<text x="3405.98" y="2362.46" style="font-family:'Helvetica';font-size:48.02px;fill:#000000" transform="rotate(-90 3405.98,2362.46)" text-anchor="end">CVD</text>
	<text x="3503.49" y="2362.46" style="font-family:'Helvetica';font-size:48.02px;fill:#000000" transform="rotate(-90 3503.49,2362.46)" text-anchor="end">DEM_ALZ</text>
	<text x="3601.13" y="2362.46" style="font-family:'Helvetica';font-size:48.02px;fill:#000000" transform="rotate(-90 3601.13,2362.46)" text-anchor="end">RESPIR</text>
	<text x="3698.65" y="2362.46" style="font-family:'Helvetica';font-size:48.02px;fill:#000000" transform="rotate(-90 3698.65,2362.46)" text-anchor="end">OTHER</text>
	<rect x="479.28" y="135.39" width="870.83" height="115.59" style="fill:#D9E6EB"/>
	<rect x="481.59" y="137.69" width="866.22" height="110.98" style="fill:none;stroke:#D9E6EB;stroke-width:4.61"/>
	<text x="914.76" y="210.78" style="font-family:'Helvetica';font-size:87.99px;fill:#000000" text-anchor="middle">18-&lt;40</text>
	<rect x="1716.54" y="135.39" width="870.83" height="115.59" style="fill:#D9E6EB"/>
	<rect x="1718.84" y="137.69" width="866.22" height="110.98" style="fill:none;stroke:#D9E6EB;stroke-width:4.61"/>
	<text x="2151.89" y="210.78" style="font-family:'Helvetica';font-size:87.99px;fill:#000000" text-anchor="middle">40-&lt;50</text>
	<rect x="2953.79" y="135.39" width="870.70" height="115.59" style="fill:#D9E6EB"/>
	<rect x="2956.09" y="137.69" width="866.10" height="110.98" style="fill:none;stroke:#D9E6EB;stroke-width:4.61"/>
	<text x="3389.14" y="210.78" style="font-family:'Helvetica';font-size:87.99px;fill:#000000" text-anchor="middle">50-&lt;60</text>
	<rect x="479.28" y="1417.35" width="870.83" height="115.59" style="fill:#D9E6EB"/>
	<rect x="481.59" y="1419.66" width="866.22" height="110.98" style="fill:none;stroke:#D9E6EB;stroke-width:4.61"/>
	<text x="914.76" y="1492.62" style="font-family:'Helvetica';font-size:87.99px;fill:#000000" text-anchor="middle">60-&lt;70</text>
	<rect x="1716.54" y="1417.35" width="870.83" height="115.59" style="fill:#D9E6EB"/>
	<rect x="1718.84" y="1419.66" width="866.22" height="110.98" style="fill:none;stroke:#D9E6EB;stroke-width:4.61"/>
	<text x="2151.89" y="1492.62" style="font-family:'Helvetica';font-size:87.99px;fill:#000000" text-anchor="middle">70-&lt;80</text>
	<rect x="2953.79" y="1417.35" width="870.70" height="115.59" style="fill:#D9E6EB"/>
	<rect x="2956.09" y="1419.66" width="866.10" height="110.98" style="fill:none;stroke:#D9E6EB;stroke-width:4.61"/>
	<text x="3389.14" y="1492.62" style="font-family:'Helvetica';font-size:87.99px;fill:#000000" text-anchor="middle">80+</text>
	<text x="118.06" y="2737.89" style="font-family:'Helvetica';font-size:79.94px;fill:#000000">Graphs by agegroup</text>
</svg>
