<?xml version="1.0" encoding="UTF-8" standalone="no"?>
<!-- This is a Stata 16.1 generated SVG file (http://www.stata.com) -->

<svg version="1.1" width="5.50in" height="4.00in" viewBox="0 0 3960 2880" xmlns="http://www.w3.org/2000/svg" xmlns:xlink="http://www.w3.org/1999/xlink">
	<desc>Stata Graph - Graph</desc>
	<rect x="0" y="0" width="3960" height="2880" style="fill:#EAF2F3;stroke:none"/>
	<rect x="0.00" y="0.00" width="3959.88" height="2880.00" style="fill:#EAF2F3"/>
	<rect x="2.88" y="2.88" width="3954.12" height="2874.24" style="fill:none;stroke:#EAF2F3;stroke-width:5.76"/>
	<rect x="474.83" y="250.97" width="874.42" height="799.82" style="fill:#FFFFFF"/>
	<rect x="477.13" y="253.28" width="869.81" height="795.21" style="fill:none;stroke:#FFFFFF;stroke-width:4.61"/>
	<line x1="474.83" y1="1050.79" x2="1349.25" y2="1050.79" style="stroke:#EAF2F3;stroke-width:6.91"/>
	<line x1="474.83" y1="907.61" x2="1349.25" y2="907.61" style="stroke:#EAF2F3;stroke-width:6.91"/>
	<line x1="474.83" y1="764.43" x2="1349.25" y2="764.43" style="stroke:#EAF2F3;stroke-width:6.91"/>
	<line x1="474.83" y1="621.24" x2="1349.25" y2="621.24" style="stroke:#EAF2F3;stroke-width:6.91"/>
	<line x1="474.83" y1="478.06" x2="1349.25" y2="478.06" style="stroke:#EAF2F3;stroke-width:6.91"/>
	<line x1="474.83" y1="335.00" x2="1349.25" y2="335.00" style="stroke:#EAF2F3;stroke-width:6.91"/>
	<rect x="1712.45" y="250.97" width="874.42" height="799.82" style="fill:#FFFFFF"/>
	<rect x="1714.76" y="253.28" width="869.81" height="795.21" style="fill:none;stroke:#FFFFFF;stroke-width:4.61"/>
	<line x1="1712.45" y1="1050.79" x2="2586.87" y2="1050.79" style="stroke:#EAF2F3;stroke-width:6.91"/>
	<line x1="1712.45" y1="811.08" x2="2586.87" y2="811.08" style="stroke:#EAF2F3;stroke-width:6.91"/>
	<line x1="1712.45" y1="571.37" x2="2586.87" y2="571.37" style="stroke:#EAF2F3;stroke-width:6.91"/>
	<line x1="1712.45" y1="331.66" x2="2586.87" y2="331.66" style="stroke:#EAF2F3;stroke-width:6.91"/>
	<rect x="2950.20" y="250.97" width="874.29" height="799.82" style="fill:#FFFFFF"/>
	<rect x="2952.50" y="253.28" width="869.69" height="795.21" style="fill:none;stroke:#FFFFFF;stroke-width:4.61"/>
	<line x1="2950.20" y1="1050.79" x2="3824.49" y2="1050.79" style="stroke:#EAF2F3;stroke-width:6.91"/>
	<line x1="2950.20" y1="875.06" x2="3824.49" y2="875.06" style="stroke:#EAF2F3;stroke-width:6.91"/>
	<line x1="2950.20" y1="699.33" x2="3824.49" y2="699.33" style="stroke:#EAF2F3;stroke-width:6.91"/>
	<line x1="2950.20" y1="523.60" x2="3824.49" y2="523.60" style="stroke:#EAF2F3;stroke-width:6.91"/>
	<line x1="2950.20" y1="347.87" x2="3824.49" y2="347.87" style="stroke:#EAF2F3;stroke-width:6.91"/>
	<rect x="474.83" y="1532.94" width="874.42" height="799.70" style="fill:#FFFFFF"/>
	<rect x="477.13" y="1535.24" width="869.81" height="795.09" style="fill:none;stroke:#FFFFFF;stroke-width:4.61"/>
	<line x1="474.83" y1="2332.64" x2="1349.25" y2="2332.64" style="stroke:#EAF2F3;stroke-width:6.91"/>
	<line x1="474.83" y1="2188.83" x2="1349.25" y2="2188.83" style="stroke:#EAF2F3;stroke-width:6.91"/>
	<line x1="474.83" y1="2045.03" x2="1349.25" y2="2045.03" style="stroke:#EAF2F3;stroke-width:6.91"/>
	<line x1="474.83" y1="1901.23" x2="1349.25" y2="1901.23" style="stroke:#EAF2F3;stroke-width:6.91"/>
	<line x1="474.83" y1="1757.43" x2="1349.25" y2="1757.43" style="stroke:#EAF2F3;stroke-width:6.91"/>
	<line x1="474.83" y1="1613.63" x2="1349.25" y2="1613.63" style="stroke:#EAF2F3;stroke-width:6.91"/>
	<rect x="1712.45" y="1532.94" width="874.42" height="799.70" style="fill:#FFFFFF"/>
	<rect x="1714.76" y="1535.24" width="869.81" height="795.09" style="fill:none;stroke:#FFFFFF;stroke-width:4.61"/>
	<line x1="1712.45" y1="2332.64" x2="2586.87" y2="2332.64" style="stroke:#EAF2F3;stroke-width:6.91"/>
	<line x1="1712.45" y1="2194.53" x2="2586.87" y2="2194.53" style="stroke:#EAF2F3;stroke-width:6.91"/>
	<line x1="1712.45" y1="2056.42" x2="2586.87" y2="2056.42" style="stroke:#EAF2F3;stroke-width:6.91"/>
	<line x1="1712.45" y1="1918.31" x2="2586.87" y2="1918.31" style="stroke:#EAF2F3;stroke-width:6.91"/>
	<line x1="1712.45" y1="1780.20" x2="2586.87" y2="1780.20" style="stroke:#EAF2F3;stroke-width:6.91"/>
	<line x1="1712.45" y1="1642.09" x2="2586.87" y2="1642.09" style="stroke:#EAF2F3;stroke-width:6.91"/>
	<rect x="2950.20" y="1532.94" width="874.29" height="799.70" style="fill:#FFFFFF"/>
	<rect x="2952.50" y="1535.24" width="869.69" height="795.09" style="fill:none;stroke:#FFFFFF;stroke-width:4.61"/>
	<line x1="2950.20" y1="2332.64" x2="3824.49" y2="2332.64" style="stroke:#EAF2F3;stroke-width:6.91"/>
	<line x1="2950.20" y1="2093.05" x2="3824.49" y2="2093.05" style="stroke:#EAF2F3;stroke-width:6.91"/>
	<line x1="2950.20" y1="1853.34" x2="3824.49" y2="1853.34" style="stroke:#EAF2F3;stroke-width:6.91"/>
	<line x1="2950.20" y1="1613.63" x2="3824.49" y2="1613.63" style="stroke:#EAF2F3;stroke-width:6.91"/>
	<rect x="573.33" y="986.69" width="89.10" height="64.10" style="fill:#000000"/>
	<rect x="575.64" y="988.99" width="84.49" height="59.50" style="fill:none;stroke:#000000;stroke-width:4.61"/>
	<rect x="769.48" y="709.23" width="89.10" height="341.56" style="fill:#707070"/>
	<rect x="771.78" y="711.54" width="84.49" height="336.95" style="fill:none;stroke:#707070;stroke-width:4.61"/>
	<rect x="867.49" y="880.14" width="89.10" height="170.66" style="fill:#707070"/>
	<rect x="869.79" y="882.44" width="84.49" height="166.05" style="fill:none;stroke:#707070;stroke-width:4.61"/>
	<rect x="965.50" y="1050.79" width="89.22" height="0.00" style="fill:#707070"/>
	<rect x="967.80" y="1048.49" width="84.62" height="4.61" style="fill:none;stroke:#707070;stroke-width:4.61"/>
	<rect x="1063.63" y="1010.08" width="89.10" height="40.72" style="fill:#707070"/>
	<rect x="1065.94" y="1012.38" width="84.49" height="36.11" style="fill:none;stroke:#707070;stroke-width:4.61"/>
	<rect x="1161.64" y="331.66" width="89.10" height="719.13" style="fill:#707070"/>
	<rect x="1163.95" y="333.96" width="84.49" height="714.53" style="fill:none;stroke:#707070;stroke-width:4.61"/>
	<rect x="1810.96" y="921.72" width="89.10" height="129.08" style="fill:#000000"/>
	<rect x="1813.26" y="924.02" width="84.49" height="124.47" style="fill:none;stroke:#000000;stroke-width:4.61"/>
	<rect x="2007.10" y="412.10" width="89.10" height="638.69" style="fill:#707070"/>
	<rect x="2009.41" y="414.40" width="84.49" height="634.09" style="fill:none;stroke:#707070;stroke-width:4.61"/>
	<rect x="2105.11" y="663.82" width="89.10" height="386.98" style="fill:#707070"/>
	<rect x="2107.42" y="666.12" width="84.49" height="382.37" style="fill:none;stroke:#707070;stroke-width:4.61"/>
	<rect x="2203.12" y="1048.81" width="89.22" height="1.98" style="fill:#707070"/>
	<rect x="2205.43" y="1048.49" width="84.62" height="2.63" style="fill:none;stroke:#707070;stroke-width:4.61"/>
	<rect x="2301.26" y="949.93" width="89.10" height="100.86" style="fill:#707070"/>
	<rect x="2303.56" y="952.24" width="84.49" height="96.25" style="fill:none;stroke:#707070;stroke-width:4.61"/>
	<rect x="2399.26" y="388.09" width="89.10" height="662.70" style="fill:#707070"/>
	<rect x="2401.57" y="390.40" width="84.49" height="658.09" style="fill:none;stroke:#707070;stroke-width:4.61"/>
	<rect x="3048.58" y="904.27" width="89.22" height="146.52" style="fill:#000000"/>
	<rect x="3050.89" y="906.57" width="84.62" height="141.92" style="fill:none;stroke:#000000;stroke-width:4.61"/>
	<rect x="3244.72" y="331.66" width="89.10" height="719.13" style="fill:#707070"/>
	<rect x="3247.03" y="333.96" width="84.49" height="714.53" style="fill:none;stroke:#707070;stroke-width:4.61"/>
	<rect x="3342.74" y="665.67" width="89.22" height="385.12" style="fill:#707070"/>
	<rect x="3345.04" y="667.98" width="84.62" height="380.51" style="fill:none;stroke:#707070;stroke-width:4.61"/>
	<rect x="3440.87" y="1041.39" width="89.10" height="9.41" style="fill:#707070"/>
	<rect x="3443.17" y="1043.69" width="84.49" height="4.80" style="fill:none;stroke:#707070;stroke-width:4.61"/>
	<rect x="3538.88" y="939.29" width="89.10" height="111.50" style="fill:#707070"/>
	<rect x="3541.18" y="941.60" width="84.49" height="106.89" style="fill:none;stroke:#707070;stroke-width:4.61"/>
	<rect x="3636.89" y="601.82" width="89.22" height="448.98" style="fill:#707070"/>
	<rect x="3639.19" y="604.12" width="84.62" height="444.37" style="fill:none;stroke:#707070;stroke-width:4.61"/>
	<rect x="573.33" y="2197.00" width="89.10" height="135.63" style="fill:#000000"/>
	<rect x="575.64" y="2199.31" width="84.49" height="131.03" style="fill:none;stroke:#000000;stroke-width:4.61"/>
	<rect x="769.48" y="1665.97" width="89.10" height="666.66" style="fill:#707070"/>
	<rect x="771.78" y="1668.28" width="84.49" height="662.05" style="fill:none;stroke:#707070;stroke-width:4.61"/>
	<rect x="867.49" y="2005.06" width="89.10" height="327.58" style="fill:#707070"/>
	<rect x="869.79" y="2007.36" width="84.49" height="322.97" style="fill:none;stroke:#707070;stroke-width:4.61"/>
	<rect x="965.50" y="2302.19" width="89.22" height="30.44" style="fill:#707070"/>
	<rect x="967.80" y="2304.50" width="84.62" height="25.84" style="fill:none;stroke:#707070;stroke-width:4.61"/>
	<rect x="1063.63" y="2194.53" width="89.10" height="138.11" style="fill:#707070"/>
	<rect x="1065.94" y="2196.83" width="84.49" height="133.50" style="fill:none;stroke:#707070;stroke-width:4.61"/>
	<rect x="1161.64" y="2061.12" width="89.10" height="271.52" style="fill:#707070"/>
	<rect x="1163.95" y="2063.42" width="84.49" height="266.91" style="fill:none;stroke:#707070;stroke-width:4.61"/>
	<rect x="1810.96" y="2138.59" width="89.10" height="194.05" style="fill:#000000"/>
	<rect x="1813.26" y="2140.89" width="84.49" height="189.44" style="fill:none;stroke:#000000;stroke-width:4.61"/>
	<rect x="2007.10" y="1613.63" width="89.10" height="719.01" style="fill:#707070"/>
	<rect x="2009.41" y="1615.93" width="84.49" height="714.40" style="fill:none;stroke:#707070;stroke-width:4.61"/>
	<rect x="2105.11" y="1912.00" width="89.10" height="420.64" style="fill:#707070"/>
	<rect x="2107.42" y="1914.30" width="84.49" height="416.03" style="fill:none;stroke:#707070;stroke-width:4.61"/>
	<rect x="2203.12" y="2181.04" width="89.22" height="151.60" style="fill:#707070"/>
	<rect x="2205.43" y="2183.34" width="84.62" height="146.99" style="fill:none;stroke:#707070;stroke-width:4.61"/>
	<rect x="2301.26" y="2113.22" width="89.10" height="219.42" style="fill:#707070"/>
	<rect x="2303.56" y="2115.52" width="84.49" height="214.81" style="fill:none;stroke:#707070;stroke-width:4.61"/>
	<rect x="2399.26" y="2016.94" width="89.10" height="315.70" style="fill:#707070"/>
	<rect x="2401.57" y="2019.24" width="84.49" height="311.09" style="fill:none;stroke:#707070;stroke-width:4.61"/>
	<rect x="3048.58" y="2011.62" width="89.22" height="321.02" style="fill:#000000"/>
	<rect x="3050.89" y="2013.92" width="84.62" height="316.41" style="fill:none;stroke:#000000;stroke-width:4.61"/>
	<rect x="3244.72" y="1809.65" width="89.10" height="522.98" style="fill:#707070"/>
	<rect x="3247.03" y="1811.96" width="84.49" height="518.38" style="fill:none;stroke:#707070;stroke-width:4.61"/>
	<rect x="3342.74" y="1672.53" width="89.22" height="660.10" style="fill:#707070"/>
	<rect x="3345.04" y="1674.84" width="84.62" height="655.50" style="fill:none;stroke:#707070;stroke-width:4.61"/>
	<rect x="3440.87" y="1686.52" width="89.10" height="646.12" style="fill:#707070"/>
	<rect x="3443.17" y="1688.82" width="84.49" height="641.51" style="fill:none;stroke:#707070;stroke-width:4.61"/>
	<rect x="3538.88" y="2017.44" width="89.10" height="315.20" style="fill:#707070"/>
	<rect x="3541.18" y="2019.74" width="84.49" height="310.59" style="fill:none;stroke:#707070;stroke-width:4.61"/>
	<rect x="3636.89" y="1740.97" width="89.22" height="591.67" style="fill:#707070"/>
	<rect x="3639.19" y="1743.27" width="84.62" height="587.06" style="fill:none;stroke:#707070;stroke-width:4.61"/>
	<line x1="474.83" y1="1050.79" x2="474.83" y2="250.97" style="stroke:#000000;stroke-width:4.61"/>
	<line x1="474.83" y1="1050.79" x2="442.90" y2="1050.79" style="stroke:#000000;stroke-width:4.61"/>
	<text x="426.81" y="1078.81" style="font-family:'Helvetica';font-size:79.94px;fill:#000000" text-anchor="end">0</text>
	<line x1="474.83" y1="907.61" x2="442.90" y2="907.61" style="stroke:#000000;stroke-width:4.61"/>
	<text x="426.81" y="935.62" style="font-family:'Helvetica';font-size:79.94px;fill:#000000" text-anchor="end">.00002</text>
	<line x1="474.83" y1="764.43" x2="442.90" y2="764.43" style="stroke:#000000;stroke-width:4.61"/>
	<text x="426.81" y="792.44" style="font-family:'Helvetica';font-size:79.94px;fill:#000000" text-anchor="end">.00004</text>
	<line x1="474.83" y1="621.24" x2="442.90" y2="621.24" style="stroke:#000000;stroke-width:4.61"/>
	<text x="426.81" y="649.26" style="font-family:'Helvetica';font-size:79.94px;fill:#000000" text-anchor="end">.00006</text>
	<line x1="474.83" y1="478.06" x2="442.90" y2="478.06" style="stroke:#000000;stroke-width:4.61"/>
	<text x="426.81" y="506.07" style="font-family:'Helvetica';font-size:79.94px;fill:#000000" text-anchor="end">.00008</text>
	<line x1="474.83" y1="335.00" x2="442.90" y2="335.00" style="stroke:#000000;stroke-width:4.61"/>
	<text x="426.81" y="363.01" style="font-family:'Helvetica';font-size:79.94px;fill:#000000" text-anchor="end">.0001</text>
	<line x1="1712.45" y1="1050.79" x2="1712.45" y2="250.97" style="stroke:#000000;stroke-width:4.61"/>
	<line x1="1712.45" y1="1050.79" x2="1680.53" y2="1050.79" style="stroke:#000000;stroke-width:4.61"/>
	<text x="1664.56" y="1078.81" style="font-family:'Helvetica';font-size:79.94px;fill:#000000" text-anchor="end">0</text>
	<line x1="1712.45" y1="811.08" x2="1680.53" y2="811.08" style="stroke:#000000;stroke-width:4.61"/>
	<text x="1664.56" y="839.09" style="font-family:'Helvetica';font-size:79.94px;fill:#000000" text-anchor="end">.0001</text>
	<line x1="1712.45" y1="571.37" x2="1680.53" y2="571.37" style="stroke:#000000;stroke-width:4.61"/>
	<text x="1664.56" y="599.38" style="font-family:'Helvetica';font-size:79.94px;fill:#000000" text-anchor="end">.0002</text>
	<line x1="1712.45" y1="331.66" x2="1680.53" y2="331.66" style="stroke:#000000;stroke-width:4.61"/>
	<text x="1664.56" y="359.67" style="font-family:'Helvetica';font-size:79.94px;fill:#000000" text-anchor="end">.0003</text>
	<line x1="2950.20" y1="1050.79" x2="2950.20" y2="250.97" style="stroke:#000000;stroke-width:4.61"/>
	<line x1="2950.20" y1="1050.79" x2="2918.15" y2="1050.79" style="stroke:#000000;stroke-width:4.61"/>
	<text x="2902.18" y="1078.81" style="font-family:'Helvetica';font-size:79.94px;fill:#000000" text-anchor="end">0</text>
	<line x1="2950.20" y1="875.06" x2="2918.15" y2="875.06" style="stroke:#000000;stroke-width:4.61"/>
	<text x="2902.18" y="903.08" style="font-family:'Helvetica';font-size:79.94px;fill:#000000" text-anchor="end">.0002</text>
	<line x1="2950.20" y1="699.33" x2="2918.15" y2="699.33" style="stroke:#000000;stroke-width:4.61"/>
	<text x="2902.18" y="727.34" style="font-family:'Helvetica';font-size:79.94px;fill:#000000" text-anchor="end">.0004</text>
	<line x1="2950.20" y1="523.60" x2="2918.15" y2="523.60" style="stroke:#000000;stroke-width:4.61"/>
	<text x="2902.18" y="551.61" style="font-family:'Helvetica';font-size:79.94px;fill:#000000" text-anchor="end">.0006</text>
	<line x1="2950.20" y1="347.87" x2="2918.15" y2="347.87" style="stroke:#000000;stroke-width:4.61"/>
	<text x="2902.18" y="375.88" style="font-family:'Helvetica';font-size:79.94px;fill:#000000" text-anchor="end">.0008</text>
	<line x1="474.83" y1="2332.64" x2="474.83" y2="1532.94" style="stroke:#000000;stroke-width:4.61"/>
	<line x1="474.83" y1="2332.64" x2="442.90" y2="2332.64" style="stroke:#000000;stroke-width:4.61"/>
	<text x="426.81" y="2360.65" style="font-family:'Helvetica';font-size:79.94px;fill:#000000" text-anchor="end">0</text>
	<line x1="474.83" y1="2188.83" x2="442.90" y2="2188.83" style="stroke:#000000;stroke-width:4.61"/>
	<text x="426.81" y="2216.85" style="font-family:'Helvetica';font-size:79.94px;fill:#000000" text-anchor="end">.0005</text>
	<line x1="474.83" y1="2045.03" x2="442.90" y2="2045.03" style="stroke:#000000;stroke-width:4.61"/>
	<text x="426.81" y="2073.04" style="font-family:'Helvetica';font-size:79.94px;fill:#000000" text-anchor="end">.001</text>
	<line x1="474.83" y1="1901.23" x2="442.90" y2="1901.23" style="stroke:#000000;stroke-width:4.61"/>
	<text x="426.81" y="1929.24" style="font-family:'Helvetica';font-size:79.94px;fill:#000000" text-anchor="end">.0015</text>
	<line x1="474.83" y1="1757.43" x2="442.90" y2="1757.43" style="stroke:#000000;stroke-width:4.61"/>
	<text x="426.81" y="1785.44" style="font-family:'Helvetica';font-size:79.94px;fill:#000000" text-anchor="end">.002</text>
	<line x1="474.83" y1="1613.63" x2="442.90" y2="1613.63" style="stroke:#000000;stroke-width:4.61"/>
	<text x="426.81" y="1641.64" style="font-family:'Helvetica';font-size:79.94px;fill:#000000" text-anchor="end">.0025</text>
	<line x1="1712.45" y1="2332.64" x2="1712.45" y2="1532.94" style="stroke:#000000;stroke-width:4.61"/>
	<line x1="1712.45" y1="2332.64" x2="1680.53" y2="2332.64" style="stroke:#000000;stroke-width:4.61"/>
	<text x="1664.56" y="2360.65" style="font-family:'Helvetica';font-size:79.94px;fill:#000000" text-anchor="end">0</text>
	<line x1="1712.45" y1="2194.53" x2="1680.53" y2="2194.53" style="stroke:#000000;stroke-width:4.61"/>
	<text x="1664.56" y="2222.54" style="font-family:'Helvetica';font-size:79.94px;fill:#000000" text-anchor="end">.001</text>
	<line x1="1712.45" y1="2056.42" x2="1680.53" y2="2056.42" style="stroke:#000000;stroke-width:4.61"/>
	<text x="1664.56" y="2084.43" style="font-family:'Helvetica';font-size:79.94px;fill:#000000" text-anchor="end">.002</text>
	<line x1="1712.45" y1="1918.31" x2="1680.53" y2="1918.31" style="stroke:#000000;stroke-width:4.61"/>
	<text x="1664.56" y="1946.32" style="font-family:'Helvetica';font-size:79.94px;fill:#000000" text-anchor="end">.003</text>
	<line x1="1712.45" y1="1780.20" x2="1680.53" y2="1780.20" style="stroke:#000000;stroke-width:4.61"/>
	<text x="1664.56" y="1808.21" style="font-family:'Helvetica';font-size:79.94px;fill:#000000" text-anchor="end">.004</text>
	<line x1="1712.45" y1="1642.09" x2="1680.53" y2="1642.09" style="stroke:#000000;stroke-width:4.61"/>
	<text x="1664.56" y="1670.10" style="font-family:'Helvetica';font-size:79.94px;fill:#000000" text-anchor="end">.005</text>
	<line x1="2950.20" y1="2332.64" x2="2950.20" y2="1532.94" style="stroke:#000000;stroke-width:4.61"/>
	<line x1="2950.20" y1="2332.64" x2="2918.15" y2="2332.64" style="stroke:#000000;stroke-width:4.61"/>
	<text x="2902.18" y="2360.65" style="font-family:'Helvetica';font-size:79.94px;fill:#000000" text-anchor="end">0</text>
	<line x1="2950.20" y1="2093.05" x2="2918.15" y2="2093.05" style="stroke:#000000;stroke-width:4.61"/>
	<text x="2902.18" y="2121.06" style="font-family:'Helvetica';font-size:79.94px;fill:#000000" text-anchor="end">.005</text>
	<line x1="2950.20" y1="1853.34" x2="2918.15" y2="1853.34" style="stroke:#000000;stroke-width:4.61"/>
	<text x="2902.18" y="1881.35" style="font-family:'Helvetica';font-size:79.94px;fill:#000000" text-anchor="end">.01</text>
	<line x1="2950.20" y1="1613.63" x2="2918.15" y2="1613.63" style="stroke:#000000;stroke-width:4.61"/>
	<text x="2902.18" y="1641.64" style="font-family:'Helvetica';font-size:79.94px;fill:#000000" text-anchor="end">.015</text>
	<line x1="474.83" y1="1050.79" x2="1349.25" y2="1050.79" style="stroke:#000000;stroke-width:4.61"/>
	<text x="634.72" y="1082.72" style="font-family:'Helvetica';font-size:48.02px;fill:#000000" transform="rotate(-90 634.72,1082.72)" text-anchor="end">COVID</text>
	<text x="732.73" y="1082.72" style="font-family:'Helvetica';font-size:48.02px;fill:#000000" transform="rotate(-90 732.73,1082.72)" text-anchor="end">---------</text>
	<text x="830.86" y="1082.72" style="font-family:'Helvetica';font-size:48.02px;fill:#000000" transform="rotate(-90 830.86,1082.72)" text-anchor="end">CANCER</text>
	<text x="928.87" y="1082.72" style="font-family:'Helvetica';font-size:48.02px;fill:#000000" transform="rotate(-90 928.87,1082.72)" text-anchor="end">CVD</text>
	<text x="1026.88" y="1082.72" style="font-family:'Helvetica';font-size:48.02px;fill:#000000" transform="rotate(-90 1026.88,1082.72)" text-anchor="end">DEM_ALZ</text>
	<text x="1125.02" y="1082.72" style="font-family:'Helvetica';font-size:48.02px;fill:#000000" transform="rotate(-90 1125.02,1082.72)" text-anchor="end">RESPIR</text>
	<text x="1223.03" y="1082.72" style="font-family:'Helvetica';font-size:48.02px;fill:#000000" transform="rotate(-90 1223.03,1082.72)" text-anchor="end">OTHER</text>
	<line x1="1712.45" y1="1050.79" x2="2586.87" y2="1050.79" style="stroke:#000000;stroke-width:4.61"/>
	<text x="1872.34" y="1082.72" style="font-family:'Helvetica';font-size:48.02px;fill:#000000" transform="rotate(-90 1872.34,1082.72)" text-anchor="end">COVID</text>
	<text x="1970.48" y="1082.72" style="font-family:'Helvetica';font-size:48.02px;fill:#000000" transform="rotate(-90 1970.48,1082.72)" text-anchor="end">---------</text>
	<text x="2068.49" y="1082.72" style="font-family:'Helvetica';font-size:48.02px;fill:#000000" transform="rotate(-90 2068.49,1082.72)" text-anchor="end">CANCER</text>
	<text x="2166.50" y="1082.72" style="font-family:'Helvetica';font-size:48.02px;fill:#000000" transform="rotate(-90 2166.50,1082.72)" text-anchor="end">CVD</text>
	<text x="2264.63" y="1082.72" style="font-family:'Helvetica';font-size:48.02px;fill:#000000" transform="rotate(-90 2264.63,1082.72)" text-anchor="end">DEM_ALZ</text>
	<text x="2362.64" y="1082.72" style="font-family:'Helvetica';font-size:48.02px;fill:#000000" transform="rotate(-90 2362.64,1082.72)" text-anchor="end">RESPIR</text>
	<text x="2460.65" y="1082.72" style="font-family:'Helvetica';font-size:48.02px;fill:#000000" transform="rotate(-90 2460.65,1082.72)" text-anchor="end">OTHER</text>
	<line x1="2950.20" y1="1050.79" x2="3824.49" y2="1050.79" style="stroke:#000000;stroke-width:4.61"/>
	<text x="3109.97" y="1082.72" style="font-family:'Helvetica';font-size:48.02px;fill:#000000" transform="rotate(-90 3109.97,1082.72)" text-anchor="end">COVID</text>
	<text x="3208.10" y="1082.72" style="font-family:'Helvetica';font-size:48.02px;fill:#000000" transform="rotate(-90 3208.10,1082.72)" text-anchor="end">---------</text>
	<text x="3306.11" y="1082.72" style="font-family:'Helvetica';font-size:48.02px;fill:#000000" transform="rotate(-90 3306.11,1082.72)" text-anchor="end">CANCER</text>
	<text x="3404.12" y="1082.72" style="font-family:'Helvetica';font-size:48.02px;fill:#000000" transform="rotate(-90 3404.12,1082.72)" text-anchor="end">CVD</text>
	<text x="3502.25" y="1082.72" style="font-family:'Helvetica';font-size:48.02px;fill:#000000" transform="rotate(-90 3502.25,1082.72)" text-anchor="end">DEM_ALZ</text>
	<text x="3600.26" y="1082.72" style="font-family:'Helvetica';font-size:48.02px;fill:#000000" transform="rotate(-90 3600.26,1082.72)" text-anchor="end">RESPIR</text>
	<text x="3698.27" y="1082.72" style="font-family:'Helvetica';font-size:48.02px;fill:#000000" transform="rotate(-90 3698.27,1082.72)" text-anchor="end">OTHER</text>
	<line x1="474.83" y1="2332.64" x2="1349.25" y2="2332.64" style="stroke:#000000;stroke-width:4.61"/>
	<text x="634.72" y="2364.69" style="font-family:'Helvetica';font-size:48.02px;fill:#000000" transform="rotate(-90 634.72,2364.69)" text-anchor="end">COVID</text>
	<text x="732.73" y="2364.69" style="font-family:'Helvetica';font-size:48.02px;fill:#000000" transform="rotate(-90 732.73,2364.69)" text-anchor="end">---------</text>
	<text x="830.86" y="2364.69" style="font-family:'Helvetica';font-size:48.02px;fill:#000000" transform="rotate(-90 830.86,2364.69)" text-anchor="end">CANCER</text>
	<text x="928.87" y="2364.69" style="font-family:'Helvetica';font-size:48.02px;fill:#000000" transform="rotate(-90 928.87,2364.69)" text-anchor="end">CVD</text>
	<text x="1026.88" y="2364.69" style="font-family:'Helvetica';font-size:48.02px;fill:#000000" transform="rotate(-90 1026.88,2364.69)" text-anchor="end">DEM_ALZ</text>
	<text x="1125.02" y="2364.69" style="font-family:'Helvetica';font-size:48.02px;fill:#000000" transform="rotate(-90 1125.02,2364.69)" text-anchor="end">RESPIR</text>
	<text x="1223.03" y="2364.69" style="font-family:'Helvetica';font-size:48.02px;fill:#000000" transform="rotate(-90 1223.03,2364.69)" text-anchor="end">OTHER</text>
	<line x1="1712.45" y1="2332.64" x2="2586.87" y2="2332.64" style="stroke:#000000;stroke-width:4.61"/>
	<text x="1872.34" y="2364.69" style="font-family:'Helvetica';font-size:48.02px;fill:#000000" transform="rotate(-90 1872.34,2364.69)" text-anchor="end">COVID</text>
	<text x="1970.48" y="2364.69" style="font-family:'Helvetica';font-size:48.02px;fill:#000000" transform="rotate(-90 1970.48,2364.69)" text-anchor="end">---------</text>
	<text x="2068.49" y="2364.69" style="font-family:'Helvetica';font-size:48.02px;fill:#000000" transform="rotate(-90 2068.49,2364.69)" text-anchor="end">CANCER</text>
	<text x="2166.50" y="2364.69" style="font-family:'Helvetica';font-size:48.02px;fill:#000000" transform="rotate(-90 2166.50,2364.69)" text-anchor="end">CVD</text>
	<text x="2264.63" y="2364.69" style="font-family:'Helvetica';font-size:48.02px;fill:#000000" transform="rotate(-90 2264.63,2364.69)" text-anchor="end">DEM_ALZ</text>
	<text x="2362.64" y="2364.69" style="font-family:'Helvetica';font-size:48.02px;fill:#000000" transform="rotate(-90 2362.64,2364.69)" text-anchor="end">RESPIR</text>
	<text x="2460.65" y="2364.69" style="font-family:'Helvetica';font-size:48.02px;fill:#000000" transform="rotate(-90 2460.65,2364.69)" text-anchor="end">OTHER</text>
	<line x1="2950.20" y1="2332.64" x2="3824.49" y2="2332.64" style="stroke:#000000;stroke-width:4.61"/>
	<text x="3109.97" y="2364.69" style="font-family:'Helvetica';font-size:48.02px;fill:#000000" transform="rotate(-90 3109.97,2364.69)" text-anchor="end">COVID</text>
	<text x="3208.10" y="2364.69" style="font-family:'Helvetica';font-size:48.02px;fill:#000000" transform="rotate(-90 3208.10,2364.69)" text-anchor="end">---------</text>
	<text x="3306.11" y="2364.69" style="font-family:'Helvetica';font-size:48.02px;fill:#000000" transform="rotate(-90 3306.11,2364.69)" text-anchor="end">CANCER</text>
	<text x="3404.12" y="2364.69" style="font-family:'Helvetica';font-size:48.02px;fill:#000000" transform="rotate(-90 3404.12,2364.69)" text-anchor="end">CVD</text>
	<text x="3502.25" y="2364.69" style="font-family:'Helvetica';font-size:48.02px;fill:#000000" transform="rotate(-90 3502.25,2364.69)" text-anchor="end">DEM_ALZ</text>
	<text x="3600.26" y="2364.69" style="font-family:'Helvetica';font-size:48.02px;fill:#000000" transform="rotate(-90 3600.26,2364.69)" text-anchor="end">RESPIR</text>
	<text x="3698.27" y="2364.69" style="font-family:'Helvetica';font-size:48.02px;fill:#000000" transform="rotate(-90 3698.27,2364.69)" text-anchor="end">OTHER</text>
	<rect x="474.83" y="135.39" width="874.42" height="115.59" style="fill:#D9E6EB"/>
	<rect x="477.13" y="137.69" width="869.81" height="110.98" style="fill:none;stroke:#D9E6EB;stroke-width:4.61"/>
	<text x="912.04" y="210.78" style="font-family:'Helvetica';font-size:87.99px;fill:#000000" text-anchor="middle">18-&lt;40</text>
	<rect x="1712.45" y="135.39" width="874.42" height="115.59" style="fill:#D9E6EB"/>
	<rect x="1714.76" y="137.69" width="869.81" height="110.98" style="fill:none;stroke:#D9E6EB;stroke-width:4.61"/>
	<text x="2149.66" y="210.78" style="font-family:'Helvetica';font-size:87.99px;fill:#000000" text-anchor="middle">40-&lt;50</text>
	<rect x="2950.20" y="135.39" width="874.29" height="115.59" style="fill:#D9E6EB"/>
	<rect x="2952.50" y="137.69" width="869.69" height="110.98" style="fill:none;stroke:#D9E6EB;stroke-width:4.61"/>
	<text x="3387.28" y="210.78" style="font-family:'Helvetica';font-size:87.99px;fill:#000000" text-anchor="middle">50-&lt;60</text>
	<rect x="474.83" y="1417.35" width="874.42" height="115.59" style="fill:#D9E6EB"/>
	<rect x="477.13" y="1419.66" width="869.81" height="110.98" style="fill:none;stroke:#D9E6EB;stroke-width:4.61"/>
	<text x="912.04" y="1492.62" style="font-family:'Helvetica';font-size:87.99px;fill:#000000" text-anchor="middle">60-&lt;70</text>
	<rect x="1712.45" y="1417.35" width="874.42" height="115.59" style="fill:#D9E6EB"/>
	<rect x="1714.76" y="1419.66" width="869.81" height="110.98" style="fill:none;stroke:#D9E6EB;stroke-width:4.61"/>
	<text x="2149.66" y="1492.62" style="font-family:'Helvetica';font-size:87.99px;fill:#000000" text-anchor="middle">70-&lt;80</text>
	<rect x="2950.20" y="1417.35" width="874.29" height="115.59" style="fill:#D9E6EB"/>
	<rect x="2952.50" y="1419.66" width="869.69" height="110.98" style="fill:none;stroke:#D9E6EB;stroke-width:4.61"/>
	<text x="3387.28" y="1492.62" style="font-family:'Helvetica';font-size:87.99px;fill:#000000" text-anchor="middle">80+</text>
	<text x="118.06" y="2737.89" style="font-family:'Helvetica';font-size:79.94px;fill:#000000">Graphs by agegroup</text>
</svg>
