<?xml version="1.0" encoding="UTF-8" standalone="no"?>
<!-- This is a Stata 16.1 generated SVG file (http://www.stata.com) -->

<svg version="1.1" width="5.50in" height="4.00in" viewBox="0 0 3960 2880" xmlns="http://www.w3.org/2000/svg" xmlns:xlink="http://www.w3.org/1999/xlink">
	<desc>Stata Graph - Graph</desc>
	<rect x="0" y="0" width="3960" height="2880" style="fill:#EAF2F3;stroke:none"/>
	<rect x="0.00" y="0.00" width="3959.88" height="2880.00" style="fill:#EAF2F3"/>
	<rect x="2.88" y="2.88" width="3954.12" height="2874.24" style="fill:none;stroke:#EAF2F3;stroke-width:5.76"/>
	<rect x="152.34" y="258.27" width="1801.55" height="963.42" style="fill:#FFFFFF"/>
	<rect x="154.78" y="260.72" width="1796.66" height="958.53" style="fill:none;stroke:#FFFFFF;stroke-width:4.90"/>
	<line x1="1118.70" y1="1221.70" x2="1118.70" y2="1164.15" style="stroke:#C10534;stroke-width:7.34"/>
	<line x1="1118.70" y1="1135.32" x2="1118.70" y2="1077.77" style="stroke:#C10534;stroke-width:7.34"/>
	<line x1="1118.70" y1="1048.94" x2="1118.70" y2="991.27" style="stroke:#C10534;stroke-width:7.34"/>
	<line x1="1118.70" y1="962.56" x2="1118.70" y2="904.89" style="stroke:#C10534;stroke-width:7.34"/>
	<line x1="1118.70" y1="876.18" x2="1118.70" y2="818.51" style="stroke:#C10534;stroke-width:7.34"/>
	<line x1="1118.70" y1="789.67" x2="1118.70" y2="732.13" style="stroke:#C10534;stroke-width:7.34"/>
	<line x1="1118.70" y1="703.29" x2="1118.70" y2="645.75" style="stroke:#C10534;stroke-width:7.34"/>
	<line x1="1118.70" y1="616.91" x2="1118.70" y2="559.37" style="stroke:#C10534;stroke-width:7.34"/>
	<line x1="1118.70" y1="530.53" x2="1118.70" y2="472.99" style="stroke:#C10534;stroke-width:7.34"/>
	<line x1="1118.70" y1="444.15" x2="1118.70" y2="386.61" style="stroke:#C10534;stroke-width:7.34"/>
	<line x1="1118.70" y1="357.77" x2="1118.70" y2="300.23" style="stroke:#C10534;stroke-width:7.34"/>
	<line x1="1118.70" y1="271.39" x2="1118.70" y2="258.27" style="stroke:#C10534;stroke-width:7.34"/>
	<rect x="2022.94" y="258.27" width="1801.55" height="963.42" style="fill:#FFFFFF"/>
	<rect x="2025.39" y="260.72" width="1796.66" height="958.53" style="fill:none;stroke:#FFFFFF;stroke-width:4.90"/>
	<line x1="2989.43" y1="1221.70" x2="2989.43" y2="1164.15" style="stroke:#C10534;stroke-width:7.34"/>
	<line x1="2989.43" y1="1135.32" x2="2989.43" y2="1077.77" style="stroke:#C10534;stroke-width:7.34"/>
	<line x1="2989.43" y1="1048.94" x2="2989.43" y2="991.27" style="stroke:#C10534;stroke-width:7.34"/>
	<line x1="2989.43" y1="962.56" x2="2989.43" y2="904.89" style="stroke:#C10534;stroke-width:7.34"/>
	<line x1="2989.43" y1="876.18" x2="2989.43" y2="818.51" style="stroke:#C10534;stroke-width:7.34"/>
	<line x1="2989.43" y1="789.67" x2="2989.43" y2="732.13" style="stroke:#C10534;stroke-width:7.34"/>
	<line x1="2989.43" y1="703.29" x2="2989.43" y2="645.75" style="stroke:#C10534;stroke-width:7.34"/>
	<line x1="2989.43" y1="616.91" x2="2989.43" y2="559.37" style="stroke:#C10534;stroke-width:7.34"/>
	<line x1="2989.43" y1="530.53" x2="2989.43" y2="472.99" style="stroke:#C10534;stroke-width:7.34"/>
	<line x1="2989.43" y1="444.15" x2="2989.43" y2="386.61" style="stroke:#C10534;stroke-width:7.34"/>
	<line x1="2989.43" y1="357.77" x2="2989.43" y2="300.23" style="stroke:#C10534;stroke-width:7.34"/>
	<line x1="2989.43" y1="271.39" x2="2989.43" y2="258.27" style="stroke:#C10534;stroke-width:7.34"/>
	<rect x="152.34" y="1413.64" width="1801.55" height="963.42" style="fill:#FFFFFF"/>
	<rect x="154.78" y="1416.09" width="1796.66" height="958.53" style="fill:none;stroke:#FFFFFF;stroke-width:4.90"/>
	<line x1="1118.70" y1="2377.06" x2="1118.70" y2="2319.52" style="stroke:#C10534;stroke-width:7.34"/>
	<line x1="1118.70" y1="2290.68" x2="1118.70" y2="2233.14" style="stroke:#C10534;stroke-width:7.34"/>
	<line x1="1118.70" y1="2204.30" x2="1118.70" y2="2146.76" style="stroke:#C10534;stroke-width:7.34"/>
	<line x1="1118.70" y1="2117.92" x2="1118.70" y2="2060.25" style="stroke:#C10534;stroke-width:7.34"/>
	<line x1="1118.70" y1="2031.54" x2="1118.70" y2="1973.87" style="stroke:#C10534;stroke-width:7.34"/>
	<line x1="1118.70" y1="1945.16" x2="1118.70" y2="1887.49" style="stroke:#C10534;stroke-width:7.34"/>
	<line x1="1118.70" y1="1858.66" x2="1118.70" y2="1801.11" style="stroke:#C10534;stroke-width:7.34"/>
	<line x1="1118.70" y1="1772.28" x2="1118.70" y2="1714.73" style="stroke:#C10534;stroke-width:7.34"/>
	<line x1="1118.70" y1="1685.90" x2="1118.70" y2="1628.35" style="stroke:#C10534;stroke-width:7.34"/>
	<line x1="1118.70" y1="1599.52" x2="1118.70" y2="1541.97" style="stroke:#C10534;stroke-width:7.34"/>
	<line x1="1118.70" y1="1513.14" x2="1118.70" y2="1455.59" style="stroke:#C10534;stroke-width:7.34"/>
	<line x1="1118.70" y1="1426.76" x2="1118.70" y2="1413.64" style="stroke:#C10534;stroke-width:7.34"/>
	<rect x="2022.94" y="1413.64" width="1801.55" height="963.42" style="fill:#FFFFFF"/>
	<rect x="2025.39" y="1416.09" width="1796.66" height="958.53" style="fill:none;stroke:#FFFFFF;stroke-width:4.90"/>
	<line x1="2989.43" y1="2377.06" x2="2989.43" y2="2319.52" style="stroke:#C10534;stroke-width:7.34"/>
	<line x1="2989.43" y1="2290.68" x2="2989.43" y2="2233.14" style="stroke:#C10534;stroke-width:7.34"/>
	<line x1="2989.43" y1="2204.30" x2="2989.43" y2="2146.76" style="stroke:#C10534;stroke-width:7.34"/>
	<line x1="2989.43" y1="2117.92" x2="2989.43" y2="2060.25" style="stroke:#C10534;stroke-width:7.34"/>
	<line x1="2989.43" y1="2031.54" x2="2989.43" y2="1973.87" style="stroke:#C10534;stroke-width:7.34"/>
	<line x1="2989.43" y1="1945.16" x2="2989.43" y2="1887.49" style="stroke:#C10534;stroke-width:7.34"/>
	<line x1="2989.43" y1="1858.66" x2="2989.43" y2="1801.11" style="stroke:#C10534;stroke-width:7.34"/>
	<line x1="2989.43" y1="1772.28" x2="2989.43" y2="1714.73" style="stroke:#C10534;stroke-width:7.34"/>
	<line x1="2989.43" y1="1685.90" x2="2989.43" y2="1628.35" style="stroke:#C10534;stroke-width:7.34"/>
	<line x1="2989.43" y1="1599.52" x2="2989.43" y2="1541.97" style="stroke:#C10534;stroke-width:7.34"/>
	<line x1="2989.43" y1="1513.14" x2="2989.43" y2="1455.59" style="stroke:#C10534;stroke-width:7.34"/>
	<line x1="2989.43" y1="1426.76" x2="2989.43" y2="1413.64" style="stroke:#C10534;stroke-width:7.34"/>
	<circle cx="1259.16" cy="434.38" r="22.36" style="fill:#000000"/>
	<circle cx="1259.16" cy="434.38" r="18.69" style="fill:none;stroke:#000000;stroke-width:7.34"/>
	<line x1="1193.82" y1="434.38" x2="1324.74" y2="434.38" style="stroke:#000000;stroke-width:7.34"/>
	<line x1="1324.74" y1="453.06" x2="1324.74" y2="415.69" stroke-linecap="round" style="stroke:#000000;stroke-width:7.34"/>
	<line x1="1193.82" y1="453.06" x2="1193.82" y2="415.69" stroke-linecap="round" style="stroke:#000000;stroke-width:7.34"/>
	<circle cx="1040.74" cy="556.64" r="22.36" style="fill:#A0A0A0"/>
	<circle cx="1040.74" cy="556.64" r="18.69" style="fill:none;stroke:#A0A0A0;stroke-width:7.34"/>
	<circle cx="1167.58" cy="678.91" r="22.36" style="fill:#A0A0A0"/>
	<circle cx="1167.58" cy="678.91" r="18.69" style="fill:none;stroke:#A0A0A0;stroke-width:7.34"/>
	<circle cx="1041.23" cy="801.18" r="22.36" style="fill:#A0A0A0"/>
	<circle cx="1041.23" cy="801.18" r="18.69" style="fill:none;stroke:#A0A0A0;stroke-width:7.34"/>
	<circle cx="1040.61" cy="923.33" r="22.36" style="fill:#A0A0A0"/>
	<circle cx="1040.61" cy="923.33" r="18.69" style="fill:none;stroke:#A0A0A0;stroke-width:7.34"/>
	<circle cx="1062.52" cy="1045.60" r="22.36" style="fill:#A0A0A0"/>
	<circle cx="1062.52" cy="1045.60" r="18.69" style="fill:none;stroke:#A0A0A0;stroke-width:7.34"/>
	<line x1="982.33" y1="556.64" x2="1099.15" y2="556.64" style="stroke:#A0A0A0;stroke-width:7.34"/>
	<line x1="1099.15" y1="575.33" x2="1099.15" y2="537.96" stroke-linecap="round" style="stroke:#A0A0A0;stroke-width:7.34"/>
	<line x1="982.33" y1="575.33" x2="982.33" y2="537.96" stroke-linecap="round" style="stroke:#A0A0A0;stroke-width:7.34"/>
	<line x1="1111.89" y1="678.79" x2="1223.27" y2="678.79" style="stroke:#A0A0A0;stroke-width:7.34"/>
	<line x1="1223.27" y1="697.48" x2="1223.27" y2="660.10" stroke-linecap="round" style="stroke:#A0A0A0;stroke-width:7.34"/>
	<line x1="1111.89" y1="697.48" x2="1111.89" y2="660.10" stroke-linecap="round" style="stroke:#A0A0A0;stroke-width:7.34"/>
	<line x1="913.03" y1="801.06" x2="1169.56" y2="801.06" style="stroke:#A0A0A0;stroke-width:7.34"/>
	<line x1="1169.56" y1="819.75" x2="1169.56" y2="782.37" stroke-linecap="round" style="stroke:#A0A0A0;stroke-width:7.34"/>
	<line x1="913.03" y1="819.75" x2="913.03" y2="782.37" stroke-linecap="round" style="stroke:#A0A0A0;stroke-width:7.34"/>
	<line x1="944.71" y1="923.33" x2="1136.64" y2="923.33" style="stroke:#A0A0A0;stroke-width:7.34"/>
	<line x1="1136.64" y1="942.01" x2="1136.64" y2="904.64" stroke-linecap="round" style="stroke:#A0A0A0;stroke-width:7.34"/>
	<line x1="944.71" y1="942.01" x2="944.71" y2="904.64" stroke-linecap="round" style="stroke:#A0A0A0;stroke-width:7.34"/>
	<line x1="989.50" y1="1045.60" x2="1135.65" y2="1045.60" style="stroke:#A0A0A0;stroke-width:7.34"/>
	<line x1="1135.65" y1="1064.28" x2="1135.65" y2="1026.91" stroke-linecap="round" style="stroke:#A0A0A0;stroke-width:7.34"/>
	<line x1="989.50" y1="1064.28" x2="989.50" y2="1026.91" stroke-linecap="round" style="stroke:#A0A0A0;stroke-width:7.34"/>
	<text x="297.37" y="458.19" style="font-family:'Helvetica';font-size:67.94px;fill:#000000">COVID-19</text>
	<text x="297.37" y="580.46" style="font-family:'Helvetica';font-size:67.94px;fill:#000000">Cancer</text>
	<text x="297.37" y="702.60" style="font-family:'Helvetica';font-size:67.94px;fill:#000000">CVD</text>
	<text x="297.37" y="824.87" style="font-family:'Helvetica';font-size:67.94px;fill:#000000">Dementia</text>
	<text x="297.37" y="947.14" style="font-family:'Helvetica';font-size:67.94px;fill:#000000">Respiratory</text>
	<text x="297.37" y="1069.41" style="font-family:'Helvetica';font-size:67.94px;fill:#000000">Other</text>
	<text x="241.81" y="335.92" style="font-family:'Helvetica';font-size:67.94px;fill:#000000">Cause of death category</text>
	<text x="1535.98" y="452.25" style="font-family:'Helvetica';font-size:50.98px;fill:#000000">1.59 (1.28-1.97)</text>
	<text x="1535.98" y="574.52" style="font-family:'Helvetica';font-size:50.98px;fill:#000000">0.77 (0.64-0.94)</text>
	<text x="1535.98" y="696.67" style="font-family:'Helvetica';font-size:50.98px;fill:#000000">1.17 (0.98-1.41)</text>
	<text x="1535.98" y="818.94" style="font-family:'Helvetica';font-size:50.98px;fill:#000000">0.78 (0.51-1.18)</text>
	<text x="1535.98" y="941.20" style="font-family:'Helvetica';font-size:50.98px;fill:#000000">0.77 (0.56-1.06)</text>
	<text x="1535.98" y="1063.47" style="font-family:'Helvetica';font-size:50.98px;fill:#000000">0.83 (0.65-1.06)</text>
	<circle cx="3196.34" cy="434.38" r="22.36" style="fill:#000000"/>
	<circle cx="3196.34" cy="434.38" r="18.69" style="fill:none;stroke:#000000;stroke-width:7.34"/>
	<line x1="3171.59" y1="434.38" x2="3221.21" y2="434.38" style="stroke:#000000;stroke-width:7.34"/>
	<line x1="3221.21" y1="453.06" x2="3221.21" y2="415.69" stroke-linecap="round" style="stroke:#000000;stroke-width:7.34"/>
	<line x1="3171.59" y1="453.06" x2="3171.59" y2="415.69" stroke-linecap="round" style="stroke:#000000;stroke-width:7.34"/>
	<circle cx="2823.60" cy="556.64" r="22.36" style="fill:#A0A0A0"/>
	<circle cx="2823.60" cy="556.64" r="18.69" style="fill:none;stroke:#A0A0A0;stroke-width:7.34"/>
	<circle cx="3003.66" cy="678.91" r="22.36" style="fill:#A0A0A0"/>
	<circle cx="3003.66" cy="678.91" r="18.69" style="fill:none;stroke:#A0A0A0;stroke-width:7.34"/>
	<circle cx="2875.83" cy="801.18" r="22.36" style="fill:#A0A0A0"/>
	<circle cx="2875.83" cy="801.18" r="18.69" style="fill:none;stroke:#A0A0A0;stroke-width:7.34"/>
	<circle cx="2932.75" cy="923.33" r="22.36" style="fill:#A0A0A0"/>
	<circle cx="2932.75" cy="923.33" r="18.69" style="fill:none;stroke:#A0A0A0;stroke-width:7.34"/>
	<circle cx="2939.80" cy="1045.60" r="22.36" style="fill:#A0A0A0"/>
	<circle cx="2939.80" cy="1045.60" r="18.69" style="fill:none;stroke:#A0A0A0;stroke-width:7.34"/>
	<line x1="2797.99" y1="556.64" x2="2849.34" y2="556.64" style="stroke:#A0A0A0;stroke-width:7.34"/>
	<line x1="2849.34" y1="575.33" x2="2849.34" y2="537.96" stroke-linecap="round" style="stroke:#A0A0A0;stroke-width:7.34"/>
	<line x1="2797.99" y1="575.33" x2="2797.99" y2="537.96" stroke-linecap="round" style="stroke:#A0A0A0;stroke-width:7.34"/>
	<line x1="2982.62" y1="678.79" x2="3024.70" y2="678.79" style="stroke:#A0A0A0;stroke-width:7.34"/>
	<line x1="3024.70" y1="697.48" x2="3024.70" y2="660.10" stroke-linecap="round" style="stroke:#A0A0A0;stroke-width:7.34"/>
	<line x1="2982.62" y1="697.48" x2="2982.62" y2="660.10" stroke-linecap="round" style="stroke:#A0A0A0;stroke-width:7.34"/>
	<line x1="2836.10" y1="801.06" x2="2915.67" y2="801.06" style="stroke:#A0A0A0;stroke-width:7.34"/>
	<line x1="2915.67" y1="819.75" x2="2915.67" y2="782.37" stroke-linecap="round" style="stroke:#A0A0A0;stroke-width:7.34"/>
	<line x1="2836.10" y1="819.75" x2="2836.10" y2="782.37" stroke-linecap="round" style="stroke:#A0A0A0;stroke-width:7.34"/>
	<line x1="2900.20" y1="923.33" x2="2965.55" y2="923.33" style="stroke:#A0A0A0;stroke-width:7.34"/>
	<line x1="2965.55" y1="942.01" x2="2965.55" y2="904.64" stroke-linecap="round" style="stroke:#A0A0A0;stroke-width:7.34"/>
	<line x1="2900.20" y1="942.01" x2="2900.20" y2="904.64" stroke-linecap="round" style="stroke:#A0A0A0;stroke-width:7.34"/>
	<line x1="2915.55" y1="1045.60" x2="2964.06" y2="1045.60" style="stroke:#A0A0A0;stroke-width:7.34"/>
	<line x1="2964.06" y1="1064.28" x2="2964.06" y2="1026.91" stroke-linecap="round" style="stroke:#A0A0A0;stroke-width:7.34"/>
	<line x1="2915.55" y1="1064.28" x2="2915.55" y2="1026.91" stroke-linecap="round" style="stroke:#A0A0A0;stroke-width:7.34"/>
	<text x="2167.98" y="458.19" style="font-family:'Helvetica';font-size:67.94px;fill:#000000">COVID-19</text>
	<text x="2167.98" y="580.46" style="font-family:'Helvetica';font-size:67.94px;fill:#000000">Cancer</text>
	<text x="2167.98" y="702.60" style="font-family:'Helvetica';font-size:67.94px;fill:#000000">CVD</text>
	<text x="2167.98" y="824.87" style="font-family:'Helvetica';font-size:67.94px;fill:#000000">Dementia</text>
	<text x="2167.98" y="947.14" style="font-family:'Helvetica';font-size:67.94px;fill:#000000">Respiratory</text>
	<text x="2167.98" y="1069.41" style="font-family:'Helvetica';font-size:67.94px;fill:#000000">Other</text>
	<text x="2112.54" y="335.92" style="font-family:'Helvetica';font-size:67.94px;fill:#000000">Cause of death category</text>
	<text x="3406.59" y="452.25" style="font-family:'Helvetica';font-size:50.98px;fill:#000000">1.97 (1.82-2.14)</text>
	<text x="3406.59" y="574.52" style="font-family:'Helvetica';font-size:50.98px;fill:#000000">0.58 (0.53-0.63)</text>
	<text x="3406.59" y="696.67" style="font-family:'Helvetica';font-size:50.98px;fill:#000000">1.05 (0.98-1.12)</text>
	<text x="3406.59" y="818.94" style="font-family:'Helvetica';font-size:50.98px;fill:#000000">0.69 (0.60-0.79)</text>
	<text x="3406.59" y="941.20" style="font-family:'Helvetica';font-size:50.98px;fill:#000000">0.83 (0.75-0.92)</text>
	<text x="3406.59" y="1063.47" style="font-family:'Helvetica';font-size:50.98px;fill:#000000">0.85 (0.78-0.92)</text>
	<circle cx="1300.37" cy="1589.87" r="22.36" style="fill:#000000"/>
	<circle cx="1300.37" cy="1589.87" r="18.69" style="fill:none;stroke:#000000;stroke-width:7.34"/>
	<line x1="1263.73" y1="1589.74" x2="1336.99" y2="1589.74" style="stroke:#000000;stroke-width:7.34"/>
	<line x1="1336.99" y1="1608.43" x2="1336.99" y2="1571.06" stroke-linecap="round" style="stroke:#000000;stroke-width:7.34"/>
	<line x1="1263.73" y1="1608.43" x2="1263.73" y2="1571.06" stroke-linecap="round" style="stroke:#000000;stroke-width:7.34"/>
	<circle cx="1070.93" cy="1712.13" r="22.36" style="fill:#A0A0A0"/>
	<circle cx="1070.93" cy="1712.13" r="18.69" style="fill:none;stroke:#A0A0A0;stroke-width:7.34"/>
	<circle cx="1112.14" cy="1834.28" r="22.36" style="fill:#A0A0A0"/>
	<circle cx="1112.14" cy="1834.28" r="18.69" style="fill:none;stroke:#A0A0A0;stroke-width:7.34"/>
	<circle cx="1176.12" cy="1956.55" r="22.36" style="fill:#A0A0A0"/>
	<circle cx="1176.12" cy="1956.55" r="18.69" style="fill:none;stroke:#A0A0A0;stroke-width:7.34"/>
	<circle cx="983.57" cy="2078.82" r="22.36" style="fill:#A0A0A0"/>
	<circle cx="983.57" cy="2078.82" r="18.69" style="fill:none;stroke:#A0A0A0;stroke-width:7.34"/>
	<circle cx="1084.42" cy="2201.09" r="22.36" style="fill:#A0A0A0"/>
	<circle cx="1084.42" cy="2201.09" r="18.69" style="fill:none;stroke:#A0A0A0;stroke-width:7.34"/>
	<line x1="1037.15" y1="1712.01" x2="1104.72" y2="1712.01" style="stroke:#A0A0A0;stroke-width:7.34"/>
	<line x1="1104.72" y1="1730.70" x2="1104.72" y2="1693.32" stroke-linecap="round" style="stroke:#A0A0A0;stroke-width:7.34"/>
	<line x1="1037.15" y1="1730.70" x2="1037.15" y2="1693.32" stroke-linecap="round" style="stroke:#A0A0A0;stroke-width:7.34"/>
	<line x1="1077.62" y1="1834.28" x2="1146.79" y2="1834.28" style="stroke:#A0A0A0;stroke-width:7.34"/>
	<line x1="1146.79" y1="1852.97" x2="1146.79" y2="1815.59" stroke-linecap="round" style="stroke:#A0A0A0;stroke-width:7.34"/>
	<line x1="1077.62" y1="1852.97" x2="1077.62" y2="1815.59" stroke-linecap="round" style="stroke:#A0A0A0;stroke-width:7.34"/>
	<line x1="1126.62" y1="1956.55" x2="1225.74" y2="1956.55" style="stroke:#A0A0A0;stroke-width:7.34"/>
	<line x1="1225.74" y1="1975.24" x2="1225.74" y2="1937.86" stroke-linecap="round" style="stroke:#A0A0A0;stroke-width:7.34"/>
	<line x1="1126.62" y1="1975.24" x2="1126.62" y2="1937.86" stroke-linecap="round" style="stroke:#A0A0A0;stroke-width:7.34"/>
	<line x1="921.69" y1="2078.82" x2="1045.44" y2="2078.82" style="stroke:#A0A0A0;stroke-width:7.34"/>
	<line x1="1045.44" y1="2097.50" x2="1045.44" y2="2060.13" stroke-linecap="round" style="stroke:#A0A0A0;stroke-width:7.34"/>
	<line x1="921.69" y1="2097.50" x2="921.69" y2="2060.13" stroke-linecap="round" style="stroke:#A0A0A0;stroke-width:7.34"/>
	<line x1="1046.31" y1="2200.96" x2="1122.78" y2="2200.96" style="stroke:#A0A0A0;stroke-width:7.34"/>
	<line x1="1122.78" y1="2219.65" x2="1122.78" y2="2182.28" stroke-linecap="round" style="stroke:#A0A0A0;stroke-width:7.34"/>
	<line x1="1046.31" y1="2219.65" x2="1046.31" y2="2182.28" stroke-linecap="round" style="stroke:#A0A0A0;stroke-width:7.34"/>
	<text x="297.37" y="1613.55" style="font-family:'Helvetica';font-size:67.94px;fill:#000000">COVID-19</text>
	<text x="297.37" y="1735.82" style="font-family:'Helvetica';font-size:67.94px;fill:#000000">Cancer</text>
	<text x="297.37" y="1858.09" style="font-family:'Helvetica';font-size:67.94px;fill:#000000">CVD</text>
	<text x="297.37" y="1980.36" style="font-family:'Helvetica';font-size:67.94px;fill:#000000">Dementia</text>
	<text x="297.37" y="2102.63" style="font-family:'Helvetica';font-size:67.94px;fill:#000000">Respiratory</text>
	<text x="297.37" y="2224.77" style="font-family:'Helvetica';font-size:67.94px;fill:#000000">Other</text>
	<text x="241.81" y="1491.28" style="font-family:'Helvetica';font-size:67.94px;fill:#000000">Cause of death category</text>
	<text x="1535.98" y="1607.62" style="font-family:'Helvetica';font-size:50.98px;fill:#000000">1.82 (1.61-2.05)</text>
	<text x="1535.98" y="1729.89" style="font-family:'Helvetica';font-size:50.98px;fill:#000000">0.85 (0.77-0.96)</text>
	<text x="1535.98" y="1852.16" style="font-family:'Helvetica';font-size:50.98px;fill:#000000">0.98 (0.87-1.10)</text>
	<text x="1535.98" y="1974.42" style="font-family:'Helvetica';font-size:50.98px;fill:#000000">1.21 (1.03-1.42)</text>
	<text x="1535.98" y="2096.69" style="font-family:'Helvetica';font-size:50.98px;fill:#000000">0.64 (0.52-0.79)</text>
	<text x="1535.98" y="2218.84" style="font-family:'Helvetica';font-size:50.98px;fill:#000000">0.89 (0.79-1.01)</text>
	<circle cx="3087.56" cy="1589.87" r="22.36" style="fill:#000000"/>
	<circle cx="3087.56" cy="1589.87" r="18.69" style="fill:none;stroke:#000000;stroke-width:7.34"/>
	<line x1="3036.82" y1="1589.74" x2="3138.30" y2="1589.74" style="stroke:#000000;stroke-width:7.34"/>
	<line x1="3138.30" y1="1608.43" x2="3138.30" y2="1571.06" stroke-linecap="round" style="stroke:#000000;stroke-width:7.34"/>
	<line x1="3036.82" y1="1608.43" x2="3036.82" y2="1571.06" stroke-linecap="round" style="stroke:#000000;stroke-width:7.34"/>
	<circle cx="2865.31" cy="1712.13" r="22.36" style="fill:#A0A0A0"/>
	<circle cx="2865.31" cy="1712.13" r="18.69" style="fill:none;stroke:#A0A0A0;stroke-width:7.34"/>
	<circle cx="2874.09" cy="1834.28" r="22.36" style="fill:#A0A0A0"/>
	<circle cx="2874.09" cy="1834.28" r="18.69" style="fill:none;stroke:#A0A0A0;stroke-width:7.34"/>
	<circle cx="2900.58" cy="1956.55" r="22.36" style="fill:#A0A0A0"/>
	<circle cx="2900.58" cy="1956.55" r="18.69" style="fill:none;stroke:#A0A0A0;stroke-width:7.34"/>
	<circle cx="2834.99" cy="2078.82" r="22.36" style="fill:#A0A0A0"/>
	<circle cx="2834.99" cy="2078.82" r="18.69" style="fill:none;stroke:#A0A0A0;stroke-width:7.34"/>
	<circle cx="2872.36" cy="2201.09" r="22.36" style="fill:#A0A0A0"/>
	<circle cx="2872.36" cy="2201.09" r="18.69" style="fill:none;stroke:#A0A0A0;stroke-width:7.34"/>
	<line x1="2823.85" y1="1712.01" x2="2906.76" y2="1712.01" style="stroke:#A0A0A0;stroke-width:7.34"/>
	<line x1="2906.76" y1="1730.70" x2="2906.76" y2="1693.32" stroke-linecap="round" style="stroke:#A0A0A0;stroke-width:7.34"/>
	<line x1="2823.85" y1="1730.70" x2="2823.85" y2="1693.32" stroke-linecap="round" style="stroke:#A0A0A0;stroke-width:7.34"/>
	<line x1="2826.45" y1="1834.28" x2="2921.74" y2="1834.28" style="stroke:#A0A0A0;stroke-width:7.34"/>
	<line x1="2921.74" y1="1852.97" x2="2921.74" y2="1815.59" stroke-linecap="round" style="stroke:#A0A0A0;stroke-width:7.34"/>
	<line x1="2826.45" y1="1852.97" x2="2826.45" y2="1815.59" stroke-linecap="round" style="stroke:#A0A0A0;stroke-width:7.34"/>
	<line x1="2813.95" y1="1956.55" x2="2987.45" y2="1956.55" style="stroke:#A0A0A0;stroke-width:7.34"/>
	<line x1="2987.45" y1="1975.24" x2="2987.45" y2="1937.86" stroke-linecap="round" style="stroke:#A0A0A0;stroke-width:7.34"/>
	<line x1="2813.95" y1="1975.24" x2="2813.95" y2="1937.86" stroke-linecap="round" style="stroke:#A0A0A0;stroke-width:7.34"/>
	<line x1="2759.25" y1="2078.82" x2="2910.85" y2="2078.82" style="stroke:#A0A0A0;stroke-width:7.34"/>
	<line x1="2910.85" y1="2097.50" x2="2910.85" y2="2060.13" stroke-linecap="round" style="stroke:#A0A0A0;stroke-width:7.34"/>
	<line x1="2759.25" y1="2097.50" x2="2759.25" y2="2060.13" stroke-linecap="round" style="stroke:#A0A0A0;stroke-width:7.34"/>
	<line x1="2820.88" y1="2200.96" x2="2923.97" y2="2200.96" style="stroke:#A0A0A0;stroke-width:7.34"/>
	<line x1="2923.97" y1="2219.65" x2="2923.97" y2="2182.28" stroke-linecap="round" style="stroke:#A0A0A0;stroke-width:7.34"/>
	<line x1="2820.88" y1="2219.65" x2="2820.88" y2="2182.28" stroke-linecap="round" style="stroke:#A0A0A0;stroke-width:7.34"/>
	<text x="2167.98" y="1613.55" style="font-family:'Helvetica';font-size:67.94px;fill:#000000">COVID-19</text>
	<text x="2167.98" y="1735.82" style="font-family:'Helvetica';font-size:67.94px;fill:#000000">Cancer</text>
	<text x="2167.98" y="1858.09" style="font-family:'Helvetica';font-size:67.94px;fill:#000000">CVD</text>
	<text x="2167.98" y="1980.36" style="font-family:'Helvetica';font-size:67.94px;fill:#000000">Dementia</text>
	<text x="2167.98" y="2102.63" style="font-family:'Helvetica';font-size:67.94px;fill:#000000">Respiratory</text>
	<text x="2167.98" y="2224.77" style="font-family:'Helvetica';font-size:67.94px;fill:#000000">Other</text>
	<text x="2112.54" y="1491.28" style="font-family:'Helvetica';font-size:67.94px;fill:#000000">Cause of death category</text>
	<text x="3406.59" y="1607.62" style="font-family:'Helvetica';font-size:50.98px;fill:#000000">1.38 (1.17-1.63)</text>
	<text x="3406.59" y="1729.89" style="font-family:'Helvetica';font-size:50.98px;fill:#000000">0.67 (0.58-0.76)</text>
	<text x="3406.59" y="1852.16" style="font-family:'Helvetica';font-size:50.98px;fill:#000000">0.68 (0.59-0.80)</text>
	<text x="3406.59" y="1974.42" style="font-family:'Helvetica';font-size:50.98px;fill:#000000">0.75 (0.56-0.99)</text>
	<text x="3406.59" y="2096.69" style="font-family:'Helvetica';font-size:50.98px;fill:#000000">0.60 (0.47-0.77)</text>
	<text x="3406.59" y="2218.84" style="font-family:'Helvetica';font-size:50.98px;fill:#000000">0.68 (0.58-0.81)</text>
	<line x1="152.34" y1="1221.70" x2="152.34" y2="258.27" style="stroke:#FFFFFF;stroke-width:4.90"/>
	<line x1="152.34" y1="2377.06" x2="152.34" y2="1413.64" style="stroke:#FFFFFF;stroke-width:4.90"/>
	<line x1="152.34" y1="2377.06" x2="1953.89" y2="2377.06" style="stroke:#000000;stroke-width:4.90"/>
	<line x1="907.58" y1="2377.06" x2="907.58" y2="2411.10" style="stroke:#000000;stroke-width:4.90"/>
	<text x="907.58" y="2487.50" style="font-family:'Helvetica';font-size:85.02px;fill:#000000" text-anchor="middle">.5</text>
	<line x1="1118.70" y1="2377.06" x2="1118.70" y2="2411.10" style="stroke:#000000;stroke-width:4.90"/>
	<text x="1118.70" y="2487.50" style="font-family:'Helvetica';font-size:85.02px;fill:#000000" text-anchor="middle">1</text>
	<line x1="1329.82" y1="2377.06" x2="1329.82" y2="2411.10" style="stroke:#000000;stroke-width:4.90"/>
	<text x="1329.82" y="2487.50" style="font-family:'Helvetica';font-size:85.02px;fill:#000000" text-anchor="middle">2</text>
	<line x1="1541.06" y1="2377.06" x2="1541.06" y2="2411.10" style="stroke:#000000;stroke-width:4.90"/>
	<text x="1541.06" y="2487.50" style="font-family:'Helvetica';font-size:85.02px;fill:#000000" text-anchor="middle">4</text>
	<line x1="2022.94" y1="2377.06" x2="3824.49" y2="2377.06" style="stroke:#000000;stroke-width:4.90"/>
	<line x1="2778.19" y1="2377.06" x2="2778.19" y2="2411.10" style="stroke:#000000;stroke-width:4.90"/>
	<text x="2778.19" y="2487.50" style="font-family:'Helvetica';font-size:85.02px;fill:#000000" text-anchor="middle">.5</text>
	<line x1="2989.43" y1="2377.06" x2="2989.43" y2="2411.10" style="stroke:#000000;stroke-width:4.90"/>
	<text x="2989.43" y="2487.50" style="font-family:'Helvetica';font-size:85.02px;fill:#000000" text-anchor="middle">1</text>
	<line x1="3200.55" y1="2377.06" x2="3200.55" y2="2411.10" style="stroke:#000000;stroke-width:4.90"/>
	<text x="3200.55" y="2487.50" style="font-family:'Helvetica';font-size:85.02px;fill:#000000" text-anchor="middle">2</text>
	<line x1="3411.66" y1="2377.06" x2="3411.66" y2="2411.10" style="stroke:#000000;stroke-width:4.90"/>
	<text x="3411.66" y="2487.50" style="font-family:'Helvetica';font-size:85.02px;fill:#000000" text-anchor="middle">4</text>
	<rect x="152.34" y="135.39" width="1801.55" height="122.89" style="fill:#D9E6EB"/>
	<rect x="154.78" y="137.83" width="1796.66" height="117.99" style="fill:none;stroke:#D9E6EB;stroke-width:4.90"/>
	<text x="1053.11" y="215.42" style="font-family:'Helvetica';font-size:93.56px;fill:#000000" text-anchor="middle">Mixed vs White</text>
	<rect x="2022.94" y="135.39" width="1801.55" height="122.89" style="fill:#D9E6EB"/>
	<rect x="2025.39" y="137.83" width="1796.66" height="117.99" style="fill:none;stroke:#D9E6EB;stroke-width:4.90"/>
	<text x="2923.72" y="215.42" style="font-family:'Helvetica';font-size:93.56px;fill:#000000" text-anchor="middle">Asian or Asian British vs White</text>
	<rect x="152.34" y="1290.75" width="1801.55" height="122.89" style="fill:#D9E6EB"/>
	<rect x="154.78" y="1293.20" width="1796.66" height="117.99" style="fill:none;stroke:#D9E6EB;stroke-width:4.90"/>
	<text x="1053.11" y="1370.91" style="font-family:'Helvetica';font-size:93.56px;fill:#000000" text-anchor="middle">Black vs White</text>
	<rect x="2022.94" y="1290.75" width="1801.55" height="122.89" style="fill:#D9E6EB"/>
	<rect x="2025.39" y="1293.20" width="1796.66" height="117.99" style="fill:none;stroke:#D9E6EB;stroke-width:4.90"/>
	<text x="2923.72" y="1370.91" style="font-family:'Helvetica';font-size:93.56px;fill:#000000" text-anchor="middle">Other vs White</text>
	<text x="1980.00" y="2634.61" style="font-family:'Helvetica';font-size:99.99px;fill:#000000" text-anchor="middle">Odds ratio for cause-specific death and 95% CI</text>
	<text x="118.06" y="2737.89" style="font-family:'Helvetica';font-size:79.94px;fill:#000000">Graphs by ethnicity</text>
</svg>
