<?xml version="1.0" encoding="UTF-8" standalone="no"?>
<!-- This is a Stata 16.1 generated SVG file (http://www.stata.com) -->

<svg version="1.1" width="5.50in" height="4.00in" viewBox="0 0 3960 2880" xmlns="http://www.w3.org/2000/svg" xmlns:xlink="http://www.w3.org/1999/xlink">
	<desc>Stata Graph - Graph</desc>
	<rect x="0" y="0" width="3960" height="2880" style="fill:#EAF2F3;stroke:none"/>
	<rect x="0.00" y="0.00" width="3959.88" height="2880.00" style="fill:#EAF2F3"/>
	<rect x="2.88" y="2.88" width="3954.12" height="2874.24" style="fill:none;stroke:#EAF2F3;stroke-width:5.76"/>
	<rect x="152.34" y="258.27" width="1801.55" height="963.42" style="fill:#FFFFFF"/>
	<rect x="154.78" y="260.72" width="1796.66" height="958.53" style="fill:none;stroke:#FFFFFF;stroke-width:4.90"/>
	<line x1="1118.70" y1="1221.70" x2="1118.70" y2="1164.15" style="stroke:#C10534;stroke-width:7.34"/>
	<line x1="1118.70" y1="1135.32" x2="1118.70" y2="1077.77" style="stroke:#C10534;stroke-width:7.34"/>
	<line x1="1118.70" y1="1048.94" x2="1118.70" y2="991.27" style="stroke:#C10534;stroke-width:7.34"/>
	<line x1="1118.70" y1="962.56" x2="1118.70" y2="904.89" style="stroke:#C10534;stroke-width:7.34"/>
	<line x1="1118.70" y1="876.18" x2="1118.70" y2="818.51" style="stroke:#C10534;stroke-width:7.34"/>
	<line x1="1118.70" y1="789.67" x2="1118.70" y2="732.13" style="stroke:#C10534;stroke-width:7.34"/>
	<line x1="1118.70" y1="703.29" x2="1118.70" y2="645.75" style="stroke:#C10534;stroke-width:7.34"/>
	<line x1="1118.70" y1="616.91" x2="1118.70" y2="559.37" style="stroke:#C10534;stroke-width:7.34"/>
	<line x1="1118.70" y1="530.53" x2="1118.70" y2="472.99" style="stroke:#C10534;stroke-width:7.34"/>
	<line x1="1118.70" y1="444.15" x2="1118.70" y2="386.61" style="stroke:#C10534;stroke-width:7.34"/>
	<line x1="1118.70" y1="357.77" x2="1118.70" y2="300.23" style="stroke:#C10534;stroke-width:7.34"/>
	<line x1="1118.70" y1="271.39" x2="1118.70" y2="258.27" style="stroke:#C10534;stroke-width:7.34"/>
	<rect x="2022.94" y="258.27" width="1801.55" height="963.42" style="fill:#FFFFFF"/>
	<rect x="2025.39" y="260.72" width="1796.66" height="958.53" style="fill:none;stroke:#FFFFFF;stroke-width:4.90"/>
	<line x1="2989.43" y1="1221.70" x2="2989.43" y2="1164.15" style="stroke:#C10534;stroke-width:7.34"/>
	<line x1="2989.43" y1="1135.32" x2="2989.43" y2="1077.77" style="stroke:#C10534;stroke-width:7.34"/>
	<line x1="2989.43" y1="1048.94" x2="2989.43" y2="991.27" style="stroke:#C10534;stroke-width:7.34"/>
	<line x1="2989.43" y1="962.56" x2="2989.43" y2="904.89" style="stroke:#C10534;stroke-width:7.34"/>
	<line x1="2989.43" y1="876.18" x2="2989.43" y2="818.51" style="stroke:#C10534;stroke-width:7.34"/>
	<line x1="2989.43" y1="789.67" x2="2989.43" y2="732.13" style="stroke:#C10534;stroke-width:7.34"/>
	<line x1="2989.43" y1="703.29" x2="2989.43" y2="645.75" style="stroke:#C10534;stroke-width:7.34"/>
	<line x1="2989.43" y1="616.91" x2="2989.43" y2="559.37" style="stroke:#C10534;stroke-width:7.34"/>
	<line x1="2989.43" y1="530.53" x2="2989.43" y2="472.99" style="stroke:#C10534;stroke-width:7.34"/>
	<line x1="2989.43" y1="444.15" x2="2989.43" y2="386.61" style="stroke:#C10534;stroke-width:7.34"/>
	<line x1="2989.43" y1="357.77" x2="2989.43" y2="300.23" style="stroke:#C10534;stroke-width:7.34"/>
	<line x1="2989.43" y1="271.39" x2="2989.43" y2="258.27" style="stroke:#C10534;stroke-width:7.34"/>
	<rect x="152.34" y="1413.64" width="1801.55" height="963.42" style="fill:#FFFFFF"/>
	<rect x="154.78" y="1416.09" width="1796.66" height="958.53" style="fill:none;stroke:#FFFFFF;stroke-width:4.90"/>
	<line x1="1118.70" y1="2377.06" x2="1118.70" y2="2319.52" style="stroke:#C10534;stroke-width:7.34"/>
	<line x1="1118.70" y1="2290.68" x2="1118.70" y2="2233.14" style="stroke:#C10534;stroke-width:7.34"/>
	<line x1="1118.70" y1="2204.30" x2="1118.70" y2="2146.76" style="stroke:#C10534;stroke-width:7.34"/>
	<line x1="1118.70" y1="2117.92" x2="1118.70" y2="2060.25" style="stroke:#C10534;stroke-width:7.34"/>
	<line x1="1118.70" y1="2031.54" x2="1118.70" y2="1973.87" style="stroke:#C10534;stroke-width:7.34"/>
	<line x1="1118.70" y1="1945.16" x2="1118.70" y2="1887.49" style="stroke:#C10534;stroke-width:7.34"/>
	<line x1="1118.70" y1="1858.66" x2="1118.70" y2="1801.11" style="stroke:#C10534;stroke-width:7.34"/>
	<line x1="1118.70" y1="1772.28" x2="1118.70" y2="1714.73" style="stroke:#C10534;stroke-width:7.34"/>
	<line x1="1118.70" y1="1685.90" x2="1118.70" y2="1628.35" style="stroke:#C10534;stroke-width:7.34"/>
	<line x1="1118.70" y1="1599.52" x2="1118.70" y2="1541.97" style="stroke:#C10534;stroke-width:7.34"/>
	<line x1="1118.70" y1="1513.14" x2="1118.70" y2="1455.59" style="stroke:#C10534;stroke-width:7.34"/>
	<line x1="1118.70" y1="1426.76" x2="1118.70" y2="1413.64" style="stroke:#C10534;stroke-width:7.34"/>
	<rect x="2022.94" y="1413.64" width="1801.55" height="963.42" style="fill:#FFFFFF"/>
	<rect x="2025.39" y="1416.09" width="1796.66" height="958.53" style="fill:none;stroke:#FFFFFF;stroke-width:4.90"/>
	<line x1="2989.43" y1="2377.06" x2="2989.43" y2="2319.52" style="stroke:#C10534;stroke-width:7.34"/>
	<line x1="2989.43" y1="2290.68" x2="2989.43" y2="2233.14" style="stroke:#C10534;stroke-width:7.34"/>
	<line x1="2989.43" y1="2204.30" x2="2989.43" y2="2146.76" style="stroke:#C10534;stroke-width:7.34"/>
	<line x1="2989.43" y1="2117.92" x2="2989.43" y2="2060.25" style="stroke:#C10534;stroke-width:7.34"/>
	<line x1="2989.43" y1="2031.54" x2="2989.43" y2="1973.87" style="stroke:#C10534;stroke-width:7.34"/>
	<line x1="2989.43" y1="1945.16" x2="2989.43" y2="1887.49" style="stroke:#C10534;stroke-width:7.34"/>
	<line x1="2989.43" y1="1858.66" x2="2989.43" y2="1801.11" style="stroke:#C10534;stroke-width:7.34"/>
	<line x1="2989.43" y1="1772.28" x2="2989.43" y2="1714.73" style="stroke:#C10534;stroke-width:7.34"/>
	<line x1="2989.43" y1="1685.90" x2="2989.43" y2="1628.35" style="stroke:#C10534;stroke-width:7.34"/>
	<line x1="2989.43" y1="1599.52" x2="2989.43" y2="1541.97" style="stroke:#C10534;stroke-width:7.34"/>
	<line x1="2989.43" y1="1513.14" x2="2989.43" y2="1455.59" style="stroke:#C10534;stroke-width:7.34"/>
	<line x1="2989.43" y1="1426.76" x2="2989.43" y2="1413.64" style="stroke:#C10534;stroke-width:7.34"/>
	<circle cx="1295.91" cy="434.38" r="22.36" style="fill:#000000"/>
	<circle cx="1295.91" cy="434.38" r="18.69" style="fill:none;stroke:#000000;stroke-width:7.34"/>
	<line x1="1225.37" y1="434.38" x2="1366.57" y2="434.38" style="stroke:#000000;stroke-width:7.34"/>
	<line x1="1366.57" y1="453.06" x2="1366.57" y2="415.69" stroke-linecap="round" style="stroke:#000000;stroke-width:7.34"/>
	<line x1="1225.37" y1="453.06" x2="1225.37" y2="415.69" stroke-linecap="round" style="stroke:#000000;stroke-width:7.34"/>
	<circle cx="1035.66" cy="556.64" r="22.36" style="fill:#A0A0A0"/>
	<circle cx="1035.66" cy="556.64" r="18.69" style="fill:none;stroke:#A0A0A0;stroke-width:7.34"/>
	<circle cx="1182.80" cy="678.91" r="22.36" style="fill:#A0A0A0"/>
	<circle cx="1182.80" cy="678.91" r="18.69" style="fill:none;stroke:#A0A0A0;stroke-width:7.34"/>
	<circle cx="968.22" cy="801.18" r="22.36" style="fill:#A0A0A0"/>
	<circle cx="968.22" cy="801.18" r="18.69" style="fill:none;stroke:#A0A0A0;stroke-width:7.34"/>
	<circle cx="1025.64" cy="923.33" r="22.36" style="fill:#A0A0A0"/>
	<circle cx="1025.64" cy="923.33" r="18.69" style="fill:none;stroke:#A0A0A0;stroke-width:7.34"/>
	<circle cx="1035.42" cy="1045.60" r="22.36" style="fill:#A0A0A0"/>
	<circle cx="1035.42" cy="1045.60" r="18.69" style="fill:none;stroke:#A0A0A0;stroke-width:7.34"/>
	<line x1="976.02" y1="556.64" x2="1095.43" y2="556.64" style="stroke:#A0A0A0;stroke-width:7.34"/>
	<line x1="1095.43" y1="575.33" x2="1095.43" y2="537.96" stroke-linecap="round" style="stroke:#A0A0A0;stroke-width:7.34"/>
	<line x1="976.02" y1="575.33" x2="976.02" y2="537.96" stroke-linecap="round" style="stroke:#A0A0A0;stroke-width:7.34"/>
	<line x1="1127.12" y1="678.79" x2="1238.61" y2="678.79" style="stroke:#A0A0A0;stroke-width:7.34"/>
	<line x1="1238.61" y1="697.48" x2="1238.61" y2="660.10" stroke-linecap="round" style="stroke:#A0A0A0;stroke-width:7.34"/>
	<line x1="1127.12" y1="697.48" x2="1127.12" y2="660.10" stroke-linecap="round" style="stroke:#A0A0A0;stroke-width:7.34"/>
	<line x1="837.17" y1="801.06" x2="1099.39" y2="801.06" style="stroke:#A0A0A0;stroke-width:7.34"/>
	<line x1="1099.39" y1="819.75" x2="1099.39" y2="782.37" stroke-linecap="round" style="stroke:#A0A0A0;stroke-width:7.34"/>
	<line x1="837.17" y1="819.75" x2="837.17" y2="782.37" stroke-linecap="round" style="stroke:#A0A0A0;stroke-width:7.34"/>
	<line x1="916.25" y1="923.33" x2="1135.16" y2="923.33" style="stroke:#A0A0A0;stroke-width:7.34"/>
	<line x1="1135.16" y1="942.01" x2="1135.16" y2="904.64" stroke-linecap="round" style="stroke:#A0A0A0;stroke-width:7.34"/>
	<line x1="916.25" y1="942.01" x2="916.25" y2="904.64" stroke-linecap="round" style="stroke:#A0A0A0;stroke-width:7.34"/>
	<line x1="964.63" y1="1045.60" x2="1106.20" y2="1045.60" style="stroke:#A0A0A0;stroke-width:7.34"/>
	<line x1="1106.20" y1="1064.28" x2="1106.20" y2="1026.91" stroke-linecap="round" style="stroke:#A0A0A0;stroke-width:7.34"/>
	<line x1="964.63" y1="1064.28" x2="964.63" y2="1026.91" stroke-linecap="round" style="stroke:#A0A0A0;stroke-width:7.34"/>
	<text x="297.37" y="458.19" style="font-family:'Helvetica';font-size:67.94px;fill:#000000">COVID-19</text>
	<text x="297.37" y="580.46" style="font-family:'Helvetica';font-size:67.94px;fill:#000000">Cancer</text>
	<text x="297.37" y="702.60" style="font-family:'Helvetica';font-size:67.94px;fill:#000000">CVD</text>
	<text x="297.37" y="824.87" style="font-family:'Helvetica';font-size:67.94px;fill:#000000">Dementia/Alzheim</text>
	<text x="297.37" y="947.14" style="font-family:'Helvetica';font-size:67.94px;fill:#000000">Respiratory</text>
	<text x="297.37" y="1069.41" style="font-family:'Helvetica';font-size:67.94px;fill:#000000">Other</text>
	<text x="241.81" y="335.92" style="font-family:'Helvetica';font-size:67.94px;fill:#000000">Cause of death category</text>
	<text x="1535.98" y="452.25" style="font-family:'Helvetica';font-size:50.98px;fill:#000000">1.79 (1.42-2.26)</text>
	<text x="1535.98" y="574.52" style="font-family:'Helvetica';font-size:50.98px;fill:#000000">0.76 (0.63-0.93)</text>
	<text x="1535.98" y="696.67" style="font-family:'Helvetica';font-size:50.98px;fill:#000000">1.23 (1.03-1.48)</text>
	<text x="1535.98" y="818.94" style="font-family:'Helvetica';font-size:50.98px;fill:#000000">0.61 (0.40-0.94)</text>
	<text x="1535.98" y="941.20" style="font-family:'Helvetica';font-size:50.98px;fill:#000000">0.74 (0.51-1.06)</text>
	<text x="1535.98" y="1063.47" style="font-family:'Helvetica';font-size:50.98px;fill:#000000">0.76 (0.60-0.96)</text>
	<circle cx="3246.46" cy="434.38" r="22.36" style="fill:#000000"/>
	<circle cx="3246.46" cy="434.38" r="18.69" style="fill:none;stroke:#000000;stroke-width:7.34"/>
	<line x1="3224.68" y1="434.38" x2="3268.24" y2="434.38" style="stroke:#000000;stroke-width:7.34"/>
	<line x1="3268.24" y1="453.06" x2="3268.24" y2="415.69" stroke-linecap="round" style="stroke:#000000;stroke-width:7.34"/>
	<line x1="3224.68" y1="453.06" x2="3224.68" y2="415.69" stroke-linecap="round" style="stroke:#000000;stroke-width:7.34"/>
	<circle cx="2815.93" cy="556.64" r="22.36" style="fill:#A0A0A0"/>
	<circle cx="2815.93" cy="556.64" r="18.69" style="fill:none;stroke:#A0A0A0;stroke-width:7.34"/>
	<circle cx="3011.95" cy="678.91" r="22.36" style="fill:#A0A0A0"/>
	<circle cx="3011.95" cy="678.91" r="18.69" style="fill:none;stroke:#A0A0A0;stroke-width:7.34"/>
	<circle cx="2843.78" cy="801.18" r="22.36" style="fill:#A0A0A0"/>
	<circle cx="2843.78" cy="801.18" r="18.69" style="fill:none;stroke:#A0A0A0;stroke-width:7.34"/>
	<circle cx="2950.45" cy="923.33" r="22.36" style="fill:#A0A0A0"/>
	<circle cx="2950.45" cy="923.33" r="18.69" style="fill:none;stroke:#A0A0A0;stroke-width:7.34"/>
	<circle cx="2929.53" cy="1045.60" r="22.36" style="fill:#A0A0A0"/>
	<circle cx="2929.53" cy="1045.60" r="18.69" style="fill:none;stroke:#A0A0A0;stroke-width:7.34"/>
	<line x1="2791.55" y1="556.64" x2="2840.43" y2="556.64" style="stroke:#A0A0A0;stroke-width:7.34"/>
	<line x1="2840.43" y1="575.33" x2="2840.43" y2="537.96" stroke-linecap="round" style="stroke:#A0A0A0;stroke-width:7.34"/>
	<line x1="2791.55" y1="575.33" x2="2791.55" y2="537.96" stroke-linecap="round" style="stroke:#A0A0A0;stroke-width:7.34"/>
	<line x1="2991.16" y1="678.79" x2="3032.74" y2="678.79" style="stroke:#A0A0A0;stroke-width:7.34"/>
	<line x1="3032.74" y1="697.48" x2="3032.74" y2="660.10" stroke-linecap="round" style="stroke:#A0A0A0;stroke-width:7.34"/>
	<line x1="2991.16" y1="697.48" x2="2991.16" y2="660.10" stroke-linecap="round" style="stroke:#A0A0A0;stroke-width:7.34"/>
	<line x1="2801.20" y1="801.06" x2="2886.34" y2="801.06" style="stroke:#A0A0A0;stroke-width:7.34"/>
	<line x1="2886.34" y1="819.75" x2="2886.34" y2="782.37" stroke-linecap="round" style="stroke:#A0A0A0;stroke-width:7.34"/>
	<line x1="2801.20" y1="819.75" x2="2801.20" y2="782.37" stroke-linecap="round" style="stroke:#A0A0A0;stroke-width:7.34"/>
	<line x1="2916.29" y1="923.33" x2="2984.73" y2="923.33" style="stroke:#A0A0A0;stroke-width:7.34"/>
	<line x1="2984.73" y1="942.01" x2="2984.73" y2="904.64" stroke-linecap="round" style="stroke:#A0A0A0;stroke-width:7.34"/>
	<line x1="2916.29" y1="942.01" x2="2916.29" y2="904.64" stroke-linecap="round" style="stroke:#A0A0A0;stroke-width:7.34"/>
	<line x1="2905.03" y1="1045.60" x2="2954.28" y2="1045.60" style="stroke:#A0A0A0;stroke-width:7.34"/>
	<line x1="2954.28" y1="1064.28" x2="2954.28" y2="1026.91" stroke-linecap="round" style="stroke:#A0A0A0;stroke-width:7.34"/>
	<line x1="2905.03" y1="1064.28" x2="2905.03" y2="1026.91" stroke-linecap="round" style="stroke:#A0A0A0;stroke-width:7.34"/>
	<text x="2167.98" y="458.19" style="font-family:'Helvetica';font-size:67.94px;fill:#000000">COVID-19</text>
	<text x="2167.98" y="580.46" style="font-family:'Helvetica';font-size:67.94px;fill:#000000">Cancer</text>
	<text x="2167.98" y="702.60" style="font-family:'Helvetica';font-size:67.94px;fill:#000000">CVD</text>
	<text x="2167.98" y="824.87" style="font-family:'Helvetica';font-size:67.94px;fill:#000000">Dementia/Alzheim</text>
	<text x="2167.98" y="947.14" style="font-family:'Helvetica';font-size:67.94px;fill:#000000">Respiratory</text>
	<text x="2167.98" y="1069.41" style="font-family:'Helvetica';font-size:67.94px;fill:#000000">Other</text>
	<text x="2112.54" y="335.92" style="font-family:'Helvetica';font-size:67.94px;fill:#000000">Cause of death category</text>
	<text x="3406.59" y="452.25" style="font-family:'Helvetica';font-size:50.98px;fill:#000000">2.33 (2.17-2.50)</text>
	<text x="3406.59" y="574.52" style="font-family:'Helvetica';font-size:50.98px;fill:#000000">0.57 (0.52-0.61)</text>
	<text x="3406.59" y="696.67" style="font-family:'Helvetica';font-size:50.98px;fill:#000000">1.08 (1.01-1.15)</text>
	<text x="3406.59" y="818.94" style="font-family:'Helvetica';font-size:50.98px;fill:#000000">0.62 (0.54-0.71)</text>
	<text x="3406.59" y="941.20" style="font-family:'Helvetica';font-size:50.98px;fill:#000000">0.88 (0.79-0.98)</text>
	<text x="3406.59" y="1063.47" style="font-family:'Helvetica';font-size:50.98px;fill:#000000">0.82 (0.76-0.89)</text>
	<circle cx="1374.24" cy="1589.87" r="22.36" style="fill:#000000"/>
	<circle cx="1374.24" cy="1589.87" r="18.69" style="fill:none;stroke:#000000;stroke-width:7.34"/>
	<line x1="1338.48" y1="1589.74" x2="1410.13" y2="1589.74" style="stroke:#000000;stroke-width:7.34"/>
	<line x1="1410.13" y1="1608.43" x2="1410.13" y2="1571.06" stroke-linecap="round" style="stroke:#000000;stroke-width:7.34"/>
	<line x1="1338.48" y1="1608.43" x2="1338.48" y2="1571.06" stroke-linecap="round" style="stroke:#000000;stroke-width:7.34"/>
	<circle cx="1069.32" cy="1712.13" r="22.36" style="fill:#A0A0A0"/>
	<circle cx="1069.32" cy="1712.13" r="18.69" style="fill:none;stroke:#A0A0A0;stroke-width:7.34"/>
	<circle cx="1108.06" cy="1834.28" r="22.36" style="fill:#A0A0A0"/>
	<circle cx="1108.06" cy="1834.28" r="18.69" style="fill:none;stroke:#A0A0A0;stroke-width:7.34"/>
	<circle cx="1168.32" cy="1956.55" r="22.36" style="fill:#A0A0A0"/>
	<circle cx="1168.32" cy="1956.55" r="18.69" style="fill:none;stroke:#A0A0A0;stroke-width:7.34"/>
	<circle cx="972.18" cy="2078.82" r="22.36" style="fill:#A0A0A0"/>
	<circle cx="972.18" cy="2078.82" r="18.69" style="fill:none;stroke:#A0A0A0;stroke-width:7.34"/>
	<circle cx="1068.46" cy="2201.09" r="22.36" style="fill:#A0A0A0"/>
	<circle cx="1068.46" cy="2201.09" r="18.69" style="fill:none;stroke:#A0A0A0;stroke-width:7.34"/>
	<line x1="1035.54" y1="1712.01" x2="1103.23" y2="1712.01" style="stroke:#A0A0A0;stroke-width:7.34"/>
	<line x1="1103.23" y1="1730.70" x2="1103.23" y2="1693.32" stroke-linecap="round" style="stroke:#A0A0A0;stroke-width:7.34"/>
	<line x1="1035.54" y1="1730.70" x2="1035.54" y2="1693.32" stroke-linecap="round" style="stroke:#A0A0A0;stroke-width:7.34"/>
	<line x1="1071.80" y1="1834.28" x2="1144.44" y2="1834.28" style="stroke:#A0A0A0;stroke-width:7.34"/>
	<line x1="1144.44" y1="1852.97" x2="1144.44" y2="1815.59" stroke-linecap="round" style="stroke:#A0A0A0;stroke-width:7.34"/>
	<line x1="1071.80" y1="1852.97" x2="1071.80" y2="1815.59" stroke-linecap="round" style="stroke:#A0A0A0;stroke-width:7.34"/>
	<line x1="1116.60" y1="1956.55" x2="1220.05" y2="1956.55" style="stroke:#A0A0A0;stroke-width:7.34"/>
	<line x1="1220.05" y1="1975.24" x2="1220.05" y2="1937.86" stroke-linecap="round" style="stroke:#A0A0A0;stroke-width:7.34"/>
	<line x1="1116.60" y1="1975.24" x2="1116.60" y2="1937.86" stroke-linecap="round" style="stroke:#A0A0A0;stroke-width:7.34"/>
	<line x1="904.12" y1="2078.82" x2="1040.24" y2="2078.82" style="stroke:#A0A0A0;stroke-width:7.34"/>
	<line x1="1040.24" y1="2097.50" x2="1040.24" y2="2060.13" stroke-linecap="round" style="stroke:#A0A0A0;stroke-width:7.34"/>
	<line x1="904.12" y1="2097.50" x2="904.12" y2="2060.13" stroke-linecap="round" style="stroke:#A0A0A0;stroke-width:7.34"/>
	<line x1="1027.99" y1="2200.96" x2="1108.92" y2="2200.96" style="stroke:#A0A0A0;stroke-width:7.34"/>
	<line x1="1108.92" y1="2219.65" x2="1108.92" y2="2182.28" stroke-linecap="round" style="stroke:#A0A0A0;stroke-width:7.34"/>
	<line x1="1027.99" y1="2219.65" x2="1027.99" y2="2182.28" stroke-linecap="round" style="stroke:#A0A0A0;stroke-width:7.34"/>
	<text x="297.37" y="1613.55" style="font-family:'Helvetica';font-size:67.94px;fill:#000000">COVID-19</text>
	<text x="297.37" y="1735.82" style="font-family:'Helvetica';font-size:67.94px;fill:#000000">Cancer</text>
	<text x="297.37" y="1858.09" style="font-family:'Helvetica';font-size:67.94px;fill:#000000">CVD</text>
	<text x="297.37" y="1980.36" style="font-family:'Helvetica';font-size:67.94px;fill:#000000">Dementia/Alzheim</text>
	<text x="297.37" y="2102.63" style="font-family:'Helvetica';font-size:67.94px;fill:#000000">Respiratory</text>
	<text x="297.37" y="2224.77" style="font-family:'Helvetica';font-size:67.94px;fill:#000000">Other</text>
	<text x="241.81" y="1491.28" style="font-family:'Helvetica';font-size:67.94px;fill:#000000">Cause of death category</text>
	<text x="1535.98" y="1607.62" style="font-family:'Helvetica';font-size:50.98px;fill:#000000">2.31 (2.06-2.60)</text>
	<text x="1535.98" y="1729.89" style="font-family:'Helvetica';font-size:50.98px;fill:#000000">0.85 (0.76-0.95)</text>
	<text x="1535.98" y="1852.16" style="font-family:'Helvetica';font-size:50.98px;fill:#000000">0.97 (0.86-1.09)</text>
	<text x="1535.98" y="1974.42" style="font-family:'Helvetica';font-size:50.98px;fill:#000000">1.18 (0.99-1.39)</text>
	<text x="1535.98" y="2096.69" style="font-family:'Helvetica';font-size:50.98px;fill:#000000">0.62 (0.49-0.77)</text>
	<text x="1535.98" y="2218.84" style="font-family:'Helvetica';font-size:50.98px;fill:#000000">0.85 (0.74-0.97)</text>
	<circle cx="3128.52" cy="1589.87" r="22.36" style="fill:#000000"/>
	<circle cx="3128.52" cy="1589.87" r="18.69" style="fill:none;stroke:#000000;stroke-width:7.34"/>
	<line x1="3076.18" y1="1589.74" x2="3181.12" y2="1589.74" style="stroke:#000000;stroke-width:7.34"/>
	<line x1="3181.12" y1="1608.43" x2="3181.12" y2="1571.06" stroke-linecap="round" style="stroke:#000000;stroke-width:7.34"/>
	<line x1="3076.18" y1="1608.43" x2="3076.18" y2="1571.06" stroke-linecap="round" style="stroke:#000000;stroke-width:7.34"/>
	<circle cx="2872.98" cy="1712.13" r="22.36" style="fill:#A0A0A0"/>
	<circle cx="2872.98" cy="1712.13" r="18.69" style="fill:none;stroke:#A0A0A0;stroke-width:7.34"/>
	<circle cx="2863.95" cy="1834.28" r="22.36" style="fill:#A0A0A0"/>
	<circle cx="2863.95" cy="1834.28" r="18.69" style="fill:none;stroke:#A0A0A0;stroke-width:7.34"/>
	<circle cx="2890.18" cy="1956.55" r="22.36" style="fill:#A0A0A0"/>
	<circle cx="2890.18" cy="1956.55" r="18.69" style="fill:none;stroke:#A0A0A0;stroke-width:7.34"/>
	<circle cx="2837.09" cy="2078.82" r="22.36" style="fill:#A0A0A0"/>
	<circle cx="2837.09" cy="2078.82" r="18.69" style="fill:none;stroke:#A0A0A0;stroke-width:7.34"/>
	<circle cx="2858.63" cy="2201.09" r="22.36" style="fill:#A0A0A0"/>
	<circle cx="2858.63" cy="2201.09" r="18.69" style="fill:none;stroke:#A0A0A0;stroke-width:7.34"/>
	<line x1="2828.43" y1="1712.01" x2="2917.78" y2="1712.01" style="stroke:#A0A0A0;stroke-width:7.34"/>
	<line x1="2917.78" y1="1730.70" x2="2917.78" y2="1693.32" stroke-linecap="round" style="stroke:#A0A0A0;stroke-width:7.34"/>
	<line x1="2828.43" y1="1730.70" x2="2828.43" y2="1693.32" stroke-linecap="round" style="stroke:#A0A0A0;stroke-width:7.34"/>
	<line x1="2810.98" y1="1834.28" x2="2917.03" y2="1834.28" style="stroke:#A0A0A0;stroke-width:7.34"/>
	<line x1="2917.03" y1="1852.97" x2="2917.03" y2="1815.59" stroke-linecap="round" style="stroke:#A0A0A0;stroke-width:7.34"/>
	<line x1="2810.98" y1="1852.97" x2="2810.98" y2="1815.59" stroke-linecap="round" style="stroke:#A0A0A0;stroke-width:7.34"/>
	<line x1="2808.14" y1="1956.55" x2="2972.35" y2="1956.55" style="stroke:#A0A0A0;stroke-width:7.34"/>
	<line x1="2972.35" y1="1975.24" x2="2972.35" y2="1937.86" stroke-linecap="round" style="stroke:#A0A0A0;stroke-width:7.34"/>
	<line x1="2808.14" y1="1975.24" x2="2808.14" y2="1937.86" stroke-linecap="round" style="stroke:#A0A0A0;stroke-width:7.34"/>
	<line x1="2753.07" y1="2078.82" x2="2921.12" y2="2078.82" style="stroke:#A0A0A0;stroke-width:7.34"/>
	<line x1="2921.12" y1="2097.50" x2="2921.12" y2="2060.13" stroke-linecap="round" style="stroke:#A0A0A0;stroke-width:7.34"/>
	<line x1="2753.07" y1="2097.50" x2="2753.07" y2="2060.13" stroke-linecap="round" style="stroke:#A0A0A0;stroke-width:7.34"/>
	<line x1="2804.55" y1="2200.96" x2="2912.70" y2="2200.96" style="stroke:#A0A0A0;stroke-width:7.34"/>
	<line x1="2912.70" y1="2219.65" x2="2912.70" y2="2182.28" stroke-linecap="round" style="stroke:#A0A0A0;stroke-width:7.34"/>
	<line x1="2804.55" y1="2219.65" x2="2804.55" y2="2182.28" stroke-linecap="round" style="stroke:#A0A0A0;stroke-width:7.34"/>
	<text x="2167.98" y="1613.55" style="font-family:'Helvetica';font-size:67.94px;fill:#000000">COVID-19</text>
	<text x="2167.98" y="1735.82" style="font-family:'Helvetica';font-size:67.94px;fill:#000000">Cancer</text>
	<text x="2167.98" y="1858.09" style="font-family:'Helvetica';font-size:67.94px;fill:#000000">CVD</text>
	<text x="2167.98" y="1980.36" style="font-family:'Helvetica';font-size:67.94px;fill:#000000">Dementia/Alzheim</text>
	<text x="2167.98" y="2102.63" style="font-family:'Helvetica';font-size:67.94px;fill:#000000">Respiratory</text>
	<text x="2167.98" y="2224.77" style="font-family:'Helvetica';font-size:67.94px;fill:#000000">Other</text>
	<text x="2112.54" y="1491.28" style="font-family:'Helvetica';font-size:67.94px;fill:#000000">Cause of death category</text>
	<text x="3406.59" y="1607.62" style="font-family:'Helvetica';font-size:50.98px;fill:#000000">1.58 (1.33-1.88)</text>
	<text x="3406.59" y="1729.89" style="font-family:'Helvetica';font-size:50.98px;fill:#000000">0.68 (0.59-0.79)</text>
	<text x="3406.59" y="1852.16" style="font-family:'Helvetica';font-size:50.98px;fill:#000000">0.66 (0.56-0.79)</text>
	<text x="3406.59" y="1974.42" style="font-family:'Helvetica';font-size:50.98px;fill:#000000">0.72 (0.55-0.95)</text>
	<text x="3406.59" y="2096.69" style="font-family:'Helvetica';font-size:50.98px;fill:#000000">0.61 (0.46-0.80)</text>
	<text x="3406.59" y="2218.84" style="font-family:'Helvetica';font-size:50.98px;fill:#000000">0.65 (0.55-0.78)</text>
	<line x1="152.34" y1="1221.70" x2="152.34" y2="258.27" style="stroke:#FFFFFF;stroke-width:4.90"/>
	<line x1="152.34" y1="2377.06" x2="152.34" y2="1413.64" style="stroke:#FFFFFF;stroke-width:4.90"/>
	<line x1="152.34" y1="2377.06" x2="1953.89" y2="2377.06" style="stroke:#000000;stroke-width:4.90"/>
	<line x1="907.58" y1="2377.06" x2="907.58" y2="2411.10" style="stroke:#000000;stroke-width:4.90"/>
	<text x="907.58" y="2487.50" style="font-family:'Helvetica';font-size:85.02px;fill:#000000" text-anchor="middle">.5</text>
	<line x1="1118.70" y1="2377.06" x2="1118.70" y2="2411.10" style="stroke:#000000;stroke-width:4.90"/>
	<text x="1118.70" y="2487.50" style="font-family:'Helvetica';font-size:85.02px;fill:#000000" text-anchor="middle">1</text>
	<line x1="1329.82" y1="2377.06" x2="1329.82" y2="2411.10" style="stroke:#000000;stroke-width:4.90"/>
	<text x="1329.82" y="2487.50" style="font-family:'Helvetica';font-size:85.02px;fill:#000000" text-anchor="middle">2</text>
	<line x1="1541.06" y1="2377.06" x2="1541.06" y2="2411.10" style="stroke:#000000;stroke-width:4.90"/>
	<text x="1541.06" y="2487.50" style="font-family:'Helvetica';font-size:85.02px;fill:#000000" text-anchor="middle">4</text>
	<line x1="2022.94" y1="2377.06" x2="3824.49" y2="2377.06" style="stroke:#000000;stroke-width:4.90"/>
	<line x1="2778.19" y1="2377.06" x2="2778.19" y2="2411.10" style="stroke:#000000;stroke-width:4.90"/>
	<text x="2778.19" y="2487.50" style="font-family:'Helvetica';font-size:85.02px;fill:#000000" text-anchor="middle">.5</text>
	<line x1="2989.43" y1="2377.06" x2="2989.43" y2="2411.10" style="stroke:#000000;stroke-width:4.90"/>
	<text x="2989.43" y="2487.50" style="font-family:'Helvetica';font-size:85.02px;fill:#000000" text-anchor="middle">1</text>
	<line x1="3200.55" y1="2377.06" x2="3200.55" y2="2411.10" style="stroke:#000000;stroke-width:4.90"/>
	<text x="3200.55" y="2487.50" style="font-family:'Helvetica';font-size:85.02px;fill:#000000" text-anchor="middle">2</text>
	<line x1="3411.66" y1="2377.06" x2="3411.66" y2="2411.10" style="stroke:#000000;stroke-width:4.90"/>
	<text x="3411.66" y="2487.50" style="font-family:'Helvetica';font-size:85.02px;fill:#000000" text-anchor="middle">4</text>
	<rect x="152.34" y="135.39" width="1801.55" height="122.89" style="fill:#D9E6EB"/>
	<rect x="154.78" y="137.83" width="1796.66" height="117.99" style="fill:none;stroke:#D9E6EB;stroke-width:4.90"/>
	<text x="1053.11" y="215.42" style="font-family:'Helvetica';font-size:93.56px;fill:#000000" text-anchor="middle">Mixed vs White</text>
	<rect x="2022.94" y="135.39" width="1801.55" height="122.89" style="fill:#D9E6EB"/>
	<rect x="2025.39" y="137.83" width="1796.66" height="117.99" style="fill:none;stroke:#D9E6EB;stroke-width:4.90"/>
	<text x="2923.72" y="215.42" style="font-family:'Helvetica';font-size:93.56px;fill:#000000" text-anchor="middle">Asian or Asian British vs White</text>
	<rect x="152.34" y="1290.75" width="1801.55" height="122.89" style="fill:#D9E6EB"/>
	<rect x="154.78" y="1293.20" width="1796.66" height="117.99" style="fill:none;stroke:#D9E6EB;stroke-width:4.90"/>
	<text x="1053.11" y="1370.91" style="font-family:'Helvetica';font-size:93.56px;fill:#000000" text-anchor="middle">Black vs White</text>
	<rect x="2022.94" y="1290.75" width="1801.55" height="122.89" style="fill:#D9E6EB"/>
	<rect x="2025.39" y="1293.20" width="1796.66" height="117.99" style="fill:none;stroke:#D9E6EB;stroke-width:4.90"/>
	<text x="2923.72" y="1370.91" style="font-family:'Helvetica';font-size:93.56px;fill:#000000" text-anchor="middle">Other vs White</text>
	<text x="1980.00" y="2634.61" style="font-family:'Helvetica';font-size:99.99px;fill:#000000" text-anchor="middle">Odds ratio for cause-specific death and 95% CI</text>
	<text x="118.06" y="2737.89" style="font-family:'Helvetica';font-size:79.94px;fill:#000000">Graphs by ethnicity</text>
</svg>
