<?xml version="1.0" encoding="UTF-8" standalone="no"?>
<!-- This is a Stata 16.1 generated SVG file (http://www.stata.com) -->

<svg version="1.1" width="5.50in" height="4.00in" viewBox="0 0 3960 2880" xmlns="http://www.w3.org/2000/svg" xmlns:xlink="http://www.w3.org/1999/xlink">
	<desc>Stata Graph - cm3</desc>
	<rect x="0" y="0" width="3960" height="2880" style="fill:#EAF2F3;stroke:none"/>
	<rect x="0.00" y="0.00" width="3959.88" height="2880.00" style="fill:#EAF2F3"/>
	<rect x="2.88" y="2.88" width="3954.12" height="2874.24" style="fill:none;stroke:#EAF2F3;stroke-width:5.76"/>
	<rect x="63.36" y="63.36" width="1277.72" height="1248.92" style="fill:#EAF2F3"/>
	<rect x="65.28" y="65.28" width="1273.88" height="1245.08" style="fill:none;stroke:#EAF2F3;stroke-width:3.84"/>
	<rect x="150.60" y="246.89" width="1123.28" height="804.77" style="fill:#FFFFFF"/>
	<rect x="152.52" y="248.81" width="1119.44" height="800.93" style="fill:none;stroke:#FFFFFF;stroke-width:3.84"/>
	<line x1="595.36" y1="1051.66" x2="595.36" y2="994.11" style="stroke:#C10534;stroke-width:5.76"/>
	<line x1="595.36" y1="965.28" x2="595.36" y2="907.73" style="stroke:#C10534;stroke-width:5.76"/>
	<line x1="595.36" y1="878.90" x2="595.36" y2="821.23" style="stroke:#C10534;stroke-width:5.76"/>
	<line x1="595.36" y1="792.52" x2="595.36" y2="734.85" style="stroke:#C10534;stroke-width:5.76"/>
	<line x1="595.36" y1="706.02" x2="595.36" y2="648.47" style="stroke:#C10534;stroke-width:5.76"/>
	<line x1="595.36" y1="619.64" x2="595.36" y2="562.09" style="stroke:#C10534;stroke-width:5.76"/>
	<line x1="595.36" y1="533.26" x2="595.36" y2="475.71" style="stroke:#C10534;stroke-width:5.76"/>
	<line x1="595.36" y1="446.88" x2="595.36" y2="389.33" style="stroke:#C10534;stroke-width:5.76"/>
	<line x1="595.36" y1="360.50" x2="595.36" y2="302.95" style="stroke:#C10534;stroke-width:5.76"/>
	<line x1="595.36" y1="274.11" x2="595.36" y2="246.89" style="stroke:#C10534;stroke-width:5.76"/>
	<circle cx="714.28" cy="420.14" r="12.90" style="fill:#000000"/>
	<circle cx="714.28" cy="420.14" r="10.02" style="fill:none;stroke:#000000;stroke-width:5.76"/>
	<circle cx="712.68" cy="682.13" r="12.90" style="fill:#000000"/>
	<circle cx="712.68" cy="682.13" r="10.02" style="fill:none;stroke:#000000;stroke-width:5.76"/>
	<circle cx="713.67" cy="943.99" r="12.90" style="fill:#000000"/>
	<circle cx="713.67" cy="943.99" r="10.02" style="fill:none;stroke:#000000;stroke-width:5.76"/>
	<line x1="707.48" y1="420.14" x2="721.22" y2="420.14" style="stroke:#000000;stroke-width:5.76"/>
	<line x1="721.22" y1="434.87" x2="721.22" y2="405.54" stroke-linecap="round" style="stroke:#000000;stroke-width:5.76"/>
	<line x1="707.48" y1="434.87" x2="707.48" y2="405.54" stroke-linecap="round" style="stroke:#000000;stroke-width:5.76"/>
	<line x1="705.62" y1="682.01" x2="719.85" y2="682.01" style="stroke:#000000;stroke-width:5.76"/>
	<line x1="719.85" y1="696.73" x2="719.85" y2="667.40" stroke-linecap="round" style="stroke:#000000;stroke-width:5.76"/>
	<line x1="705.62" y1="696.73" x2="705.62" y2="667.40" stroke-linecap="round" style="stroke:#000000;stroke-width:5.76"/>
	<line x1="707.11" y1="943.99" x2="720.35" y2="943.99" style="stroke:#000000;stroke-width:5.76"/>
	<line x1="720.35" y1="958.72" x2="720.35" y2="929.39" stroke-linecap="round" style="stroke:#000000;stroke-width:5.76"/>
	<line x1="707.11" y1="958.72" x2="707.11" y2="929.39" stroke-linecap="round" style="stroke:#000000;stroke-width:5.76"/>
	<circle cx="701.66" cy="485.73" r="12.90" style="fill:#909090"/>
	<circle cx="701.66" cy="485.73" r="10.02" style="fill:none;stroke:#909090;stroke-width:5.76"/>
	<circle cx="702.16" cy="747.60" r="12.90" style="fill:#909090"/>
	<circle cx="702.16" cy="747.60" r="10.02" style="fill:none;stroke:#909090;stroke-width:5.76"/>
	<circle cx="701.41" cy="1009.58" r="12.90" style="fill:#909090"/>
	<circle cx="701.41" cy="1009.58" r="10.02" style="fill:none;stroke:#909090;stroke-width:5.76"/>
	<line x1="698.94" y1="485.61" x2="704.38" y2="485.61" style="stroke:#909090;stroke-width:5.76"/>
	<line x1="704.38" y1="500.34" x2="704.38" y2="471.01" stroke-linecap="round" style="stroke:#909090;stroke-width:5.76"/>
	<line x1="698.94" y1="500.34" x2="698.94" y2="471.01" stroke-linecap="round" style="stroke:#909090;stroke-width:5.76"/>
	<line x1="699.56" y1="747.60" x2="705.00" y2="747.60" style="stroke:#909090;stroke-width:5.76"/>
	<line x1="705.00" y1="762.32" x2="705.00" y2="732.99" stroke-linecap="round" style="stroke:#909090;stroke-width:5.76"/>
	<line x1="699.56" y1="762.32" x2="699.56" y2="732.99" stroke-linecap="round" style="stroke:#909090;stroke-width:5.76"/>
	<line x1="698.69" y1="1009.46" x2="704.14" y2="1009.46" style="stroke:#909090;stroke-width:5.76"/>
	<line x1="704.14" y1="1024.19" x2="704.14" y2="994.86" stroke-linecap="round" style="stroke:#909090;stroke-width:5.76"/>
	<line x1="698.69" y1="1024.19" x2="698.69" y2="994.86" stroke-linecap="round" style="stroke:#909090;stroke-width:5.76"/>
	<text x="1008.19" y="364.02" style="font-family:'Helvetica';font-size:26.61px;fill:#000000">PRIMARY ANALYSIS</text>
	<text x="1008.19" y="625.89" style="font-family:'Helvetica';font-size:26.61px;fill:#000000">CONFIRMED COVID</text>
	<text x="1008.19" y="887.87" style="font-family:'Helvetica';font-size:26.61px;fill:#000000">ANY COVID ON DC</text>
	<text x="1008.19" y="429.49" style="font-family:'Helvetica';font-size:26.61px;fill:#000000">2.04 (1.96-2.12)</text>
	<text x="1008.19" y="494.95" style="font-family:'Helvetica';font-size:26.61px;fill:#000000">1.89 (1.86-1.92)</text>
	<text x="1008.19" y="691.35" style="font-family:'Helvetica';font-size:26.61px;fill:#000000">2.02 (1.94-2.11)</text>
	<text x="1008.19" y="756.94" style="font-family:'Helvetica';font-size:26.61px;fill:#000000">1.90 (1.87-1.93)</text>
	<text x="1008.19" y="953.34" style="font-family:'Helvetica';font-size:26.61px;fill:#000000">2.03 (1.95-2.11)</text>
	<text x="1008.19" y="1018.80" style="font-family:'Helvetica';font-size:26.61px;fill:#000000">1.89 (1.86-1.92)</text>
	<line x1="150.60" y1="1051.66" x2="150.60" y2="246.89" style="stroke:#000000;stroke-width:3.84"/>
	<line x1="150.60" y1="1051.66" x2="1273.88" y2="1051.66" style="stroke:#000000;stroke-width:3.84"/>
	<line x1="363.58" y1="1051.66" x2="363.58" y2="1078.39" style="stroke:#000000;stroke-width:3.84"/>
	<text x="363.58" y="1138.39" style="font-family:'Helvetica';font-size:66.70px;fill:#000000" text-anchor="middle">.25</text>
	<line x1="479.41" y1="1051.66" x2="479.41" y2="1078.39" style="stroke:#000000;stroke-width:3.84"/>
	<text x="479.41" y="1138.39" style="font-family:'Helvetica';font-size:66.70px;fill:#000000" text-anchor="middle">.5</text>
	<line x1="595.36" y1="1051.66" x2="595.36" y2="1078.39" style="stroke:#000000;stroke-width:3.84"/>
	<text x="595.36" y="1138.39" style="font-family:'Helvetica';font-size:66.70px;fill:#000000" text-anchor="middle">1</text>
	<line x1="711.19" y1="1051.66" x2="711.19" y2="1078.39" style="stroke:#000000;stroke-width:3.84"/>
	<text x="711.19" y="1138.39" style="font-family:'Helvetica';font-size:66.70px;fill:#000000" text-anchor="middle">2</text>
	<line x1="864.39" y1="1051.66" x2="864.39" y2="1078.39" style="stroke:#000000;stroke-width:3.84"/>
	<text x="864.39" y="1138.39" style="font-family:'Helvetica';font-size:66.70px;fill:#000000" text-anchor="middle">5</text>
	<line x1="980.22" y1="1051.66" x2="980.22" y2="1078.39" style="stroke:#000000;stroke-width:3.84"/>
	<text x="980.22" y="1138.39" style="font-family:'Helvetica';font-size:66.70px;fill:#000000" text-anchor="middle">10</text>
	<text x="712.18" y="1211.65" style="font-family:'Helvetica';font-size:66.70px;fill:#000000" text-anchor="middle">HR and 95% CI</text>
	<text x="712.18" y="207.32" style="font-family:'Helvetica';font-size:93.31px;fill:#1E2D53" text-anchor="middle">Stroke</text>
	<rect x="1341.08" y="63.36" width="1277.72" height="1248.92" style="fill:#EAF2F3"/>
	<rect x="1343.00" y="65.28" width="1273.88" height="1245.08" style="fill:none;stroke:#EAF2F3;stroke-width:3.84"/>
	<rect x="1428.32" y="246.89" width="1123.28" height="804.77" style="fill:#FFFFFF"/>
	<rect x="1430.24" y="248.81" width="1119.44" height="800.93" style="fill:none;stroke:#FFFFFF;stroke-width:3.84"/>
	<line x1="1873.08" y1="1051.66" x2="1873.08" y2="994.11" style="stroke:#C10534;stroke-width:5.76"/>
	<line x1="1873.08" y1="965.28" x2="1873.08" y2="907.73" style="stroke:#C10534;stroke-width:5.76"/>
	<line x1="1873.08" y1="878.90" x2="1873.08" y2="821.23" style="stroke:#C10534;stroke-width:5.76"/>
	<line x1="1873.08" y1="792.52" x2="1873.08" y2="734.85" style="stroke:#C10534;stroke-width:5.76"/>
	<line x1="1873.08" y1="706.02" x2="1873.08" y2="648.47" style="stroke:#C10534;stroke-width:5.76"/>
	<line x1="1873.08" y1="619.64" x2="1873.08" y2="562.09" style="stroke:#C10534;stroke-width:5.76"/>
	<line x1="1873.08" y1="533.26" x2="1873.08" y2="475.71" style="stroke:#C10534;stroke-width:5.76"/>
	<line x1="1873.08" y1="446.88" x2="1873.08" y2="389.33" style="stroke:#C10534;stroke-width:5.76"/>
	<line x1="1873.08" y1="360.50" x2="1873.08" y2="302.95" style="stroke:#C10534;stroke-width:5.76"/>
	<line x1="1873.08" y1="274.11" x2="1873.08" y2="246.89" style="stroke:#C10534;stroke-width:5.76"/>
	<circle cx="2064.27" cy="420.14" r="12.90" style="fill:#000000"/>
	<circle cx="2064.27" cy="420.14" r="10.02" style="fill:none;stroke:#000000;stroke-width:5.76"/>
	<circle cx="2064.89" cy="682.13" r="12.90" style="fill:#000000"/>
	<circle cx="2064.89" cy="682.13" r="10.02" style="fill:none;stroke:#000000;stroke-width:5.76"/>
	<circle cx="2064.27" cy="943.99" r="12.90" style="fill:#000000"/>
	<circle cx="2064.27" cy="943.99" r="10.02" style="fill:none;stroke:#000000;stroke-width:5.76"/>
	<line x1="2053.88" y1="420.14" x2="2074.92" y2="420.14" style="stroke:#000000;stroke-width:5.76"/>
	<line x1="2074.92" y1="434.87" x2="2074.92" y2="405.54" stroke-linecap="round" style="stroke:#000000;stroke-width:5.76"/>
	<line x1="2053.88" y1="434.87" x2="2053.88" y2="405.54" stroke-linecap="round" style="stroke:#000000;stroke-width:5.76"/>
	<line x1="2054.13" y1="682.01" x2="2075.78" y2="682.01" style="stroke:#000000;stroke-width:5.76"/>
	<line x1="2075.78" y1="696.73" x2="2075.78" y2="667.40" stroke-linecap="round" style="stroke:#000000;stroke-width:5.76"/>
	<line x1="2054.13" y1="696.73" x2="2054.13" y2="667.40" stroke-linecap="round" style="stroke:#000000;stroke-width:5.76"/>
	<line x1="2054.25" y1="943.99" x2="2074.42" y2="943.99" style="stroke:#000000;stroke-width:5.76"/>
	<line x1="2074.42" y1="958.72" x2="2074.42" y2="929.39" stroke-linecap="round" style="stroke:#000000;stroke-width:5.76"/>
	<line x1="2054.25" y1="958.72" x2="2054.25" y2="929.39" stroke-linecap="round" style="stroke:#000000;stroke-width:5.76"/>
	<circle cx="2044.35" cy="485.73" r="12.90" style="fill:#909090"/>
	<circle cx="2044.35" cy="485.73" r="10.02" style="fill:none;stroke:#909090;stroke-width:5.76"/>
	<circle cx="2044.72" cy="747.60" r="12.90" style="fill:#909090"/>
	<circle cx="2044.72" cy="747.60" r="10.02" style="fill:none;stroke:#909090;stroke-width:5.76"/>
	<circle cx="2043.73" cy="1009.58" r="12.90" style="fill:#909090"/>
	<circle cx="2043.73" cy="1009.58" r="10.02" style="fill:none;stroke:#909090;stroke-width:5.76"/>
	<line x1="2040.02" y1="485.61" x2="2048.80" y2="485.61" style="stroke:#909090;stroke-width:5.76"/>
	<line x1="2048.80" y1="500.34" x2="2048.80" y2="471.01" stroke-linecap="round" style="stroke:#909090;stroke-width:5.76"/>
	<line x1="2040.02" y1="500.34" x2="2040.02" y2="471.01" stroke-linecap="round" style="stroke:#909090;stroke-width:5.76"/>
	<line x1="2040.39" y1="747.60" x2="2049.18" y2="747.60" style="stroke:#909090;stroke-width:5.76"/>
	<line x1="2049.18" y1="762.32" x2="2049.18" y2="732.99" stroke-linecap="round" style="stroke:#909090;stroke-width:5.76"/>
	<line x1="2040.39" y1="762.32" x2="2040.39" y2="732.99" stroke-linecap="round" style="stroke:#909090;stroke-width:5.76"/>
	<line x1="2039.40" y1="1009.46" x2="2048.19" y2="1009.46" style="stroke:#909090;stroke-width:5.76"/>
	<line x1="2048.19" y1="1024.19" x2="2048.19" y2="994.86" stroke-linecap="round" style="stroke:#909090;stroke-width:5.76"/>
	<line x1="2039.40" y1="1024.19" x2="2039.40" y2="994.86" stroke-linecap="round" style="stroke:#909090;stroke-width:5.76"/>
	<text x="2285.91" y="364.02" style="font-family:'Helvetica';font-size:26.61px;fill:#000000">PRIMARY ANALYSIS</text>
	<text x="2285.91" y="625.89" style="font-family:'Helvetica';font-size:26.61px;fill:#000000">CONFIRMED COVID</text>
	<text x="2285.91" y="887.87" style="font-family:'Helvetica';font-size:26.61px;fill:#000000">ANY COVID ON DC</text>
	<text x="2285.91" y="429.49" style="font-family:'Helvetica';font-size:26.61px;fill:#000000">3.14 (2.95-3.34)</text>
	<text x="2285.91" y="494.95" style="font-family:'Helvetica';font-size:26.61px;fill:#000000">2.79 (2.72-2.86)</text>
	<text x="2285.91" y="691.35" style="font-family:'Helvetica';font-size:26.61px;fill:#000000">3.15 (2.96-3.36)</text>
	<text x="2285.91" y="756.94" style="font-family:'Helvetica';font-size:26.61px;fill:#000000">2.79 (2.72-2.87)</text>
	<text x="2285.91" y="953.34" style="font-family:'Helvetica';font-size:26.61px;fill:#000000">3.14 (2.96-3.34)</text>
	<text x="2285.91" y="1018.80" style="font-family:'Helvetica';font-size:26.61px;fill:#000000">2.78 (2.71-2.85)</text>
	<line x1="1428.32" y1="1051.66" x2="1428.32" y2="246.89" style="stroke:#000000;stroke-width:3.84"/>
	<line x1="1428.32" y1="1051.66" x2="2551.60" y2="1051.66" style="stroke:#000000;stroke-width:3.84"/>
	<line x1="1641.30" y1="1051.66" x2="1641.30" y2="1078.39" style="stroke:#000000;stroke-width:3.84"/>
	<text x="1641.30" y="1138.39" style="font-family:'Helvetica';font-size:66.70px;fill:#000000" text-anchor="middle">.25</text>
	<line x1="1757.13" y1="1051.66" x2="1757.13" y2="1078.39" style="stroke:#000000;stroke-width:3.84"/>
	<text x="1757.13" y="1138.39" style="font-family:'Helvetica';font-size:66.70px;fill:#000000" text-anchor="middle">.5</text>
	<line x1="1873.08" y1="1051.66" x2="1873.08" y2="1078.39" style="stroke:#000000;stroke-width:3.84"/>
	<text x="1873.08" y="1138.39" style="font-family:'Helvetica';font-size:66.70px;fill:#000000" text-anchor="middle">1</text>
	<line x1="1988.91" y1="1051.66" x2="1988.91" y2="1078.39" style="stroke:#000000;stroke-width:3.84"/>
	<text x="1988.91" y="1138.39" style="font-family:'Helvetica';font-size:66.70px;fill:#000000" text-anchor="middle">2</text>
	<line x1="2142.11" y1="1051.66" x2="2142.11" y2="1078.39" style="stroke:#000000;stroke-width:3.84"/>
	<text x="2142.11" y="1138.39" style="font-family:'Helvetica';font-size:66.70px;fill:#000000" text-anchor="middle">5</text>
	<line x1="2257.94" y1="1051.66" x2="2257.94" y2="1078.39" style="stroke:#000000;stroke-width:3.84"/>
	<text x="2257.94" y="1138.39" style="font-family:'Helvetica';font-size:66.70px;fill:#000000" text-anchor="middle">10</text>
	<text x="1989.90" y="1211.65" style="font-family:'Helvetica';font-size:66.70px;fill:#000000" text-anchor="middle">HR and 95% CI</text>
	<text x="1989.90" y="207.32" style="font-family:'Helvetica';font-size:93.31px;fill:#1E2D53" text-anchor="middle">Other neurological</text>
	<rect x="2618.80" y="63.36" width="1277.72" height="1248.92" style="fill:#EAF2F3"/>
	<rect x="2620.72" y="65.28" width="1273.88" height="1245.08" style="fill:none;stroke:#EAF2F3;stroke-width:3.84"/>
	<rect x="2706.04" y="246.89" width="1123.28" height="804.77" style="fill:#FFFFFF"/>
	<rect x="2707.96" y="248.81" width="1119.44" height="800.93" style="fill:none;stroke:#FFFFFF;stroke-width:3.84"/>
	<line x1="3150.80" y1="1051.66" x2="3150.80" y2="994.11" style="stroke:#C10534;stroke-width:5.76"/>
	<line x1="3150.80" y1="965.28" x2="3150.80" y2="907.73" style="stroke:#C10534;stroke-width:5.76"/>
	<line x1="3150.80" y1="878.90" x2="3150.80" y2="821.23" style="stroke:#C10534;stroke-width:5.76"/>
	<line x1="3150.80" y1="792.52" x2="3150.80" y2="734.85" style="stroke:#C10534;stroke-width:5.76"/>
	<line x1="3150.80" y1="706.02" x2="3150.80" y2="648.47" style="stroke:#C10534;stroke-width:5.76"/>
	<line x1="3150.80" y1="619.64" x2="3150.80" y2="562.09" style="stroke:#C10534;stroke-width:5.76"/>
	<line x1="3150.80" y1="533.26" x2="3150.80" y2="475.71" style="stroke:#C10534;stroke-width:5.76"/>
	<line x1="3150.80" y1="446.88" x2="3150.80" y2="389.33" style="stroke:#C10534;stroke-width:5.76"/>
	<line x1="3150.80" y1="360.50" x2="3150.80" y2="302.95" style="stroke:#C10534;stroke-width:5.76"/>
	<line x1="3150.80" y1="274.11" x2="3150.80" y2="246.89" style="stroke:#C10534;stroke-width:5.76"/>
	<circle cx="3439.38" cy="420.14" r="12.90" style="fill:#000000"/>
	<circle cx="3439.38" cy="420.14" r="10.02" style="fill:none;stroke:#000000;stroke-width:5.76"/>
	<circle cx="3445.32" cy="682.13" r="12.90" style="fill:#000000"/>
	<circle cx="3445.32" cy="682.13" r="10.02" style="fill:none;stroke:#000000;stroke-width:5.76"/>
	<circle cx="3444.21" cy="943.99" r="12.90" style="fill:#000000"/>
	<circle cx="3444.21" cy="943.99" r="10.02" style="fill:none;stroke:#000000;stroke-width:5.76"/>
	<line x1="3405.11" y1="420.14" x2="3473.79" y2="420.14" style="stroke:#000000;stroke-width:5.76"/>
	<line x1="3473.79" y1="434.87" x2="3473.79" y2="405.54" stroke-linecap="round" style="stroke:#000000;stroke-width:5.76"/>
	<line x1="3405.11" y1="434.87" x2="3405.11" y2="405.54" stroke-linecap="round" style="stroke:#000000;stroke-width:5.76"/>
	<line x1="3410.80" y1="682.01" x2="3479.97" y2="682.01" style="stroke:#000000;stroke-width:5.76"/>
	<line x1="3479.97" y1="696.73" x2="3479.97" y2="667.40" stroke-linecap="round" style="stroke:#000000;stroke-width:5.76"/>
	<line x1="3410.80" y1="696.73" x2="3410.80" y2="667.40" stroke-linecap="round" style="stroke:#000000;stroke-width:5.76"/>
	<line x1="3411.91" y1="943.99" x2="3476.63" y2="943.99" style="stroke:#000000;stroke-width:5.76"/>
	<line x1="3476.63" y1="958.72" x2="3476.63" y2="929.39" stroke-linecap="round" style="stroke:#000000;stroke-width:5.76"/>
	<line x1="3411.91" y1="958.72" x2="3411.91" y2="929.39" stroke-linecap="round" style="stroke:#000000;stroke-width:5.76"/>
	<circle cx="3379.74" cy="485.73" r="12.90" style="fill:#909090"/>
	<circle cx="3379.74" cy="485.73" r="10.02" style="fill:none;stroke:#909090;stroke-width:5.76"/>
	<circle cx="3379.12" cy="747.60" r="12.90" style="fill:#909090"/>
	<circle cx="3379.12" cy="747.60" r="10.02" style="fill:none;stroke:#909090;stroke-width:5.76"/>
	<circle cx="3377.26" cy="1009.58" r="12.90" style="fill:#909090"/>
	<circle cx="3377.26" cy="1009.58" r="10.02" style="fill:none;stroke:#909090;stroke-width:5.76"/>
	<line x1="3364.14" y1="485.61" x2="3395.33" y2="485.61" style="stroke:#909090;stroke-width:5.76"/>
	<line x1="3395.33" y1="500.34" x2="3395.33" y2="471.01" stroke-linecap="round" style="stroke:#909090;stroke-width:5.76"/>
	<line x1="3364.14" y1="500.34" x2="3364.14" y2="471.01" stroke-linecap="round" style="stroke:#909090;stroke-width:5.76"/>
	<line x1="3363.65" y1="747.60" x2="3394.71" y2="747.60" style="stroke:#909090;stroke-width:5.76"/>
	<line x1="3394.71" y1="762.32" x2="3394.71" y2="732.99" stroke-linecap="round" style="stroke:#909090;stroke-width:5.76"/>
	<line x1="3363.65" y1="762.32" x2="3363.65" y2="732.99" stroke-linecap="round" style="stroke:#909090;stroke-width:5.76"/>
	<line x1="3361.55" y1="1009.46" x2="3392.98" y2="1009.46" style="stroke:#909090;stroke-width:5.76"/>
	<line x1="3392.98" y1="1024.19" x2="3392.98" y2="994.86" stroke-linecap="round" style="stroke:#909090;stroke-width:5.76"/>
	<line x1="3361.55" y1="1024.19" x2="3361.55" y2="994.86" stroke-linecap="round" style="stroke:#909090;stroke-width:5.76"/>
	<text x="3563.63" y="364.02" style="font-family:'Helvetica';font-size:26.61px;fill:#000000">PRIMARY ANALYSIS</text>
	<text x="3563.63" y="625.89" style="font-family:'Helvetica';font-size:26.61px;fill:#000000">CONFIRMED COVID</text>
	<text x="3563.63" y="887.87" style="font-family:'Helvetica';font-size:26.61px;fill:#000000">ANY COVID ON DC</text>
	<text x="3563.63" y="429.49" style="font-family:'Helvetica';font-size:26.61px;fill:#000000">5.62 (4.58-6.91)</text>
	<text x="3563.63" y="494.95" style="font-family:'Helvetica';font-size:26.61px;fill:#000000">3.93 (3.59-4.32)</text>
	<text x="3563.63" y="691.35" style="font-family:'Helvetica';font-size:26.61px;fill:#000000">5.83 (4.74-7.17)</text>
	<text x="3563.63" y="756.94" style="font-family:'Helvetica';font-size:26.61px;fill:#000000">3.92 (3.57-4.30)</text>
	<text x="3563.63" y="953.34" style="font-family:'Helvetica';font-size:26.61px;fill:#000000">5.79 (4.77-7.03)</text>
	<text x="3563.63" y="1018.80" style="font-family:'Helvetica';font-size:26.61px;fill:#000000">3.88 (3.53-4.26)</text>
	<line x1="2706.04" y1="1051.66" x2="2706.04" y2="246.89" style="stroke:#000000;stroke-width:3.84"/>
	<line x1="2706.04" y1="1051.66" x2="3829.32" y2="1051.66" style="stroke:#000000;stroke-width:3.84"/>
	<line x1="2919.01" y1="1051.66" x2="2919.01" y2="1078.39" style="stroke:#000000;stroke-width:3.84"/>
	<text x="2919.01" y="1138.39" style="font-family:'Helvetica';font-size:66.70px;fill:#000000" text-anchor="middle">.25</text>
	<line x1="3034.84" y1="1051.66" x2="3034.84" y2="1078.39" style="stroke:#000000;stroke-width:3.84"/>
	<text x="3034.84" y="1138.39" style="font-family:'Helvetica';font-size:66.70px;fill:#000000" text-anchor="middle">.5</text>
	<line x1="3150.80" y1="1051.66" x2="3150.80" y2="1078.39" style="stroke:#000000;stroke-width:3.84"/>
	<text x="3150.80" y="1138.39" style="font-family:'Helvetica';font-size:66.70px;fill:#000000" text-anchor="middle">1</text>
	<line x1="3266.63" y1="1051.66" x2="3266.63" y2="1078.39" style="stroke:#000000;stroke-width:3.84"/>
	<text x="3266.63" y="1138.39" style="font-family:'Helvetica';font-size:66.70px;fill:#000000" text-anchor="middle">2</text>
	<line x1="3419.83" y1="1051.66" x2="3419.83" y2="1078.39" style="stroke:#000000;stroke-width:3.84"/>
	<text x="3419.83" y="1138.39" style="font-family:'Helvetica';font-size:66.70px;fill:#000000" text-anchor="middle">5</text>
	<line x1="3535.66" y1="1051.66" x2="3535.66" y2="1078.39" style="stroke:#000000;stroke-width:3.84"/>
	<text x="3535.66" y="1138.39" style="font-family:'Helvetica';font-size:66.70px;fill:#000000" text-anchor="middle">10</text>
	<text x="3267.62" y="1211.65" style="font-family:'Helvetica';font-size:66.70px;fill:#000000" text-anchor="middle">HR and 95% CI</text>
	<text x="3267.62" y="207.32" style="font-family:'Helvetica';font-size:93.31px;fill:#1E2D53" text-anchor="middle">Organ transplant</text>
	<rect x="63.36" y="1312.29" width="1277.72" height="1248.80" style="fill:#EAF2F3"/>
	<rect x="65.28" y="1314.21" width="1273.88" height="1244.96" style="fill:none;stroke:#EAF2F3;stroke-width:3.84"/>
	<rect x="150.60" y="1495.81" width="1123.28" height="804.77" style="fill:#FFFFFF"/>
	<rect x="152.52" y="1497.73" width="1119.44" height="800.93" style="fill:none;stroke:#FFFFFF;stroke-width:3.84"/>
	<line x1="595.36" y1="2300.58" x2="595.36" y2="2243.04" style="stroke:#C10534;stroke-width:5.76"/>
	<line x1="595.36" y1="2214.20" x2="595.36" y2="2156.66" style="stroke:#C10534;stroke-width:5.76"/>
	<line x1="595.36" y1="2127.82" x2="595.36" y2="2070.28" style="stroke:#C10534;stroke-width:5.76"/>
	<line x1="595.36" y1="2041.44" x2="595.36" y2="1983.90" style="stroke:#C10534;stroke-width:5.76"/>
	<line x1="595.36" y1="1955.06" x2="595.36" y2="1897.52" style="stroke:#C10534;stroke-width:5.76"/>
	<line x1="595.36" y1="1868.68" x2="595.36" y2="1811.01" style="stroke:#C10534;stroke-width:5.76"/>
	<line x1="595.36" y1="1782.30" x2="595.36" y2="1724.63" style="stroke:#C10534;stroke-width:5.76"/>
	<line x1="595.36" y1="1695.92" x2="595.36" y2="1638.25" style="stroke:#C10534;stroke-width:5.76"/>
	<line x1="595.36" y1="1609.42" x2="595.36" y2="1551.87" style="stroke:#C10534;stroke-width:5.76"/>
	<line x1="595.36" y1="1523.04" x2="595.36" y2="1495.81" style="stroke:#C10534;stroke-width:5.76"/>
	<circle cx="659.84" cy="1669.07" r="12.90" style="fill:#000000"/>
	<circle cx="659.84" cy="1669.07" r="10.02" style="fill:none;stroke:#000000;stroke-width:5.76"/>
	<circle cx="666.64" cy="1931.06" r="12.90" style="fill:#000000"/>
	<circle cx="666.64" cy="1931.06" r="10.02" style="fill:none;stroke:#000000;stroke-width:5.76"/>
	<circle cx="661.69" cy="2192.92" r="12.90" style="fill:#000000"/>
	<circle cx="661.69" cy="2192.92" r="10.02" style="fill:none;stroke:#000000;stroke-width:5.76"/>
	<line x1="616.65" y1="1669.07" x2="703.27" y2="1669.07" style="stroke:#000000;stroke-width:5.76"/>
	<line x1="703.27" y1="1683.80" x2="703.27" y2="1654.47" stroke-linecap="round" style="stroke:#000000;stroke-width:5.76"/>
	<line x1="616.65" y1="1683.80" x2="616.65" y2="1654.47" stroke-linecap="round" style="stroke:#000000;stroke-width:5.76"/>
	<line x1="623.08" y1="1930.93" x2="710.45" y2="1930.93" style="stroke:#000000;stroke-width:5.76"/>
	<line x1="710.45" y1="1945.66" x2="710.45" y2="1916.33" stroke-linecap="round" style="stroke:#000000;stroke-width:5.76"/>
	<line x1="623.08" y1="1945.66" x2="623.08" y2="1916.33" stroke-linecap="round" style="stroke:#000000;stroke-width:5.76"/>
	<line x1="620.48" y1="2192.92" x2="703.02" y2="2192.92" style="stroke:#000000;stroke-width:5.76"/>
	<line x1="703.02" y1="2207.65" x2="703.02" y2="2178.32" stroke-linecap="round" style="stroke:#000000;stroke-width:5.76"/>
	<line x1="620.48" y1="2207.65" x2="620.48" y2="2178.32" stroke-linecap="round" style="stroke:#000000;stroke-width:5.76"/>
	<circle cx="726.04" cy="1734.53" r="12.90" style="fill:#909090"/>
	<circle cx="726.04" cy="1734.53" r="10.02" style="fill:none;stroke:#909090;stroke-width:5.76"/>
	<circle cx="725.05" cy="1996.52" r="12.90" style="fill:#909090"/>
	<circle cx="725.05" cy="1996.52" r="10.02" style="fill:none;stroke:#909090;stroke-width:5.76"/>
	<circle cx="726.41" cy="2258.38" r="12.90" style="fill:#909090"/>
	<circle cx="726.41" cy="2258.38" r="10.02" style="fill:none;stroke:#909090;stroke-width:5.76"/>
	<line x1="712.30" y1="1734.53" x2="739.90" y2="1734.53" style="stroke:#909090;stroke-width:5.76"/>
	<line x1="739.90" y1="1749.26" x2="739.90" y2="1719.93" stroke-linecap="round" style="stroke:#909090;stroke-width:5.76"/>
	<line x1="712.30" y1="1749.26" x2="712.30" y2="1719.93" stroke-linecap="round" style="stroke:#909090;stroke-width:5.76"/>
	<line x1="711.44" y1="1996.40" x2="738.91" y2="1996.40" style="stroke:#909090;stroke-width:5.76"/>
	<line x1="738.91" y1="2011.12" x2="738.91" y2="1981.79" stroke-linecap="round" style="stroke:#909090;stroke-width:5.76"/>
	<line x1="711.44" y1="2011.12" x2="711.44" y2="1981.79" stroke-linecap="round" style="stroke:#909090;stroke-width:5.76"/>
	<line x1="712.68" y1="2258.38" x2="740.27" y2="2258.38" style="stroke:#909090;stroke-width:5.76"/>
	<line x1="740.27" y1="2273.11" x2="740.27" y2="2243.78" stroke-linecap="round" style="stroke:#909090;stroke-width:5.76"/>
	<line x1="712.68" y1="2273.11" x2="712.68" y2="2243.78" stroke-linecap="round" style="stroke:#909090;stroke-width:5.76"/>
	<text x="1008.19" y="1612.82" style="font-family:'Helvetica';font-size:26.61px;fill:#000000">PRIMARY ANALYSIS</text>
	<text x="1008.19" y="1874.81" style="font-family:'Helvetica';font-size:26.61px;fill:#000000">CONFIRMED COVID</text>
	<text x="1008.19" y="2136.67" style="font-family:'Helvetica';font-size:26.61px;fill:#000000">ANY COVID ON DC</text>
	<text x="1008.19" y="1678.41" style="font-family:'Helvetica';font-size:26.61px;fill:#000000">1.47 (1.14-1.91)</text>
	<text x="1008.19" y="1743.88" style="font-family:'Helvetica';font-size:26.61px;fill:#000000">2.19 (2.01-2.37)</text>
	<text x="1008.19" y="1940.28" style="font-family:'Helvetica';font-size:26.61px;fill:#000000">1.53 (1.18-1.99)</text>
	<text x="1008.19" y="2005.74" style="font-family:'Helvetica';font-size:26.61px;fill:#000000">2.17 (2.00-2.36)</text>
	<text x="1008.19" y="2202.26" style="font-family:'Helvetica';font-size:26.61px;fill:#000000">1.49 (1.16-1.90)</text>
	<text x="1008.19" y="2267.73" style="font-family:'Helvetica';font-size:26.61px;fill:#000000">2.19 (2.02-2.38)</text>
	<line x1="150.60" y1="2300.58" x2="150.60" y2="1495.81" style="stroke:#000000;stroke-width:3.84"/>
	<line x1="150.60" y1="2300.58" x2="1273.88" y2="2300.58" style="stroke:#000000;stroke-width:3.84"/>
	<line x1="363.58" y1="2300.58" x2="363.58" y2="2327.32" style="stroke:#000000;stroke-width:3.84"/>
	<text x="363.58" y="2387.19" style="font-family:'Helvetica';font-size:66.70px;fill:#000000" text-anchor="middle">.25</text>
	<line x1="479.41" y1="2300.58" x2="479.41" y2="2327.32" style="stroke:#000000;stroke-width:3.84"/>
	<text x="479.41" y="2387.19" style="font-family:'Helvetica';font-size:66.70px;fill:#000000" text-anchor="middle">.5</text>
	<line x1="595.36" y1="2300.58" x2="595.36" y2="2327.32" style="stroke:#000000;stroke-width:3.84"/>
	<text x="595.36" y="2387.19" style="font-family:'Helvetica';font-size:66.70px;fill:#000000" text-anchor="middle">1</text>
	<line x1="711.19" y1="2300.58" x2="711.19" y2="2327.32" style="stroke:#000000;stroke-width:3.84"/>
	<text x="711.19" y="2387.19" style="font-family:'Helvetica';font-size:66.70px;fill:#000000" text-anchor="middle">2</text>
	<line x1="864.39" y1="2300.58" x2="864.39" y2="2327.32" style="stroke:#000000;stroke-width:3.84"/>
	<text x="864.39" y="2387.19" style="font-family:'Helvetica';font-size:66.70px;fill:#000000" text-anchor="middle">5</text>
	<line x1="980.22" y1="2300.58" x2="980.22" y2="2327.32" style="stroke:#000000;stroke-width:3.84"/>
	<text x="980.22" y="2387.19" style="font-family:'Helvetica';font-size:66.70px;fill:#000000" text-anchor="middle">10</text>
	<text x="712.18" y="2460.57" style="font-family:'Helvetica';font-size:66.70px;fill:#000000" text-anchor="middle">HR and 95% CI</text>
	<text x="712.18" y="1456.25" style="font-family:'Helvetica';font-size:93.31px;fill:#1E2D53" text-anchor="middle">Asplenia</text>
	<rect x="1341.08" y="1312.29" width="1277.72" height="1248.80" style="fill:#EAF2F3"/>
	<rect x="1343.00" y="1314.21" width="1273.88" height="1244.96" style="fill:none;stroke:#EAF2F3;stroke-width:3.84"/>
	<rect x="1424.61" y="1495.81" width="1126.99" height="804.77" style="fill:#FFFFFF"/>
	<rect x="1426.53" y="1497.73" width="1123.15" height="800.93" style="fill:none;stroke:#FFFFFF;stroke-width:3.84"/>
	<line x1="1870.73" y1="2300.58" x2="1870.73" y2="2243.04" style="stroke:#C10534;stroke-width:5.76"/>
	<line x1="1870.73" y1="2214.20" x2="1870.73" y2="2156.66" style="stroke:#C10534;stroke-width:5.76"/>
	<line x1="1870.73" y1="2127.82" x2="1870.73" y2="2070.28" style="stroke:#C10534;stroke-width:5.76"/>
	<line x1="1870.73" y1="2041.44" x2="1870.73" y2="1983.90" style="stroke:#C10534;stroke-width:5.76"/>
	<line x1="1870.73" y1="1955.06" x2="1870.73" y2="1897.52" style="stroke:#C10534;stroke-width:5.76"/>
	<line x1="1870.73" y1="1868.68" x2="1870.73" y2="1811.01" style="stroke:#C10534;stroke-width:5.76"/>
	<line x1="1870.73" y1="1782.30" x2="1870.73" y2="1724.63" style="stroke:#C10534;stroke-width:5.76"/>
	<line x1="1870.73" y1="1695.92" x2="1870.73" y2="1638.25" style="stroke:#C10534;stroke-width:5.76"/>
	<line x1="1870.73" y1="1609.42" x2="1870.73" y2="1551.87" style="stroke:#C10534;stroke-width:5.76"/>
	<line x1="1870.73" y1="1523.04" x2="1870.73" y2="1495.81" style="stroke:#C10534;stroke-width:5.76"/>
	<circle cx="1920.35" cy="1669.07" r="12.90" style="fill:#000000"/>
	<circle cx="1920.35" cy="1669.07" r="10.02" style="fill:none;stroke:#000000;stroke-width:5.76"/>
	<circle cx="1920.85" cy="1931.06" r="12.90" style="fill:#000000"/>
	<circle cx="1920.85" cy="1931.06" r="10.02" style="fill:none;stroke:#000000;stroke-width:5.76"/>
	<circle cx="1918.25" cy="2192.92" r="12.90" style="fill:#000000"/>
	<circle cx="1918.25" cy="2192.92" r="10.02" style="fill:none;stroke:#000000;stroke-width:5.76"/>
	<line x1="1911.57" y1="1669.07" x2="1929.26" y2="1669.07" style="stroke:#000000;stroke-width:5.76"/>
	<line x1="1929.26" y1="1683.80" x2="1929.26" y2="1654.47" stroke-linecap="round" style="stroke:#000000;stroke-width:5.76"/>
	<line x1="1911.57" y1="1683.80" x2="1911.57" y2="1654.47" stroke-linecap="round" style="stroke:#000000;stroke-width:5.76"/>
	<line x1="1911.94" y1="1930.93" x2="1930.01" y2="1930.93" style="stroke:#000000;stroke-width:5.76"/>
	<line x1="1930.01" y1="1945.66" x2="1930.01" y2="1916.33" stroke-linecap="round" style="stroke:#000000;stroke-width:5.76"/>
	<line x1="1911.94" y1="1945.66" x2="1911.94" y2="1916.33" stroke-linecap="round" style="stroke:#000000;stroke-width:5.76"/>
	<line x1="1909.83" y1="2192.92" x2="1926.79" y2="2192.92" style="stroke:#000000;stroke-width:5.76"/>
	<line x1="1926.79" y1="2207.65" x2="1926.79" y2="2178.32" stroke-linecap="round" style="stroke:#000000;stroke-width:5.76"/>
	<line x1="1909.83" y1="2207.65" x2="1909.83" y2="2178.32" stroke-linecap="round" style="stroke:#000000;stroke-width:5.76"/>
	<circle cx="1907.48" cy="1734.53" r="12.90" style="fill:#909090"/>
	<circle cx="1907.48" cy="1734.53" r="10.02" style="fill:none;stroke:#909090;stroke-width:5.76"/>
	<circle cx="1907.48" cy="1996.52" r="12.90" style="fill:#909090"/>
	<circle cx="1907.48" cy="1996.52" r="10.02" style="fill:none;stroke:#909090;stroke-width:5.76"/>
	<circle cx="1907.61" cy="2258.38" r="12.90" style="fill:#909090"/>
	<circle cx="1907.61" cy="2258.38" r="10.02" style="fill:none;stroke:#909090;stroke-width:5.76"/>
	<line x1="1904.14" y1="1734.53" x2="1910.82" y2="1734.53" style="stroke:#909090;stroke-width:5.76"/>
	<line x1="1910.82" y1="1749.26" x2="1910.82" y2="1719.93" stroke-linecap="round" style="stroke:#909090;stroke-width:5.76"/>
	<line x1="1904.14" y1="1749.26" x2="1904.14" y2="1719.93" stroke-linecap="round" style="stroke:#909090;stroke-width:5.76"/>
	<line x1="1904.27" y1="1996.40" x2="1910.82" y2="1996.40" style="stroke:#909090;stroke-width:5.76"/>
	<line x1="1910.82" y1="2011.12" x2="1910.82" y2="1981.79" stroke-linecap="round" style="stroke:#909090;stroke-width:5.76"/>
	<line x1="1904.27" y1="2011.12" x2="1904.27" y2="1981.79" stroke-linecap="round" style="stroke:#909090;stroke-width:5.76"/>
	<line x1="1904.27" y1="2258.38" x2="1910.95" y2="2258.38" style="stroke:#909090;stroke-width:5.76"/>
	<line x1="1910.95" y1="2273.11" x2="1910.95" y2="2243.78" stroke-linecap="round" style="stroke:#909090;stroke-width:5.76"/>
	<line x1="1904.27" y1="2273.11" x2="1904.27" y2="2243.78" stroke-linecap="round" style="stroke:#909090;stroke-width:5.76"/>
	<text x="2285.04" y="1612.82" style="font-family:'Helvetica';font-size:26.61px;fill:#000000">PRIMARY ANALYSIS</text>
	<text x="2285.04" y="1874.81" style="font-family:'Helvetica';font-size:26.61px;fill:#000000">CONFIRMED COVID</text>
	<text x="2285.04" y="2136.67" style="font-family:'Helvetica';font-size:26.61px;fill:#000000">ANY COVID ON DC</text>
	<text x="2285.04" y="1678.41" style="font-family:'Helvetica';font-size:26.61px;fill:#000000">1.34 (1.28-1.42)</text>
	<text x="2285.04" y="1743.88" style="font-family:'Helvetica';font-size:26.61px;fill:#000000">1.24 (1.22-1.27)</text>
	<text x="2285.04" y="1940.28" style="font-family:'Helvetica';font-size:26.61px;fill:#000000">1.35 (1.28-1.42)</text>
	<text x="2285.04" y="2005.74" style="font-family:'Helvetica';font-size:26.61px;fill:#000000">1.25 (1.22-1.27)</text>
	<text x="2285.04" y="2202.26" style="font-family:'Helvetica';font-size:26.61px;fill:#000000">1.33 (1.26-1.40)</text>
	<text x="2285.04" y="2267.73" style="font-family:'Helvetica';font-size:26.61px;fill:#000000">1.25 (1.22-1.27)</text>
	<line x1="1424.61" y1="2300.58" x2="1424.61" y2="1495.81" style="stroke:#000000;stroke-width:3.84"/>
	<line x1="1424.61" y1="2300.58" x2="2551.60" y2="2300.58" style="stroke:#000000;stroke-width:3.84"/>
	<line x1="1638.20" y1="2300.58" x2="1638.20" y2="2327.32" style="stroke:#000000;stroke-width:3.84"/>
	<text x="1638.20" y="2387.19" style="font-family:'Helvetica';font-size:66.70px;fill:#000000" text-anchor="middle">.25</text>
	<line x1="1754.53" y1="2300.58" x2="1754.53" y2="2327.32" style="stroke:#000000;stroke-width:3.84"/>
	<text x="1754.53" y="2387.19" style="font-family:'Helvetica';font-size:66.70px;fill:#000000" text-anchor="middle">.5</text>
	<line x1="1870.73" y1="2300.58" x2="1870.73" y2="2327.32" style="stroke:#000000;stroke-width:3.84"/>
	<text x="1870.73" y="2387.19" style="font-family:'Helvetica';font-size:66.70px;fill:#000000" text-anchor="middle">1</text>
	<line x1="1987.05" y1="2300.58" x2="1987.05" y2="2327.32" style="stroke:#000000;stroke-width:3.84"/>
	<text x="1987.05" y="2387.19" style="font-family:'Helvetica';font-size:66.70px;fill:#000000" text-anchor="middle">2</text>
	<line x1="2140.75" y1="2300.58" x2="2140.75" y2="2327.32" style="stroke:#000000;stroke-width:3.84"/>
	<text x="2140.75" y="2387.19" style="font-family:'Helvetica';font-size:66.70px;fill:#000000" text-anchor="middle">5</text>
	<line x1="2257.08" y1="2300.58" x2="2257.08" y2="2327.32" style="stroke:#000000;stroke-width:3.84"/>
	<text x="2257.08" y="2387.19" style="font-family:'Helvetica';font-size:66.70px;fill:#000000" text-anchor="middle">10</text>
	<text x="1988.04" y="2460.57" style="font-family:'Helvetica';font-size:66.70px;fill:#000000" text-anchor="middle">HR and 95% CI</text>
	<text x="1988.04" y="1456.25" style="font-family:'Helvetica';font-size:93.31px;fill:#1E2D53" text-anchor="middle">Rheum arthritis/Lupus/Psoriasis</text>
	<rect x="2618.80" y="1312.29" width="1277.72" height="1248.80" style="fill:#EAF2F3"/>
	<rect x="2620.72" y="1314.21" width="1273.88" height="1244.96" style="fill:none;stroke:#EAF2F3;stroke-width:3.84"/>
	<rect x="2705.42" y="1495.81" width="1123.90" height="804.77" style="fill:#FFFFFF"/>
	<rect x="2707.34" y="1497.73" width="1120.06" height="800.93" style="fill:none;stroke:#FFFFFF;stroke-width:3.84"/>
	<line x1="3150.43" y1="2300.58" x2="3150.43" y2="2243.04" style="stroke:#C10534;stroke-width:5.76"/>
	<line x1="3150.43" y1="2214.20" x2="3150.43" y2="2156.66" style="stroke:#C10534;stroke-width:5.76"/>
	<line x1="3150.43" y1="2127.82" x2="3150.43" y2="2070.28" style="stroke:#C10534;stroke-width:5.76"/>
	<line x1="3150.43" y1="2041.44" x2="3150.43" y2="1983.90" style="stroke:#C10534;stroke-width:5.76"/>
	<line x1="3150.43" y1="1955.06" x2="3150.43" y2="1897.52" style="stroke:#C10534;stroke-width:5.76"/>
	<line x1="3150.43" y1="1868.68" x2="3150.43" y2="1811.01" style="stroke:#C10534;stroke-width:5.76"/>
	<line x1="3150.43" y1="1782.30" x2="3150.43" y2="1724.63" style="stroke:#C10534;stroke-width:5.76"/>
	<line x1="3150.43" y1="1695.92" x2="3150.43" y2="1638.25" style="stroke:#C10534;stroke-width:5.76"/>
	<line x1="3150.43" y1="1609.42" x2="3150.43" y2="1551.87" style="stroke:#C10534;stroke-width:5.76"/>
	<line x1="3150.43" y1="1523.04" x2="3150.43" y2="1495.81" style="stroke:#C10534;stroke-width:5.76"/>
	<circle cx="3304.87" cy="1669.07" r="12.90" style="fill:#000000"/>
	<circle cx="3304.87" cy="1669.07" r="10.02" style="fill:none;stroke:#000000;stroke-width:5.76"/>
	<circle cx="3303.51" cy="1931.06" r="12.90" style="fill:#000000"/>
	<circle cx="3303.51" cy="1931.06" r="10.02" style="fill:none;stroke:#000000;stroke-width:5.76"/>
	<circle cx="3309.69" cy="2192.92" r="12.90" style="fill:#000000"/>
	<circle cx="3309.69" cy="2192.92" r="10.02" style="fill:none;stroke:#000000;stroke-width:5.76"/>
	<line x1="3265.27" y1="1669.07" x2="3344.47" y2="1669.07" style="stroke:#000000;stroke-width:5.76"/>
	<line x1="3344.47" y1="1683.80" x2="3344.47" y2="1654.47" stroke-linecap="round" style="stroke:#000000;stroke-width:5.76"/>
	<line x1="3265.27" y1="1683.80" x2="3265.27" y2="1654.47" stroke-linecap="round" style="stroke:#000000;stroke-width:5.76"/>
	<line x1="3262.92" y1="1930.93" x2="3344.34" y2="1930.93" style="stroke:#000000;stroke-width:5.76"/>
	<line x1="3344.34" y1="1945.66" x2="3344.34" y2="1916.33" stroke-linecap="round" style="stroke:#000000;stroke-width:5.76"/>
	<line x1="3262.92" y1="1945.66" x2="3262.92" y2="1916.33" stroke-linecap="round" style="stroke:#000000;stroke-width:5.76"/>
	<line x1="3272.45" y1="2192.92" x2="3347.07" y2="2192.92" style="stroke:#000000;stroke-width:5.76"/>
	<line x1="3347.07" y1="2207.65" x2="3347.07" y2="2178.32" stroke-linecap="round" style="stroke:#000000;stroke-width:5.76"/>
	<line x1="3272.45" y1="2207.65" x2="3272.45" y2="2178.32" stroke-linecap="round" style="stroke:#000000;stroke-width:5.76"/>
	<circle cx="3337.66" cy="1734.53" r="12.90" style="fill:#909090"/>
	<circle cx="3337.66" cy="1734.53" r="10.02" style="fill:none;stroke:#909090;stroke-width:5.76"/>
	<circle cx="3337.66" cy="1996.52" r="12.90" style="fill:#909090"/>
	<circle cx="3337.66" cy="1996.52" r="10.02" style="fill:none;stroke:#909090;stroke-width:5.76"/>
	<circle cx="3337.17" cy="2258.38" r="12.90" style="fill:#909090"/>
	<circle cx="3337.17" cy="2258.38" r="10.02" style="fill:none;stroke:#909090;stroke-width:5.76"/>
	<line x1="3324.17" y1="1734.53" x2="3351.15" y2="1734.53" style="stroke:#909090;stroke-width:5.76"/>
	<line x1="3351.15" y1="1749.26" x2="3351.15" y2="1719.93" stroke-linecap="round" style="stroke:#909090;stroke-width:5.76"/>
	<line x1="3324.17" y1="1749.26" x2="3324.17" y2="1719.93" stroke-linecap="round" style="stroke:#909090;stroke-width:5.76"/>
	<line x1="3324.30" y1="1996.40" x2="3351.27" y2="1996.40" style="stroke:#909090;stroke-width:5.76"/>
	<line x1="3351.27" y1="2011.12" x2="3351.27" y2="1981.79" stroke-linecap="round" style="stroke:#909090;stroke-width:5.76"/>
	<line x1="3324.30" y1="2011.12" x2="3324.30" y2="1981.79" stroke-linecap="round" style="stroke:#909090;stroke-width:5.76"/>
	<line x1="3323.55" y1="2258.38" x2="3350.78" y2="2258.38" style="stroke:#909090;stroke-width:5.76"/>
	<line x1="3350.78" y1="2273.11" x2="3350.78" y2="2243.78" stroke-linecap="round" style="stroke:#909090;stroke-width:5.76"/>
	<line x1="3323.55" y1="2273.11" x2="3323.55" y2="2243.78" stroke-linecap="round" style="stroke:#909090;stroke-width:5.76"/>
	<text x="3563.51" y="1612.82" style="font-family:'Helvetica';font-size:26.61px;fill:#000000">PRIMARY ANALYSIS</text>
	<text x="3563.51" y="1874.81" style="font-family:'Helvetica';font-size:26.61px;fill:#000000">CONFIRMED COVID</text>
	<text x="3563.51" y="2136.67" style="font-family:'Helvetica';font-size:26.61px;fill:#000000">ANY COVID ON DC</text>
	<text x="3563.51" y="1678.41" style="font-family:'Helvetica';font-size:26.61px;fill:#000000">2.52 (1.99-3.19)</text>
	<text x="3563.51" y="1743.88" style="font-family:'Helvetica';font-size:26.61px;fill:#000000">3.06 (2.83-3.32)</text>
	<text x="3563.51" y="1940.28" style="font-family:'Helvetica';font-size:26.61px;fill:#000000">2.50 (1.96-3.19)</text>
	<text x="3563.51" y="2005.74" style="font-family:'Helvetica';font-size:26.61px;fill:#000000">3.07 (2.83-3.32)</text>
	<text x="3563.51" y="2202.26" style="font-family:'Helvetica';font-size:26.61px;fill:#000000">2.59 (2.07-3.24)</text>
	<text x="3563.51" y="2267.73" style="font-family:'Helvetica';font-size:26.61px;fill:#000000">3.06 (2.82-3.31)</text>
	<line x1="2705.42" y1="2300.58" x2="2705.42" y2="1495.81" style="stroke:#000000;stroke-width:3.84"/>
	<line x1="2705.42" y1="2300.58" x2="3829.32" y2="2300.58" style="stroke:#000000;stroke-width:3.84"/>
	<line x1="2918.52" y1="2300.58" x2="2918.52" y2="2327.32" style="stroke:#000000;stroke-width:3.84"/>
	<text x="2918.52" y="2387.19" style="font-family:'Helvetica';font-size:66.70px;fill:#000000" text-anchor="middle">.25</text>
	<line x1="3034.47" y1="2300.58" x2="3034.47" y2="2327.32" style="stroke:#000000;stroke-width:3.84"/>
	<text x="3034.47" y="2387.19" style="font-family:'Helvetica';font-size:66.70px;fill:#000000" text-anchor="middle">.5</text>
	<line x1="3150.43" y1="2300.58" x2="3150.43" y2="2327.32" style="stroke:#000000;stroke-width:3.84"/>
	<text x="3150.43" y="2387.19" style="font-family:'Helvetica';font-size:66.70px;fill:#000000" text-anchor="middle">1</text>
	<line x1="3266.38" y1="2300.58" x2="3266.38" y2="2327.32" style="stroke:#000000;stroke-width:3.84"/>
	<text x="3266.38" y="2387.19" style="font-family:'Helvetica';font-size:66.70px;fill:#000000" text-anchor="middle">2</text>
	<line x1="3419.58" y1="2300.58" x2="3419.58" y2="2327.32" style="stroke:#000000;stroke-width:3.84"/>
	<text x="3419.58" y="2387.19" style="font-family:'Helvetica';font-size:66.70px;fill:#000000" text-anchor="middle">5</text>
	<line x1="3535.54" y1="2300.58" x2="3535.54" y2="2327.32" style="stroke:#000000;stroke-width:3.84"/>
	<text x="3535.54" y="2387.19" style="font-family:'Helvetica';font-size:66.70px;fill:#000000" text-anchor="middle">10</text>
	<text x="3267.37" y="2460.57" style="font-family:'Helvetica';font-size:66.70px;fill:#000000" text-anchor="middle">HR and 95% CI</text>
	<text x="3267.37" y="1456.25" style="font-family:'Helvetica';font-size:93.31px;fill:#1E2D53" text-anchor="middle">Other immunosuppression</text>
	<rect x="970.32" y="2595.74" width="2019.23" height="186.37" style="fill:#FFFFFF"/>
	<rect x="973.20" y="2598.62" width="2013.47" height="180.61" style="fill:none;stroke:#000000;stroke-width:5.76"/>
	<circle cx="1028.49" cy="2688.92" r="19.29" style="fill:#000000"/>
	<circle cx="1028.49" cy="2688.92" r="14.97" style="fill:none;stroke:#000000;stroke-width:8.64"/>
	<circle cx="2028.51" cy="2688.92" r="19.29" style="fill:#909090"/>
	<circle cx="2028.51" cy="2688.92" r="14.97" style="fill:none;stroke:#909090;stroke-width:8.64"/>
	<text x="1103.48" y="2723.95" style="font-family:'Helvetica';font-size:99.99px;fill:#000000">COVID-19 death</text>
	<text x="2103.50" y="2723.95" style="font-family:'Helvetica';font-size:99.99px;fill:#000000">Non-COVID death</text>
</svg>
