<?xml version="1.0" encoding="UTF-8" standalone="no"?>
<!-- This is a Stata 16.1 generated SVG file (http://www.stata.com) -->

<svg version="1.1" width="5.50in" height="4.00in" viewBox="0 0 3960 2880" xmlns="http://www.w3.org/2000/svg" xmlns:xlink="http://www.w3.org/1999/xlink">
	<desc>Stata Graph - agesex</desc>
	<rect x="0" y="0" width="3960" height="2880" style="fill:#EAF2F3;stroke:none"/>
	<rect x="0.00" y="0.00" width="3959.88" height="2880.00" style="fill:#EAF2F3"/>
	<rect x="2.88" y="2.88" width="3954.12" height="2874.24" style="fill:none;stroke:#EAF2F3;stroke-width:5.76"/>
	<rect x="63.36" y="63.36" width="1916.64" height="2497.72" style="fill:#EAF2F3"/>
	<rect x="65.52" y="65.52" width="1912.32" height="2493.40" style="fill:none;stroke:#EAF2F3;stroke-width:4.32"/>
	<rect x="161.49" y="269.91" width="1742.89" height="1998.13" style="fill:#FFFFFF"/>
	<rect x="163.65" y="272.07" width="1738.58" height="1993.81" style="fill:none;stroke:#FFFFFF;stroke-width:4.32"/>
	<line x1="847.44" y1="2268.04" x2="847.44" y2="2210.49" style="stroke:#C10534;stroke-width:6.48"/>
	<line x1="847.44" y1="2181.66" x2="847.44" y2="2123.99" style="stroke:#C10534;stroke-width:6.48"/>
	<line x1="847.44" y1="2095.28" x2="847.44" y2="2037.61" style="stroke:#C10534;stroke-width:6.48"/>
	<line x1="847.44" y1="2008.77" x2="847.44" y2="1951.23" style="stroke:#C10534;stroke-width:6.48"/>
	<line x1="847.44" y1="1922.39" x2="847.44" y2="1864.85" style="stroke:#C10534;stroke-width:6.48"/>
	<line x1="847.44" y1="1836.01" x2="847.44" y2="1778.47" style="stroke:#C10534;stroke-width:6.48"/>
	<line x1="847.44" y1="1749.63" x2="847.44" y2="1692.09" style="stroke:#C10534;stroke-width:6.48"/>
	<line x1="847.44" y1="1663.25" x2="847.44" y2="1605.71" style="stroke:#C10534;stroke-width:6.48"/>
	<line x1="847.44" y1="1576.87" x2="847.44" y2="1519.33" style="stroke:#C10534;stroke-width:6.48"/>
	<line x1="847.44" y1="1490.49" x2="847.44" y2="1432.95" style="stroke:#C10534;stroke-width:6.48"/>
	<line x1="847.44" y1="1404.11" x2="847.44" y2="1346.57" style="stroke:#C10534;stroke-width:6.48"/>
	<line x1="847.44" y1="1317.73" x2="847.44" y2="1260.19" style="stroke:#C10534;stroke-width:6.48"/>
	<line x1="847.44" y1="1231.35" x2="847.44" y2="1173.68" style="stroke:#C10534;stroke-width:6.48"/>
	<line x1="847.44" y1="1144.97" x2="847.44" y2="1087.30" style="stroke:#C10534;stroke-width:6.48"/>
	<line x1="847.44" y1="1058.47" x2="847.44" y2="1000.92" style="stroke:#C10534;stroke-width:6.48"/>
	<line x1="847.44" y1="972.09" x2="847.44" y2="914.54" style="stroke:#C10534;stroke-width:6.48"/>
	<line x1="847.44" y1="885.71" x2="847.44" y2="828.16" style="stroke:#C10534;stroke-width:6.48"/>
	<line x1="847.44" y1="799.33" x2="847.44" y2="741.78" style="stroke:#C10534;stroke-width:6.48"/>
	<line x1="847.44" y1="712.95" x2="847.44" y2="655.40" style="stroke:#C10534;stroke-width:6.48"/>
	<line x1="847.44" y1="626.57" x2="847.44" y2="569.02" style="stroke:#C10534;stroke-width:6.48"/>
	<line x1="847.44" y1="540.19" x2="847.44" y2="482.64" style="stroke:#C10534;stroke-width:6.48"/>
	<line x1="847.44" y1="453.81" x2="847.44" y2="396.26" style="stroke:#C10534;stroke-width:6.48"/>
	<line x1="847.44" y1="367.43" x2="847.44" y2="309.88" style="stroke:#C10534;stroke-width:6.48"/>
	<line x1="847.44" y1="281.05" x2="847.44" y2="269.91" style="stroke:#C10534;stroke-width:6.48"/>
	<circle cx="554.52" cy="456.65" r="14.50" style="fill:#000000"/>
	<circle cx="554.52" cy="456.65" r="11.26" style="fill:none;stroke:#000000;stroke-width:6.48"/>
	<circle cx="847.44" cy="503.18" r="14.50" style="fill:#000000"/>
	<circle cx="847.44" cy="503.18" r="11.26" style="fill:none;stroke:#000000;stroke-width:6.48"/>
	<circle cx="1126.74" cy="549.59" r="14.50" style="fill:#000000"/>
	<circle cx="1126.74" cy="549.59" r="11.26" style="fill:none;stroke:#000000;stroke-width:6.48"/>
	<circle cx="1421.89" cy="596.00" r="14.50" style="fill:#000000"/>
	<circle cx="1421.89" cy="596.00" r="11.26" style="fill:none;stroke:#000000;stroke-width:6.48"/>
	<circle cx="548.96" cy="1106.61" r="14.50" style="fill:#000000"/>
	<circle cx="548.96" cy="1106.61" r="11.26" style="fill:none;stroke:#000000;stroke-width:6.48"/>
	<circle cx="847.44" cy="1153.01" r="14.50" style="fill:#000000"/>
	<circle cx="847.44" cy="1153.01" r="11.26" style="fill:none;stroke:#000000;stroke-width:6.48"/>
	<circle cx="1125.38" cy="1199.42" r="14.50" style="fill:#000000"/>
	<circle cx="1125.38" cy="1199.42" r="11.26" style="fill:none;stroke:#000000;stroke-width:6.48"/>
	<circle cx="1419.54" cy="1245.83" r="14.50" style="fill:#000000"/>
	<circle cx="1419.54" cy="1245.83" r="11.26" style="fill:none;stroke:#000000;stroke-width:6.48"/>
	<circle cx="560.22" cy="1756.44" r="14.50" style="fill:#000000"/>
	<circle cx="560.22" cy="1756.44" r="11.26" style="fill:none;stroke:#000000;stroke-width:6.48"/>
	<circle cx="847.44" cy="1802.85" r="14.50" style="fill:#000000"/>
	<circle cx="847.44" cy="1802.85" r="11.26" style="fill:none;stroke:#000000;stroke-width:6.48"/>
	<circle cx="1122.78" cy="1849.25" r="14.50" style="fill:#000000"/>
	<circle cx="1122.78" cy="1849.25" r="11.26" style="fill:none;stroke:#000000;stroke-width:6.48"/>
	<circle cx="1417.18" cy="1895.66" r="14.50" style="fill:#000000"/>
	<circle cx="1417.18" cy="1895.66" r="11.26" style="fill:none;stroke:#000000;stroke-width:6.48"/>
	<line x1="515.05" y1="456.65" x2="594.25" y2="456.65" style="stroke:#000000;stroke-width:6.48"/>
	<line x1="594.25" y1="473.11" x2="594.25" y2="440.07" stroke-linecap="round" style="stroke:#000000;stroke-width:6.48"/>
	<line x1="515.05" y1="473.11" x2="515.05" y2="440.07" stroke-linecap="round" style="stroke:#000000;stroke-width:6.48"/>
	<line x1="847.44" y1="503.06" x2="847.44" y2="503.06" style="stroke:#000000;stroke-width:6.48"/>
	<line x1="847.44" y1="519.52" x2="847.44" y2="486.48" stroke-linecap="round" style="stroke:#000000;stroke-width:6.48"/>
	<line x1="847.44" y1="519.52" x2="847.44" y2="486.48" stroke-linecap="round" style="stroke:#000000;stroke-width:6.48"/>
	<line x1="1103.60" y1="549.47" x2="1150.01" y2="549.47" style="stroke:#000000;stroke-width:6.48"/>
	<line x1="1150.01" y1="565.93" x2="1150.01" y2="532.88" stroke-linecap="round" style="stroke:#000000;stroke-width:6.48"/>
	<line x1="1103.60" y1="565.93" x2="1103.60" y2="532.88" stroke-linecap="round" style="stroke:#000000;stroke-width:6.48"/>
	<line x1="1400.97" y1="595.87" x2="1442.80" y2="595.87" style="stroke:#000000;stroke-width:6.48"/>
	<line x1="1442.80" y1="612.33" x2="1442.80" y2="579.29" stroke-linecap="round" style="stroke:#000000;stroke-width:6.48"/>
	<line x1="1400.97" y1="612.33" x2="1400.97" y2="579.29" stroke-linecap="round" style="stroke:#000000;stroke-width:6.48"/>
	<line x1="508.49" y1="1106.48" x2="589.54" y2="1106.48" style="stroke:#000000;stroke-width:6.48"/>
	<line x1="589.54" y1="1122.94" x2="589.54" y2="1089.90" stroke-linecap="round" style="stroke:#000000;stroke-width:6.48"/>
	<line x1="508.49" y1="1122.94" x2="508.49" y2="1089.90" stroke-linecap="round" style="stroke:#000000;stroke-width:6.48"/>
	<line x1="847.44" y1="1152.89" x2="847.44" y2="1152.89" style="stroke:#000000;stroke-width:6.48"/>
	<line x1="847.44" y1="1169.35" x2="847.44" y2="1136.31" stroke-linecap="round" style="stroke:#000000;stroke-width:6.48"/>
	<line x1="847.44" y1="1169.35" x2="847.44" y2="1136.31" stroke-linecap="round" style="stroke:#000000;stroke-width:6.48"/>
	<line x1="1101.87" y1="1199.30" x2="1149.02" y2="1199.30" style="stroke:#000000;stroke-width:6.48"/>
	<line x1="1149.02" y1="1215.76" x2="1149.02" y2="1182.72" stroke-linecap="round" style="stroke:#000000;stroke-width:6.48"/>
	<line x1="1101.87" y1="1215.76" x2="1101.87" y2="1182.72" stroke-linecap="round" style="stroke:#000000;stroke-width:6.48"/>
	<line x1="1398.38" y1="1245.71" x2="1440.94" y2="1245.71" style="stroke:#000000;stroke-width:6.48"/>
	<line x1="1440.94" y1="1262.17" x2="1440.94" y2="1229.12" stroke-linecap="round" style="stroke:#000000;stroke-width:6.48"/>
	<line x1="1398.38" y1="1262.17" x2="1398.38" y2="1229.12" stroke-linecap="round" style="stroke:#000000;stroke-width:6.48"/>
	<line x1="523.22" y1="1756.31" x2="597.34" y2="1756.31" style="stroke:#000000;stroke-width:6.48"/>
	<line x1="597.34" y1="1772.77" x2="597.34" y2="1739.73" stroke-linecap="round" style="stroke:#000000;stroke-width:6.48"/>
	<line x1="523.22" y1="1772.77" x2="523.22" y2="1739.73" stroke-linecap="round" style="stroke:#000000;stroke-width:6.48"/>
	<line x1="847.44" y1="1802.72" x2="847.44" y2="1802.72" style="stroke:#000000;stroke-width:6.48"/>
	<line x1="847.44" y1="1819.18" x2="847.44" y2="1786.14" stroke-linecap="round" style="stroke:#000000;stroke-width:6.48"/>
	<line x1="847.44" y1="1819.18" x2="847.44" y2="1786.14" stroke-linecap="round" style="stroke:#000000;stroke-width:6.48"/>
	<line x1="1100.88" y1="1849.13" x2="1144.81" y2="1849.13" style="stroke:#000000;stroke-width:6.48"/>
	<line x1="1144.81" y1="1865.59" x2="1144.81" y2="1832.55" stroke-linecap="round" style="stroke:#000000;stroke-width:6.48"/>
	<line x1="1100.88" y1="1865.59" x2="1100.88" y2="1832.55" stroke-linecap="round" style="stroke:#000000;stroke-width:6.48"/>
	<line x1="1397.38" y1="1895.54" x2="1436.98" y2="1895.54" style="stroke:#000000;stroke-width:6.48"/>
	<line x1="1436.98" y1="1912.00" x2="1436.98" y2="1878.95" stroke-linecap="round" style="stroke:#000000;stroke-width:6.48"/>
	<line x1="1397.38" y1="1912.00" x2="1397.38" y2="1878.95" stroke-linecap="round" style="stroke:#000000;stroke-width:6.48"/>
	<circle cx="595.73" cy="735.22" r="14.50" style="fill:#909090"/>
	<circle cx="595.73" cy="735.22" r="11.26" style="fill:none;stroke:#909090;stroke-width:6.48"/>
	<circle cx="847.44" cy="781.63" r="14.50" style="fill:#909090"/>
	<circle cx="847.44" cy="781.63" r="11.26" style="fill:none;stroke:#909090;stroke-width:6.48"/>
	<circle cx="1101.87" cy="828.04" r="14.50" style="fill:#909090"/>
	<circle cx="1101.87" cy="828.04" r="11.26" style="fill:none;stroke:#909090;stroke-width:6.48"/>
	<circle cx="1358.65" cy="874.44" r="14.50" style="fill:#909090"/>
	<circle cx="1358.65" cy="874.44" r="11.26" style="fill:none;stroke:#909090;stroke-width:6.48"/>
	<circle cx="596.10" cy="1385.05" r="14.50" style="fill:#909090"/>
	<circle cx="596.10" cy="1385.05" r="11.26" style="fill:none;stroke:#909090;stroke-width:6.48"/>
	<circle cx="847.44" cy="1431.46" r="14.50" style="fill:#909090"/>
	<circle cx="847.44" cy="1431.46" r="11.26" style="fill:none;stroke:#909090;stroke-width:6.48"/>
	<circle cx="1102.12" cy="1477.87" r="14.50" style="fill:#909090"/>
	<circle cx="1102.12" cy="1477.87" r="11.26" style="fill:none;stroke:#909090;stroke-width:6.48"/>
	<circle cx="1359.27" cy="1524.28" r="14.50" style="fill:#909090"/>
	<circle cx="1359.27" cy="1524.28" r="11.26" style="fill:none;stroke:#909090;stroke-width:6.48"/>
	<circle cx="595.73" cy="2034.88" r="14.50" style="fill:#909090"/>
	<circle cx="595.73" cy="2034.88" r="11.26" style="fill:none;stroke:#909090;stroke-width:6.48"/>
	<circle cx="847.44" cy="2081.29" r="14.50" style="fill:#909090"/>
	<circle cx="847.44" cy="2081.29" r="11.26" style="fill:none;stroke:#909090;stroke-width:6.48"/>
	<circle cx="1101.99" cy="2127.70" r="14.50" style="fill:#909090"/>
	<circle cx="1101.99" cy="2127.70" r="11.26" style="fill:none;stroke:#909090;stroke-width:6.48"/>
	<circle cx="1358.40" cy="2174.11" r="14.50" style="fill:#909090"/>
	<circle cx="1358.40" cy="2174.11" r="11.26" style="fill:none;stroke:#909090;stroke-width:6.48"/>
	<line x1="584.22" y1="735.10" x2="607.49" y2="735.10" style="stroke:#909090;stroke-width:6.48"/>
	<line x1="607.49" y1="751.56" x2="607.49" y2="718.51" stroke-linecap="round" style="stroke:#909090;stroke-width:6.48"/>
	<line x1="584.22" y1="751.56" x2="584.22" y2="718.51" stroke-linecap="round" style="stroke:#909090;stroke-width:6.48"/>
	<line x1="847.44" y1="781.63" x2="847.44" y2="781.63" style="stroke:#909090;stroke-width:6.48"/>
	<line x1="847.44" y1="798.09" x2="847.44" y2="765.05" stroke-linecap="round" style="stroke:#909090;stroke-width:6.48"/>
	<line x1="847.44" y1="798.09" x2="847.44" y2="765.05" stroke-linecap="round" style="stroke:#909090;stroke-width:6.48"/>
	<line x1="1094.57" y1="828.04" x2="1109.30" y2="828.04" style="stroke:#909090;stroke-width:6.48"/>
	<line x1="1109.30" y1="844.50" x2="1109.30" y2="811.45" stroke-linecap="round" style="stroke:#909090;stroke-width:6.48"/>
	<line x1="1094.57" y1="844.50" x2="1094.57" y2="811.45" stroke-linecap="round" style="stroke:#909090;stroke-width:6.48"/>
	<line x1="1352.09" y1="874.44" x2="1365.46" y2="874.44" style="stroke:#909090;stroke-width:6.48"/>
	<line x1="1365.46" y1="890.90" x2="1365.46" y2="857.86" stroke-linecap="round" style="stroke:#909090;stroke-width:6.48"/>
	<line x1="1352.09" y1="890.90" x2="1352.09" y2="857.86" stroke-linecap="round" style="stroke:#909090;stroke-width:6.48"/>
	<line x1="584.47" y1="1385.05" x2="607.74" y2="1385.05" style="stroke:#909090;stroke-width:6.48"/>
	<line x1="607.74" y1="1401.51" x2="607.74" y2="1368.47" stroke-linecap="round" style="stroke:#909090;stroke-width:6.48"/>
	<line x1="584.47" y1="1401.51" x2="584.47" y2="1368.47" stroke-linecap="round" style="stroke:#909090;stroke-width:6.48"/>
	<line x1="847.44" y1="1431.46" x2="847.44" y2="1431.46" style="stroke:#909090;stroke-width:6.48"/>
	<line x1="847.44" y1="1447.92" x2="847.44" y2="1414.88" stroke-linecap="round" style="stroke:#909090;stroke-width:6.48"/>
	<line x1="847.44" y1="1447.92" x2="847.44" y2="1414.88" stroke-linecap="round" style="stroke:#909090;stroke-width:6.48"/>
	<line x1="1094.82" y1="1477.87" x2="1109.54" y2="1477.87" style="stroke:#909090;stroke-width:6.48"/>
	<line x1="1109.54" y1="1494.33" x2="1109.54" y2="1461.29" stroke-linecap="round" style="stroke:#909090;stroke-width:6.48"/>
	<line x1="1094.82" y1="1494.33" x2="1094.82" y2="1461.29" stroke-linecap="round" style="stroke:#909090;stroke-width:6.48"/>
	<line x1="1352.59" y1="1524.28" x2="1365.95" y2="1524.28" style="stroke:#909090;stroke-width:6.48"/>
	<line x1="1365.95" y1="1540.74" x2="1365.95" y2="1507.69" stroke-linecap="round" style="stroke:#909090;stroke-width:6.48"/>
	<line x1="1352.59" y1="1540.74" x2="1352.59" y2="1507.69" stroke-linecap="round" style="stroke:#909090;stroke-width:6.48"/>
	<line x1="583.98" y1="2034.88" x2="607.49" y2="2034.88" style="stroke:#909090;stroke-width:6.48"/>
	<line x1="607.49" y1="2051.34" x2="607.49" y2="2018.30" stroke-linecap="round" style="stroke:#909090;stroke-width:6.48"/>
	<line x1="583.98" y1="2051.34" x2="583.98" y2="2018.30" stroke-linecap="round" style="stroke:#909090;stroke-width:6.48"/>
	<line x1="847.44" y1="2081.29" x2="847.44" y2="2081.29" style="stroke:#909090;stroke-width:6.48"/>
	<line x1="847.44" y1="2097.75" x2="847.44" y2="2064.71" stroke-linecap="round" style="stroke:#909090;stroke-width:6.48"/>
	<line x1="847.44" y1="2097.75" x2="847.44" y2="2064.71" stroke-linecap="round" style="stroke:#909090;stroke-width:6.48"/>
	<line x1="1094.69" y1="2127.70" x2="1109.42" y2="2127.70" style="stroke:#909090;stroke-width:6.48"/>
	<line x1="1109.42" y1="2144.16" x2="1109.42" y2="2111.12" stroke-linecap="round" style="stroke:#909090;stroke-width:6.48"/>
	<line x1="1094.69" y1="2144.16" x2="1094.69" y2="2111.12" stroke-linecap="round" style="stroke:#909090;stroke-width:6.48"/>
	<line x1="1351.72" y1="2174.11" x2="1365.21" y2="2174.11" style="stroke:#909090;stroke-width:6.48"/>
	<line x1="1365.21" y1="2190.57" x2="1365.21" y2="2157.52" stroke-linecap="round" style="stroke:#909090;stroke-width:6.48"/>
	<line x1="1351.72" y1="2190.57" x2="1351.72" y2="2157.52" stroke-linecap="round" style="stroke:#909090;stroke-width:6.48"/>
	<text x="1489.58" y="374.35" style="font-family:'Helvetica';font-size:29.95px;fill:#000000">PRIMARY ANALYSIS</text>
	<text x="1489.58" y="1024.18" style="font-family:'Helvetica';font-size:29.95px;fill:#000000">CONFIRMED COVID</text>
	<text x="1489.58" y="1674.01" style="font-family:'Helvetica';font-size:29.95px;fill:#000000">ANY COVID ON DC</text>
	<text x="240.57" y="420.76" style="font-family:'Helvetica';font-size:29.95px;fill:#404040">18-39</text>
	<text x="240.57" y="467.16" style="font-family:'Helvetica';font-size:29.95px;fill:#404040">40-49</text>
	<text x="240.57" y="513.57" style="font-family:'Helvetica';font-size:29.95px;fill:#404040">50-59 (ref)</text>
	<text x="240.57" y="559.98" style="font-family:'Helvetica';font-size:29.95px;fill:#404040">60-69</text>
	<text x="240.57" y="606.39" style="font-family:'Helvetica';font-size:29.95px;fill:#404040">70-79</text>
	<text x="240.57" y="652.80" style="font-family:'Helvetica';font-size:29.95px;fill:#404040">80+</text>
	<text x="240.57" y="699.20" style="font-family:'Helvetica';font-size:29.95px;fill:#404040">18-39</text>
	<text x="240.57" y="745.61" style="font-family:'Helvetica';font-size:29.95px;fill:#404040">40-49</text>
	<text x="240.57" y="792.14" style="font-family:'Helvetica';font-size:29.95px;fill:#404040">50-59 (ref)</text>
	<text x="240.57" y="838.55" style="font-family:'Helvetica';font-size:29.95px;fill:#404040">60-69</text>
	<text x="240.57" y="884.96" style="font-family:'Helvetica';font-size:29.95px;fill:#404040">70-79</text>
	<text x="240.57" y="931.37" style="font-family:'Helvetica';font-size:29.95px;fill:#404040">80+</text>
	<text x="240.57" y="1070.59" style="font-family:'Helvetica';font-size:29.95px;fill:#404040">18-39</text>
	<text x="240.57" y="1117.00" style="font-family:'Helvetica';font-size:29.95px;fill:#404040">40-49</text>
	<text x="240.57" y="1163.40" style="font-family:'Helvetica';font-size:29.95px;fill:#404040">50-59 (ref)</text>
	<text x="240.57" y="1209.81" style="font-family:'Helvetica';font-size:29.95px;fill:#404040">60-69</text>
	<text x="240.57" y="1256.22" style="font-family:'Helvetica';font-size:29.95px;fill:#404040">70-79</text>
	<text x="240.57" y="1302.63" style="font-family:'Helvetica';font-size:29.95px;fill:#404040">80+</text>
	<text x="240.57" y="1349.03" style="font-family:'Helvetica';font-size:29.95px;fill:#404040">18-39</text>
	<text x="240.57" y="1395.57" style="font-family:'Helvetica';font-size:29.95px;fill:#404040">40-49</text>
	<text x="240.57" y="1441.97" style="font-family:'Helvetica';font-size:29.95px;fill:#404040">50-59 (ref)</text>
	<text x="240.57" y="1488.38" style="font-family:'Helvetica';font-size:29.95px;fill:#404040">60-69</text>
	<text x="240.57" y="1534.79" style="font-family:'Helvetica';font-size:29.95px;fill:#404040">70-79</text>
	<text x="240.57" y="1581.20" style="font-family:'Helvetica';font-size:29.95px;fill:#404040">80+</text>
	<text x="240.57" y="1720.42" style="font-family:'Helvetica';font-size:29.95px;fill:#404040">18-39</text>
	<text x="240.57" y="1766.83" style="font-family:'Helvetica';font-size:29.95px;fill:#404040">40-49</text>
	<text x="240.57" y="1813.24" style="font-family:'Helvetica';font-size:29.95px;fill:#404040">50-59 (ref)</text>
	<text x="240.57" y="1859.64" style="font-family:'Helvetica';font-size:29.95px;fill:#404040">60-69</text>
	<text x="240.57" y="1906.05" style="font-family:'Helvetica';font-size:29.95px;fill:#404040">70-79</text>
	<text x="240.57" y="1952.46" style="font-family:'Helvetica';font-size:29.95px;fill:#404040">80+</text>
	<text x="240.57" y="1998.99" style="font-family:'Helvetica';font-size:29.95px;fill:#404040">18-39</text>
	<text x="240.57" y="2045.40" style="font-family:'Helvetica';font-size:29.95px;fill:#404040">40-49</text>
	<text x="240.57" y="2091.81" style="font-family:'Helvetica';font-size:29.95px;fill:#404040">50-59 (ref)</text>
	<text x="240.57" y="2138.21" style="font-family:'Helvetica';font-size:29.95px;fill:#404040">60-69</text>
	<text x="240.57" y="2184.62" style="font-family:'Helvetica';font-size:29.95px;fill:#404040">70-79</text>
	<text x="240.57" y="2231.03" style="font-family:'Helvetica';font-size:29.95px;fill:#404040">80+</text>
	<text x="375.95" y="420.76" style="font-family:'Helvetica';font-size:29.95px;fill:#000000">&lt;&lt;&lt;</text>
	<text x="375.95" y="699.20" style="font-family:'Helvetica';font-size:29.95px;fill:#000000">&lt;&lt;&lt;</text>
	<text x="375.95" y="1070.59" style="font-family:'Helvetica';font-size:29.95px;fill:#000000">&lt;&lt;&lt;</text>
	<text x="375.95" y="1349.03" style="font-family:'Helvetica';font-size:29.95px;fill:#000000">&lt;&lt;&lt;</text>
	<text x="375.95" y="1720.42" style="font-family:'Helvetica';font-size:29.95px;fill:#000000">&lt;&lt;&lt;</text>
	<text x="375.95" y="1998.99" style="font-family:'Helvetica';font-size:29.95px;fill:#000000">&lt;&lt;&lt;</text>
	<text x="1489.58" y="420.76" style="font-family:'Helvetica';font-size:29.95px;fill:#000000">0.05 (0.04-0.07)</text>
	<text x="1489.58" y="467.16" style="font-family:'Helvetica';font-size:29.95px;fill:#000000">0.33 (0.29-0.38)</text>
	<text x="1489.58" y="513.57" style="font-family:'Helvetica';font-size:29.95px;fill:#000000">1.00 (REF)</text>
	<text x="1489.58" y="559.98" style="font-family:'Helvetica';font-size:29.95px;fill:#000000">2.87 (2.63-3.13)</text>
	<text x="1489.58" y="606.39" style="font-family:'Helvetica';font-size:29.95px;fill:#000000">8.73 (8.06-9.44)</text>
	<text x="1489.58" y="652.80" style="font-family:'Helvetica';font-size:29.95px;fill:#000000">&gt;&gt;&gt; 40.66 (37.71-43.83)</text>
	<text x="1489.58" y="699.20" style="font-family:'Helvetica';font-size:29.95px;fill:#000000">0.09 (0.09-0.10)</text>
	<text x="1489.58" y="745.61" style="font-family:'Helvetica';font-size:29.95px;fill:#000000">0.39 (0.37-0.40)</text>
	<text x="1489.58" y="792.14" style="font-family:'Helvetica';font-size:29.95px;fill:#000000">1.00 (REF)</text>
	<text x="1489.58" y="838.55" style="font-family:'Helvetica';font-size:29.95px;fill:#000000">2.61 (2.54-2.68)</text>
	<text x="1489.58" y="884.96" style="font-family:'Helvetica';font-size:29.95px;fill:#000000">6.88 (6.71-7.05)</text>
	<text x="1489.58" y="931.37" style="font-family:'Helvetica';font-size:29.95px;fill:#000000">&gt;&gt;&gt; 29.64 (28.94-30.36)</text>
	<text x="1489.58" y="1070.59" style="font-family:'Helvetica';font-size:29.95px;fill:#000000">0.05 (0.04-0.06)</text>
	<text x="1489.58" y="1117.00" style="font-family:'Helvetica';font-size:29.95px;fill:#000000">0.32 (0.28-0.38)</text>
	<text x="1489.58" y="1163.40" style="font-family:'Helvetica';font-size:29.95px;fill:#000000">1.00 (REF)</text>
	<text x="1489.58" y="1209.81" style="font-family:'Helvetica';font-size:29.95px;fill:#000000">2.85 (2.61-3.12)</text>
	<text x="1489.58" y="1256.22" style="font-family:'Helvetica';font-size:29.95px;fill:#000000">8.65 (7.98-9.38)</text>
	<text x="1489.58" y="1302.63" style="font-family:'Helvetica';font-size:29.95px;fill:#000000">&gt;&gt;&gt; 39.11 (36.23-42.22)</text>
	<text x="1489.58" y="1349.03" style="font-family:'Helvetica';font-size:29.95px;fill:#000000">0.09 (0.09-0.10)</text>
	<text x="1489.58" y="1395.57" style="font-family:'Helvetica';font-size:29.95px;fill:#000000">0.39 (0.37-0.40)</text>
	<text x="1489.58" y="1441.97" style="font-family:'Helvetica';font-size:29.95px;fill:#000000">1.00 (REF)</text>
	<text x="1489.58" y="1488.38" style="font-family:'Helvetica';font-size:29.95px;fill:#000000">2.61 (2.54-2.69)</text>
	<text x="1489.58" y="1534.79" style="font-family:'Helvetica';font-size:29.95px;fill:#000000">6.89 (6.72-7.07)</text>
	<text x="1489.58" y="1581.20" style="font-family:'Helvetica';font-size:29.95px;fill:#000000">&gt;&gt;&gt; 29.86 (29.15-30.58)</text>
	<text x="1489.58" y="1720.42" style="font-family:'Helvetica';font-size:29.95px;fill:#000000">0.05 (0.04-0.07)</text>
	<text x="1489.58" y="1766.83" style="font-family:'Helvetica';font-size:29.95px;fill:#000000">0.34 (0.29-0.39)</text>
	<text x="1489.58" y="1813.24" style="font-family:'Helvetica';font-size:29.95px;fill:#000000">1.00 (REF)</text>
	<text x="1489.58" y="1859.64" style="font-family:'Helvetica';font-size:29.95px;fill:#000000">2.83 (2.60-3.07)</text>
	<text x="1489.58" y="1906.05" style="font-family:'Helvetica';font-size:29.95px;fill:#000000">8.57 (7.96-9.24)</text>
	<text x="1489.58" y="1952.46" style="font-family:'Helvetica';font-size:29.95px;fill:#000000">&gt;&gt;&gt; 39.23 (36.54-42.12)</text>
	<text x="1489.58" y="1998.99" style="font-family:'Helvetica';font-size:29.95px;fill:#000000">0.09 (0.09-0.10)</text>
	<text x="1489.58" y="2045.40" style="font-family:'Helvetica';font-size:29.95px;fill:#000000">0.39 (0.37-0.40)</text>
	<text x="1489.58" y="2091.81" style="font-family:'Helvetica';font-size:29.95px;fill:#000000">1.00 (REF)</text>
	<text x="1489.58" y="2138.21" style="font-family:'Helvetica';font-size:29.95px;fill:#000000">2.61 (2.54-2.69)</text>
	<text x="1489.58" y="2184.62" style="font-family:'Helvetica';font-size:29.95px;fill:#000000">6.87 (6.70-7.05)</text>
	<text x="1489.58" y="2231.03" style="font-family:'Helvetica';font-size:29.95px;fill:#000000">&gt;&gt;&gt; 29.63 (28.92-30.35)</text>
	<line x1="161.49" y1="2268.04" x2="161.49" y2="269.91" style="stroke:#000000;stroke-width:4.32"/>
	<line x1="161.49" y1="2268.04" x2="1904.39" y2="2268.04" style="stroke:#000000;stroke-width:4.32"/>
	<line x1="479.90" y1="2268.04" x2="479.90" y2="2297.99" style="stroke:#000000;stroke-width:4.32"/>
	<text x="479.90" y="2365.52" style="font-family:'Helvetica';font-size:74.99px;fill:#000000" text-anchor="middle">.25</text>
	<line x1="663.67" y1="2268.04" x2="663.67" y2="2297.99" style="stroke:#000000;stroke-width:4.32"/>
	<text x="663.67" y="2365.52" style="font-family:'Helvetica';font-size:74.99px;fill:#000000" text-anchor="middle">.5</text>
	<line x1="847.44" y1="2268.04" x2="847.44" y2="2297.99" style="stroke:#000000;stroke-width:4.32"/>
	<text x="847.44" y="2365.52" style="font-family:'Helvetica';font-size:74.99px;fill:#000000" text-anchor="middle">1</text>
	<line x1="1031.21" y1="2268.04" x2="1031.21" y2="2297.99" style="stroke:#000000;stroke-width:4.32"/>
	<text x="1031.21" y="2365.52" style="font-family:'Helvetica';font-size:74.99px;fill:#000000" text-anchor="middle">2</text>
	<line x1="1274.25" y1="2268.04" x2="1274.25" y2="2297.99" style="stroke:#000000;stroke-width:4.32"/>
	<text x="1274.25" y="2365.52" style="font-family:'Helvetica';font-size:74.99px;fill:#000000" text-anchor="middle">5</text>
	<line x1="1458.02" y1="2268.04" x2="1458.02" y2="2297.99" style="stroke:#000000;stroke-width:4.32"/>
	<text x="1458.02" y="2365.52" style="font-family:'Helvetica';font-size:74.99px;fill:#000000" text-anchor="middle">10</text>
	<text x="1032.94" y="2447.94" style="font-family:'Helvetica';font-size:74.99px;fill:#000000" text-anchor="middle">HR and 95% CI</text>
	<text x="1032.94" y="225.37" style="font-family:'Helvetica';font-size:104.94px;fill:#1E2D53" text-anchor="middle">Age group</text>
	<rect x="1980.00" y="63.36" width="1916.52" height="2497.72" style="fill:#EAF2F3"/>
	<rect x="1982.16" y="65.52" width="1912.20" height="2493.40" style="fill:none;stroke:#EAF2F3;stroke-width:4.32"/>
	<rect x="2078.01" y="269.91" width="1742.89" height="1998.13" style="fill:#FFFFFF"/>
	<rect x="2080.17" y="272.07" width="1738.58" height="1993.81" style="fill:none;stroke:#FFFFFF;stroke-width:4.32"/>
	<line x1="2764.08" y1="2268.04" x2="2764.08" y2="2210.49" style="stroke:#C10534;stroke-width:6.48"/>
	<line x1="2764.08" y1="2181.66" x2="2764.08" y2="2123.99" style="stroke:#C10534;stroke-width:6.48"/>
	<line x1="2764.08" y1="2095.28" x2="2764.08" y2="2037.61" style="stroke:#C10534;stroke-width:6.48"/>
	<line x1="2764.08" y1="2008.77" x2="2764.08" y2="1951.23" style="stroke:#C10534;stroke-width:6.48"/>
	<line x1="2764.08" y1="1922.39" x2="2764.08" y2="1864.85" style="stroke:#C10534;stroke-width:6.48"/>
	<line x1="2764.08" y1="1836.01" x2="2764.08" y2="1778.47" style="stroke:#C10534;stroke-width:6.48"/>
	<line x1="2764.08" y1="1749.63" x2="2764.08" y2="1692.09" style="stroke:#C10534;stroke-width:6.48"/>
	<line x1="2764.08" y1="1663.25" x2="2764.08" y2="1605.71" style="stroke:#C10534;stroke-width:6.48"/>
	<line x1="2764.08" y1="1576.87" x2="2764.08" y2="1519.33" style="stroke:#C10534;stroke-width:6.48"/>
	<line x1="2764.08" y1="1490.49" x2="2764.08" y2="1432.95" style="stroke:#C10534;stroke-width:6.48"/>
	<line x1="2764.08" y1="1404.11" x2="2764.08" y2="1346.57" style="stroke:#C10534;stroke-width:6.48"/>
	<line x1="2764.08" y1="1317.73" x2="2764.08" y2="1260.19" style="stroke:#C10534;stroke-width:6.48"/>
	<line x1="2764.08" y1="1231.35" x2="2764.08" y2="1173.68" style="stroke:#C10534;stroke-width:6.48"/>
	<line x1="2764.08" y1="1144.97" x2="2764.08" y2="1087.30" style="stroke:#C10534;stroke-width:6.48"/>
	<line x1="2764.08" y1="1058.47" x2="2764.08" y2="1000.92" style="stroke:#C10534;stroke-width:6.48"/>
	<line x1="2764.08" y1="972.09" x2="2764.08" y2="914.54" style="stroke:#C10534;stroke-width:6.48"/>
	<line x1="2764.08" y1="885.71" x2="2764.08" y2="828.16" style="stroke:#C10534;stroke-width:6.48"/>
	<line x1="2764.08" y1="799.33" x2="2764.08" y2="741.78" style="stroke:#C10534;stroke-width:6.48"/>
	<line x1="2764.08" y1="712.95" x2="2764.08" y2="655.40" style="stroke:#C10534;stroke-width:6.48"/>
	<line x1="2764.08" y1="626.57" x2="2764.08" y2="569.02" style="stroke:#C10534;stroke-width:6.48"/>
	<line x1="2764.08" y1="540.19" x2="2764.08" y2="482.64" style="stroke:#C10534;stroke-width:6.48"/>
	<line x1="2764.08" y1="453.81" x2="2764.08" y2="396.26" style="stroke:#C10534;stroke-width:6.48"/>
	<line x1="2764.08" y1="367.43" x2="2764.08" y2="309.88" style="stroke:#C10534;stroke-width:6.48"/>
	<line x1="2764.08" y1="281.05" x2="2764.08" y2="269.91" style="stroke:#C10534;stroke-width:6.48"/>
	<circle cx="2763.96" cy="541.30" r="14.50" style="fill:#000000"/>
	<circle cx="2763.96" cy="541.30" r="11.26" style="fill:none;stroke:#000000;stroke-width:6.48"/>
	<circle cx="2907.75" cy="653.30" r="14.50" style="fill:#000000"/>
	<circle cx="2907.75" cy="653.30" r="11.26" style="fill:none;stroke:#000000;stroke-width:6.48"/>
	<circle cx="2763.96" cy="1213.04" r="14.50" style="fill:#000000"/>
	<circle cx="2763.96" cy="1213.04" r="11.26" style="fill:none;stroke:#000000;stroke-width:6.48"/>
	<circle cx="2913.94" cy="1325.03" r="14.50" style="fill:#000000"/>
	<circle cx="2913.94" cy="1325.03" r="11.26" style="fill:none;stroke:#000000;stroke-width:6.48"/>
	<circle cx="2763.96" cy="1884.77" r="14.50" style="fill:#000000"/>
	<circle cx="2763.96" cy="1884.77" r="11.26" style="fill:none;stroke:#000000;stroke-width:6.48"/>
	<circle cx="2905.28" cy="1996.64" r="14.50" style="fill:#000000"/>
	<circle cx="2905.28" cy="1996.64" r="11.26" style="fill:none;stroke:#000000;stroke-width:6.48"/>
	<line x1="2764.08" y1="541.30" x2="2764.08" y2="541.30" style="stroke:#000000;stroke-width:6.48"/>
	<line x1="2764.08" y1="557.76" x2="2764.08" y2="524.72" stroke-linecap="round" style="stroke:#000000;stroke-width:6.48"/>
	<line x1="2764.08" y1="557.76" x2="2764.08" y2="524.72" stroke-linecap="round" style="stroke:#000000;stroke-width:6.48"/>
	<line x1="2899.71" y1="653.30" x2="2915.92" y2="653.30" style="stroke:#000000;stroke-width:6.48"/>
	<line x1="2915.92" y1="669.76" x2="2915.92" y2="636.71" stroke-linecap="round" style="stroke:#000000;stroke-width:6.48"/>
	<line x1="2899.71" y1="669.76" x2="2899.71" y2="636.71" stroke-linecap="round" style="stroke:#000000;stroke-width:6.48"/>
	<line x1="2764.08" y1="1213.04" x2="2764.08" y2="1213.04" style="stroke:#000000;stroke-width:6.48"/>
	<line x1="2764.08" y1="1229.49" x2="2764.08" y2="1196.45" stroke-linecap="round" style="stroke:#000000;stroke-width:6.48"/>
	<line x1="2764.08" y1="1229.49" x2="2764.08" y2="1196.45" stroke-linecap="round" style="stroke:#000000;stroke-width:6.48"/>
	<line x1="2905.65" y1="1324.91" x2="2922.36" y2="1324.91" style="stroke:#000000;stroke-width:6.48"/>
	<line x1="2922.36" y1="1341.37" x2="2922.36" y2="1308.33" stroke-linecap="round" style="stroke:#000000;stroke-width:6.48"/>
	<line x1="2905.65" y1="1341.37" x2="2905.65" y2="1308.33" stroke-linecap="round" style="stroke:#000000;stroke-width:6.48"/>
	<line x1="2764.08" y1="1884.65" x2="2764.08" y2="1884.65" style="stroke:#000000;stroke-width:6.48"/>
	<line x1="2764.08" y1="1901.11" x2="2764.08" y2="1868.06" stroke-linecap="round" style="stroke:#000000;stroke-width:6.48"/>
	<line x1="2764.08" y1="1901.11" x2="2764.08" y2="1868.06" stroke-linecap="round" style="stroke:#000000;stroke-width:6.48"/>
	<line x1="2897.48" y1="1996.64" x2="2913.07" y2="1996.64" style="stroke:#000000;stroke-width:6.48"/>
	<line x1="2913.07" y1="2013.10" x2="2913.07" y2="1980.06" stroke-linecap="round" style="stroke:#000000;stroke-width:6.48"/>
	<line x1="2897.48" y1="2013.10" x2="2897.48" y2="1980.06" stroke-linecap="round" style="stroke:#000000;stroke-width:6.48"/>
	<circle cx="2763.96" cy="765.29" r="14.50" style="fill:#909090"/>
	<circle cx="2763.96" cy="765.29" r="11.26" style="fill:none;stroke:#909090;stroke-width:6.48"/>
	<circle cx="2840.93" cy="877.17" r="14.50" style="fill:#909090"/>
	<circle cx="2840.93" cy="877.17" r="11.26" style="fill:none;stroke:#909090;stroke-width:6.48"/>
	<circle cx="2763.96" cy="1436.91" r="14.50" style="fill:#909090"/>
	<circle cx="2763.96" cy="1436.91" r="11.26" style="fill:none;stroke:#909090;stroke-width:6.48"/>
	<circle cx="2840.80" cy="1548.90" r="14.50" style="fill:#909090"/>
	<circle cx="2840.80" cy="1548.90" r="11.26" style="fill:none;stroke:#909090;stroke-width:6.48"/>
	<circle cx="2763.96" cy="2108.64" r="14.50" style="fill:#909090"/>
	<circle cx="2763.96" cy="2108.64" r="11.26" style="fill:none;stroke:#909090;stroke-width:6.48"/>
	<circle cx="2840.43" cy="2220.52" r="14.50" style="fill:#909090"/>
	<circle cx="2840.43" cy="2220.52" r="11.26" style="fill:none;stroke:#909090;stroke-width:6.48"/>
	<line x1="2764.08" y1="765.17" x2="2764.08" y2="765.17" style="stroke:#909090;stroke-width:6.48"/>
	<line x1="2764.08" y1="781.63" x2="2764.08" y2="748.59" stroke-linecap="round" style="stroke:#909090;stroke-width:6.48"/>
	<line x1="2764.08" y1="781.63" x2="2764.08" y2="748.59" stroke-linecap="round" style="stroke:#909090;stroke-width:6.48"/>
	<line x1="2838.08" y1="877.17" x2="2843.90" y2="877.17" style="stroke:#909090;stroke-width:6.48"/>
	<line x1="2843.90" y1="893.63" x2="2843.90" y2="860.58" stroke-linecap="round" style="stroke:#909090;stroke-width:6.48"/>
	<line x1="2838.08" y1="893.63" x2="2838.08" y2="860.58" stroke-linecap="round" style="stroke:#909090;stroke-width:6.48"/>
	<line x1="2764.08" y1="1436.91" x2="2764.08" y2="1436.91" style="stroke:#909090;stroke-width:6.48"/>
	<line x1="2764.08" y1="1453.37" x2="2764.08" y2="1420.32" stroke-linecap="round" style="stroke:#909090;stroke-width:6.48"/>
	<line x1="2764.08" y1="1453.37" x2="2764.08" y2="1420.32" stroke-linecap="round" style="stroke:#909090;stroke-width:6.48"/>
	<line x1="2837.84" y1="1548.78" x2="2843.78" y2="1548.78" style="stroke:#909090;stroke-width:6.48"/>
	<line x1="2843.78" y1="1565.24" x2="2843.78" y2="1532.20" stroke-linecap="round" style="stroke:#909090;stroke-width:6.48"/>
	<line x1="2837.84" y1="1565.24" x2="2837.84" y2="1532.20" stroke-linecap="round" style="stroke:#909090;stroke-width:6.48"/>
	<line x1="2764.08" y1="2108.52" x2="2764.08" y2="2108.52" style="stroke:#909090;stroke-width:6.48"/>
	<line x1="2764.08" y1="2124.98" x2="2764.08" y2="2091.94" stroke-linecap="round" style="stroke:#909090;stroke-width:6.48"/>
	<line x1="2764.08" y1="2124.98" x2="2764.08" y2="2091.94" stroke-linecap="round" style="stroke:#909090;stroke-width:6.48"/>
	<line x1="2837.46" y1="2220.52" x2="2843.40" y2="2220.52" style="stroke:#909090;stroke-width:6.48"/>
	<line x1="2843.40" y1="2236.97" x2="2843.40" y2="2203.93" stroke-linecap="round" style="stroke:#909090;stroke-width:6.48"/>
	<line x1="2837.46" y1="2236.97" x2="2837.46" y2="2203.93" stroke-linecap="round" style="stroke:#909090;stroke-width:6.48"/>
	<text x="3406.09" y="439.82" style="font-family:'Helvetica';font-size:29.95px;fill:#000000">PRIMARY ANALYSIS</text>
	<text x="3406.09" y="1111.55" style="font-family:'Helvetica';font-size:29.95px;fill:#000000">CONFIRMED COVID</text>
	<text x="3406.09" y="1783.29" style="font-family:'Helvetica';font-size:29.95px;fill:#000000">ANY COVID ON DC</text>
	<text x="2157.09" y="551.81" style="font-family:'Helvetica';font-size:29.95px;fill:#404040">Female (ref)</text>
	<text x="2157.09" y="663.81" style="font-family:'Helvetica';font-size:29.95px;fill:#404040">Male</text>
	<text x="2157.09" y="775.68" style="font-family:'Helvetica';font-size:29.95px;fill:#404040">Female (ref)</text>
	<text x="2157.09" y="887.68" style="font-family:'Helvetica';font-size:29.95px;fill:#404040">Male</text>
	<text x="2157.09" y="1223.55" style="font-family:'Helvetica';font-size:29.95px;fill:#404040">Female (ref)</text>
	<text x="2157.09" y="1335.42" style="font-family:'Helvetica';font-size:29.95px;fill:#404040">Male</text>
	<text x="2157.09" y="1447.42" style="font-family:'Helvetica';font-size:29.95px;fill:#404040">Female (ref)</text>
	<text x="2157.09" y="1559.29" style="font-family:'Helvetica';font-size:29.95px;fill:#404040">Male</text>
	<text x="2157.09" y="1895.16" style="font-family:'Helvetica';font-size:29.95px;fill:#404040">Female (ref)</text>
	<text x="2157.09" y="2007.16" style="font-family:'Helvetica';font-size:29.95px;fill:#404040">Male</text>
	<text x="2157.09" y="2119.03" style="font-family:'Helvetica';font-size:29.95px;fill:#404040">Female (ref)</text>
	<text x="2157.09" y="2231.03" style="font-family:'Helvetica';font-size:29.95px;fill:#404040">Male</text>
	<text x="3406.09" y="551.81" style="font-family:'Helvetica';font-size:29.95px;fill:#000000">1.00 (REF)</text>
	<text x="3406.09" y="663.81" style="font-family:'Helvetica';font-size:29.95px;fill:#000000">1.72 (1.67-1.77)</text>
	<text x="3406.09" y="775.68" style="font-family:'Helvetica';font-size:29.95px;fill:#000000">1.00 (REF)</text>
	<text x="3406.09" y="887.68" style="font-family:'Helvetica';font-size:29.95px;fill:#000000">1.34 (1.32-1.35)</text>
	<text x="3406.09" y="1223.55" style="font-family:'Helvetica';font-size:29.95px;fill:#000000">1.00 (REF)</text>
	<text x="3406.09" y="1335.42" style="font-family:'Helvetica';font-size:29.95px;fill:#000000">1.76 (1.71-1.82)</text>
	<text x="3406.09" y="1447.42" style="font-family:'Helvetica';font-size:29.95px;fill:#000000">1.00 (REF)</text>
	<text x="3406.09" y="1559.29" style="font-family:'Helvetica';font-size:29.95px;fill:#000000">1.34 (1.32-1.35)</text>
	<text x="3406.09" y="1895.16" style="font-family:'Helvetica';font-size:29.95px;fill:#000000">1.00 (REF)</text>
	<text x="3406.09" y="2007.16" style="font-family:'Helvetica';font-size:29.95px;fill:#000000">1.70 (1.65-1.75)</text>
	<text x="3406.09" y="2119.03" style="font-family:'Helvetica';font-size:29.95px;fill:#000000">1.00 (REF)</text>
	<text x="3406.09" y="2231.03" style="font-family:'Helvetica';font-size:29.95px;fill:#000000">1.33 (1.32-1.35)</text>
	<line x1="2078.01" y1="2268.04" x2="2078.01" y2="269.91" style="stroke:#000000;stroke-width:4.32"/>
	<line x1="2078.01" y1="2268.04" x2="3820.91" y2="2268.04" style="stroke:#000000;stroke-width:4.32"/>
	<line x1="2396.42" y1="2268.04" x2="2396.42" y2="2297.99" style="stroke:#000000;stroke-width:4.32"/>
	<text x="2396.42" y="2365.52" style="font-family:'Helvetica';font-size:74.99px;fill:#000000" text-anchor="middle">.25</text>
	<line x1="2580.19" y1="2268.04" x2="2580.19" y2="2297.99" style="stroke:#000000;stroke-width:4.32"/>
	<text x="2580.19" y="2365.52" style="font-family:'Helvetica';font-size:74.99px;fill:#000000" text-anchor="middle">.5</text>
	<line x1="2764.08" y1="2268.04" x2="2764.08" y2="2297.99" style="stroke:#000000;stroke-width:4.32"/>
	<text x="2764.08" y="2365.52" style="font-family:'Helvetica';font-size:74.99px;fill:#000000" text-anchor="middle">1</text>
	<line x1="2947.85" y1="2268.04" x2="2947.85" y2="2297.99" style="stroke:#000000;stroke-width:4.32"/>
	<text x="2947.85" y="2365.52" style="font-family:'Helvetica';font-size:74.99px;fill:#000000" text-anchor="middle">2</text>
	<line x1="3190.77" y1="2268.04" x2="3190.77" y2="2297.99" style="stroke:#000000;stroke-width:4.32"/>
	<text x="3190.77" y="2365.52" style="font-family:'Helvetica';font-size:74.99px;fill:#000000" text-anchor="middle">5</text>
	<line x1="3374.54" y1="2268.04" x2="3374.54" y2="2297.99" style="stroke:#000000;stroke-width:4.32"/>
	<text x="3374.54" y="2365.52" style="font-family:'Helvetica';font-size:74.99px;fill:#000000" text-anchor="middle">10</text>
	<text x="2949.46" y="2447.94" style="font-family:'Helvetica';font-size:74.99px;fill:#000000" text-anchor="middle">HR and 95% CI</text>
	<text x="2949.46" y="225.37" style="font-family:'Helvetica';font-size:104.94px;fill:#1E2D53" text-anchor="middle">Sex</text>
	<rect x="970.32" y="2595.74" width="2019.23" height="186.37" style="fill:#FFFFFF"/>
	<rect x="973.20" y="2598.62" width="2013.47" height="180.61" style="fill:none;stroke:#000000;stroke-width:5.76"/>
	<circle cx="1028.49" cy="2688.92" r="19.29" style="fill:#000000"/>
	<circle cx="1028.49" cy="2688.92" r="14.97" style="fill:none;stroke:#000000;stroke-width:8.64"/>
	<circle cx="2028.51" cy="2688.92" r="19.29" style="fill:#909090"/>
	<circle cx="2028.51" cy="2688.92" r="14.97" style="fill:none;stroke:#909090;stroke-width:8.64"/>
	<text x="1103.48" y="2723.95" style="font-family:'Helvetica';font-size:99.99px;fill:#000000">COVID-19 death</text>
	<text x="2103.50" y="2723.95" style="font-family:'Helvetica';font-size:99.99px;fill:#000000">Non-COVID death</text>
</svg>
