<?xml version="1.0" encoding="UTF-8" standalone="no"?>
<!-- This is a Stata 16.1 generated SVG file (http://www.stata.com) -->

<svg version="1.1" width="5.50in" height="8.00in" viewBox="0 0 3960 5760" xmlns="http://www.w3.org/2000/svg" xmlns:xlink="http://www.w3.org/1999/xlink">
	<desc>Stata Graph - stroke</desc>
	<rect x="0" y="0" width="3960" height="5760" style="fill:#EAF2F3;stroke:none"/>
	<rect x="0.00" y="0.00" width="3960.00" height="5760.00" style="fill:#EAF2F3"/>
	<rect x="3.96" y="3.96" width="3952.08" height="5752.08" style="fill:none;stroke:#EAF2F3;stroke-width:7.92"/>
	<rect x="179.82" y="378.54" width="3641.58" height="4492.80" style="fill:#FFFFFF"/>
	<rect x="183.78" y="382.50" width="3633.66" height="4484.88" style="fill:none;stroke:#FFFFFF;stroke-width:7.92"/>
	<line x1="1610.46" y1="4871.34" x2="1610.46" y2="4792.14" style="stroke:#C10534;stroke-width:11.88"/>
	<line x1="1610.46" y1="4752.54" x2="1610.46" y2="4673.34" style="stroke:#C10534;stroke-width:11.88"/>
	<line x1="1610.46" y1="4633.74" x2="1610.46" y2="4554.54" style="stroke:#C10534;stroke-width:11.88"/>
	<line x1="1610.46" y1="4514.94" x2="1610.46" y2="4435.56" style="stroke:#C10534;stroke-width:11.88"/>
	<line x1="1610.46" y1="4395.96" x2="1610.46" y2="4316.76" style="stroke:#C10534;stroke-width:11.88"/>
	<line x1="1610.46" y1="4277.16" x2="1610.46" y2="4197.96" style="stroke:#C10534;stroke-width:11.88"/>
	<line x1="1610.46" y1="4158.36" x2="1610.46" y2="4079.16" style="stroke:#C10534;stroke-width:11.88"/>
	<line x1="1610.46" y1="4039.56" x2="1610.46" y2="3960.36" style="stroke:#C10534;stroke-width:11.88"/>
	<line x1="1610.46" y1="3920.76" x2="1610.46" y2="3841.56" style="stroke:#C10534;stroke-width:11.88"/>
	<line x1="1610.46" y1="3801.78" x2="1610.46" y2="3722.58" style="stroke:#C10534;stroke-width:11.88"/>
	<line x1="1610.46" y1="3682.98" x2="1610.46" y2="3603.78" style="stroke:#C10534;stroke-width:11.88"/>
	<line x1="1610.46" y1="3564.18" x2="1610.46" y2="3484.98" style="stroke:#C10534;stroke-width:11.88"/>
	<line x1="1610.46" y1="3445.38" x2="1610.46" y2="3366.18" style="stroke:#C10534;stroke-width:11.88"/>
	<line x1="1610.46" y1="3326.58" x2="1610.46" y2="3247.38" style="stroke:#C10534;stroke-width:11.88"/>
	<line x1="1610.46" y1="3207.78" x2="1610.46" y2="3128.40" style="stroke:#C10534;stroke-width:11.88"/>
	<line x1="1610.46" y1="3088.80" x2="1610.46" y2="3009.60" style="stroke:#C10534;stroke-width:11.88"/>
	<line x1="1610.46" y1="2970.00" x2="1610.46" y2="2890.80" style="stroke:#C10534;stroke-width:11.88"/>
	<line x1="1610.46" y1="2851.20" x2="1610.46" y2="2772.00" style="stroke:#C10534;stroke-width:11.88"/>
	<line x1="1610.46" y1="2732.40" x2="1610.46" y2="2653.20" style="stroke:#C10534;stroke-width:11.88"/>
	<line x1="1610.46" y1="2613.60" x2="1610.46" y2="2534.40" style="stroke:#C10534;stroke-width:11.88"/>
	<line x1="1610.46" y1="2494.62" x2="1610.46" y2="2415.42" style="stroke:#C10534;stroke-width:11.88"/>
	<line x1="1610.46" y1="2375.82" x2="1610.46" y2="2296.62" style="stroke:#C10534;stroke-width:11.88"/>
	<line x1="1610.46" y1="2257.02" x2="1610.46" y2="2177.82" style="stroke:#C10534;stroke-width:11.88"/>
	<line x1="1610.46" y1="2138.22" x2="1610.46" y2="2059.02" style="stroke:#C10534;stroke-width:11.88"/>
	<line x1="1610.46" y1="2019.42" x2="1610.46" y2="1940.22" style="stroke:#C10534;stroke-width:11.88"/>
	<line x1="1610.46" y1="1900.62" x2="1610.46" y2="1821.24" style="stroke:#C10534;stroke-width:11.88"/>
	<line x1="1610.46" y1="1781.64" x2="1610.46" y2="1702.44" style="stroke:#C10534;stroke-width:11.88"/>
	<line x1="1610.46" y1="1662.84" x2="1610.46" y2="1583.64" style="stroke:#C10534;stroke-width:11.88"/>
	<line x1="1610.46" y1="1544.04" x2="1610.46" y2="1464.84" style="stroke:#C10534;stroke-width:11.88"/>
	<line x1="1610.46" y1="1425.24" x2="1610.46" y2="1346.04" style="stroke:#C10534;stroke-width:11.88"/>
	<line x1="1610.46" y1="1306.44" x2="1610.46" y2="1227.06" style="stroke:#C10534;stroke-width:11.88"/>
	<line x1="1610.46" y1="1187.46" x2="1610.46" y2="1108.26" style="stroke:#C10534;stroke-width:11.88"/>
	<line x1="1610.46" y1="1068.66" x2="1610.46" y2="989.46" style="stroke:#C10534;stroke-width:11.88"/>
	<line x1="1610.46" y1="949.86" x2="1610.46" y2="870.66" style="stroke:#C10534;stroke-width:11.88"/>
	<line x1="1610.46" y1="831.06" x2="1610.46" y2="751.86" style="stroke:#C10534;stroke-width:11.88"/>
	<line x1="1610.46" y1="712.26" x2="1610.46" y2="633.06" style="stroke:#C10534;stroke-width:11.88"/>
	<line x1="1610.46" y1="593.28" x2="1610.46" y2="514.08" style="stroke:#C10534;stroke-width:11.88"/>
	<line x1="1610.46" y1="474.48" x2="1610.46" y2="395.28" style="stroke:#C10534;stroke-width:11.88"/>
	<circle cx="2006.10" cy="841.32" r="26.64" style="fill:#000000"/>
	<circle cx="2006.10" cy="841.32" r="20.70" style="fill:none;stroke:#000000;stroke-width:11.88"/>
	<circle cx="2000.52" cy="1592.46" r="26.64" style="fill:#000000"/>
	<circle cx="2000.52" cy="1592.46" r="20.70" style="fill:none;stroke:#000000;stroke-width:11.88"/>
	<circle cx="2003.76" cy="2343.42" r="26.64" style="fill:#000000"/>
	<circle cx="2003.76" cy="2343.42" r="20.70" style="fill:none;stroke:#000000;stroke-width:11.88"/>
	<circle cx="2011.68" cy="3094.38" r="26.64" style="fill:#000000"/>
	<circle cx="2011.68" cy="3094.38" r="20.70" style="fill:none;stroke:#000000;stroke-width:11.88"/>
	<circle cx="2021.04" cy="3845.52" r="26.64" style="fill:#000000"/>
	<circle cx="2021.04" cy="3845.52" r="20.70" style="fill:none;stroke:#000000;stroke-width:11.88"/>
	<circle cx="1929.24" cy="4596.48" r="26.64" style="fill:#000000"/>
	<circle cx="1929.24" cy="4596.48" r="20.70" style="fill:none;stroke:#000000;stroke-width:11.88"/>
	<line x1="1983.42" y1="841.32" x2="2029.14" y2="841.32" style="stroke:#000000;stroke-width:11.88"/>
	<line x1="2029.14" y1="871.56" x2="2029.14" y2="811.08" stroke-linecap="round" style="stroke:#000000;stroke-width:11.88"/>
	<line x1="1983.42" y1="871.56" x2="1983.42" y2="811.08" stroke-linecap="round" style="stroke:#000000;stroke-width:11.88"/>
	<line x1="1976.94" y1="1592.28" x2="2024.46" y2="1592.28" style="stroke:#000000;stroke-width:11.88"/>
	<line x1="2024.46" y1="1622.52" x2="2024.46" y2="1562.04" stroke-linecap="round" style="stroke:#000000;stroke-width:11.88"/>
	<line x1="1976.94" y1="1622.52" x2="1976.94" y2="1562.04" stroke-linecap="round" style="stroke:#000000;stroke-width:11.88"/>
	<line x1="1981.98" y1="2343.42" x2="2025.90" y2="2343.42" style="stroke:#000000;stroke-width:11.88"/>
	<line x1="2025.90" y1="2373.66" x2="2025.90" y2="2313.18" stroke-linecap="round" style="stroke:#000000;stroke-width:11.88"/>
	<line x1="1981.98" y1="2373.66" x2="1981.98" y2="2313.18" stroke-linecap="round" style="stroke:#000000;stroke-width:11.88"/>
	<line x1="1989.18" y1="3094.38" x2="2034.36" y2="3094.38" style="stroke:#000000;stroke-width:11.88"/>
	<line x1="2034.36" y1="3124.62" x2="2034.36" y2="3064.14" stroke-linecap="round" style="stroke:#000000;stroke-width:11.88"/>
	<line x1="1989.18" y1="3124.62" x2="1989.18" y2="3064.14" stroke-linecap="round" style="stroke:#000000;stroke-width:11.88"/>
	<line x1="1996.74" y1="3845.34" x2="2045.70" y2="3845.34" style="stroke:#000000;stroke-width:11.88"/>
	<line x1="2045.70" y1="3875.58" x2="2045.70" y2="3815.10" stroke-linecap="round" style="stroke:#000000;stroke-width:11.88"/>
	<line x1="1996.74" y1="3875.58" x2="1996.74" y2="3815.10" stroke-linecap="round" style="stroke:#000000;stroke-width:11.88"/>
	<line x1="1866.42" y1="4596.48" x2="1992.24" y2="4596.48" style="stroke:#000000;stroke-width:11.88"/>
	<line x1="1992.24" y1="4626.72" x2="1992.24" y2="4566.24" stroke-linecap="round" style="stroke:#000000;stroke-width:11.88"/>
	<line x1="1866.42" y1="4626.72" x2="1866.42" y2="4566.24" stroke-linecap="round" style="stroke:#000000;stroke-width:11.88"/>
	<circle cx="1962.36" cy="1029.06" r="26.64" style="fill:#909090"/>
	<circle cx="1962.36" cy="1029.06" r="20.70" style="fill:none;stroke:#909090;stroke-width:11.88"/>
	<circle cx="1964.16" cy="1780.20" r="26.64" style="fill:#909090"/>
	<circle cx="1964.16" cy="1780.20" r="20.70" style="fill:none;stroke:#909090;stroke-width:11.88"/>
	<circle cx="1961.46" cy="2531.16" r="26.64" style="fill:#909090"/>
	<circle cx="1961.46" cy="2531.16" r="20.70" style="fill:none;stroke:#909090;stroke-width:11.88"/>
	<circle cx="1944.00" cy="3282.30" r="26.64" style="fill:#909090"/>
	<circle cx="1944.00" cy="3282.30" r="20.70" style="fill:none;stroke:#909090;stroke-width:11.88"/>
	<circle cx="1959.12" cy="4033.26" r="26.64" style="fill:#909090"/>
	<circle cx="1959.12" cy="4033.26" r="20.70" style="fill:none;stroke:#909090;stroke-width:11.88"/>
	<circle cx="1973.52" cy="4784.22" r="26.64" style="fill:#909090"/>
	<circle cx="1973.52" cy="4784.22" r="20.70" style="fill:none;stroke:#909090;stroke-width:11.88"/>
	<line x1="1953.36" y1="1029.06" x2="1971.54" y2="1029.06" style="stroke:#909090;stroke-width:11.88"/>
	<line x1="1971.54" y1="1059.30" x2="1971.54" y2="998.82" stroke-linecap="round" style="stroke:#909090;stroke-width:11.88"/>
	<line x1="1953.36" y1="1059.30" x2="1953.36" y2="998.82" stroke-linecap="round" style="stroke:#909090;stroke-width:11.88"/>
	<line x1="1955.16" y1="1780.02" x2="1973.34" y2="1780.02" style="stroke:#909090;stroke-width:11.88"/>
	<line x1="1973.34" y1="1810.26" x2="1973.34" y2="1749.78" stroke-linecap="round" style="stroke:#909090;stroke-width:11.88"/>
	<line x1="1955.16" y1="1810.26" x2="1955.16" y2="1749.78" stroke-linecap="round" style="stroke:#909090;stroke-width:11.88"/>
	<line x1="1952.46" y1="2531.16" x2="1970.64" y2="2531.16" style="stroke:#909090;stroke-width:11.88"/>
	<line x1="1970.64" y1="2561.40" x2="1970.64" y2="2500.92" stroke-linecap="round" style="stroke:#909090;stroke-width:11.88"/>
	<line x1="1952.46" y1="2561.40" x2="1952.46" y2="2500.92" stroke-linecap="round" style="stroke:#909090;stroke-width:11.88"/>
	<line x1="1935.54" y1="3282.12" x2="1952.82" y2="3282.12" style="stroke:#909090;stroke-width:11.88"/>
	<line x1="1952.82" y1="3312.36" x2="1952.82" y2="3251.88" stroke-linecap="round" style="stroke:#909090;stroke-width:11.88"/>
	<line x1="1935.54" y1="3312.36" x2="1935.54" y2="3251.88" stroke-linecap="round" style="stroke:#909090;stroke-width:11.88"/>
	<line x1="1949.04" y1="4033.08" x2="1969.38" y2="4033.08" style="stroke:#909090;stroke-width:11.88"/>
	<line x1="1969.38" y1="4063.32" x2="1969.38" y2="4002.84" stroke-linecap="round" style="stroke:#909090;stroke-width:11.88"/>
	<line x1="1949.04" y1="4063.32" x2="1949.04" y2="4002.84" stroke-linecap="round" style="stroke:#909090;stroke-width:11.88"/>
	<line x1="1955.34" y1="4784.22" x2="1991.88" y2="4784.22" style="stroke:#909090;stroke-width:11.88"/>
	<line x1="1991.88" y1="4814.46" x2="1991.88" y2="4753.98" stroke-linecap="round" style="stroke:#909090;stroke-width:11.88"/>
	<line x1="1955.34" y1="4814.46" x2="1955.34" y2="4753.98" stroke-linecap="round" style="stroke:#909090;stroke-width:11.88"/>
	<text x="3179.16" y="672.90" style="font-family:'Helvetica';font-size:55.08px;fill:#000000">PRIMARY ANALYSIS</text>
	<text x="3179.16" y="1423.86" style="font-family:'Helvetica';font-size:55.08px;fill:#000000">CONFIRMED COVID</text>
	<text x="3179.16" y="2174.82" style="font-family:'Helvetica';font-size:55.08px;fill:#000000">ANY COVID ON DC</text>
	<text x="3179.16" y="2925.96" style="font-family:'Helvetica';font-size:55.08px;fill:#000000">COX MODEL</text>
	<text x="3179.16" y="3676.92" style="font-family:'Helvetica';font-size:55.08px;fill:#000000">WAVE 1</text>
	<text x="3179.16" y="4428.06" style="font-family:'Helvetica';font-size:55.08px;fill:#000000">WAVE 2</text>
	<text x="3179.16" y="860.64" style="font-family:'Helvetica';font-size:55.08px;fill:#000000">2.03 (1.95-2.12)</text>
	<text x="3179.16" y="1048.38" style="font-family:'Helvetica';font-size:55.08px;fill:#000000">1.88 (1.85-1.91)</text>
	<text x="3179.16" y="1611.60" style="font-family:'Helvetica';font-size:55.08px;fill:#000000">2.01 (1.93-2.10)</text>
	<text x="3179.16" y="1799.34" style="font-family:'Helvetica';font-size:55.08px;fill:#000000">1.89 (1.85-1.92)</text>
	<text x="3179.16" y="2362.74" style="font-family:'Helvetica';font-size:55.08px;fill:#000000">2.02 (1.95-2.11)</text>
	<text x="3179.16" y="2550.48" style="font-family:'Helvetica';font-size:55.08px;fill:#000000">1.88 (1.85-1.91)</text>
	<text x="3179.16" y="3113.70" style="font-family:'Helvetica';font-size:55.08px;fill:#000000">2.05 (1.97-2.14)</text>
	<text x="3179.16" y="3301.44" style="font-family:'Helvetica';font-size:55.08px;fill:#000000">1.82 (1.79-1.85)</text>
	<text x="3179.16" y="3864.66" style="font-family:'Helvetica';font-size:55.08px;fill:#000000">2.09 (2.00-2.18)</text>
	<text x="3179.16" y="4052.40" style="font-family:'Helvetica';font-size:55.08px;fill:#000000">1.87 (1.83-1.90)</text>
	<text x="3179.16" y="4615.80" style="font-family:'Helvetica';font-size:55.08px;fill:#000000">1.77 (1.58-1.98)</text>
	<text x="3179.16" y="4803.54" style="font-family:'Helvetica';font-size:55.08px;fill:#000000">1.92 (1.86-1.98)</text>
	<line x1="179.82" y1="4871.34" x2="179.82" y2="378.54" style="stroke:#000000;stroke-width:7.92"/>
	<line x1="179.82" y1="4871.34" x2="3821.40" y2="4871.34" style="stroke:#000000;stroke-width:7.92"/>
	<line x1="837.00" y1="4871.34" x2="837.00" y2="4926.24" style="stroke:#000000;stroke-width:7.92"/>
	<text x="837.00" y="5049.95" style="font-family:'Helvetica';font-size:137.52px;fill:#000000" text-anchor="middle">.25</text>
	<line x1="1223.64" y1="4871.34" x2="1223.64" y2="4926.24" style="stroke:#000000;stroke-width:7.92"/>
	<text x="1223.64" y="5049.95" style="font-family:'Helvetica';font-size:137.52px;fill:#000000" text-anchor="middle">.5</text>
	<line x1="1610.46" y1="4871.34" x2="1610.46" y2="4926.24" style="stroke:#000000;stroke-width:7.92"/>
	<text x="1610.46" y="5049.95" style="font-family:'Helvetica';font-size:137.52px;fill:#000000" text-anchor="middle">1</text>
	<line x1="1997.10" y1="4871.34" x2="1997.10" y2="4926.24" style="stroke:#000000;stroke-width:7.92"/>
	<text x="1997.10" y="5049.95" style="font-family:'Helvetica';font-size:137.52px;fill:#000000" text-anchor="middle">2</text>
	<line x1="2508.30" y1="4871.34" x2="2508.30" y2="4926.24" style="stroke:#000000;stroke-width:7.92"/>
	<text x="2508.30" y="5049.95" style="font-family:'Helvetica';font-size:137.52px;fill:#000000" text-anchor="middle">5</text>
	<line x1="2895.12" y1="4871.34" x2="2895.12" y2="4926.24" style="stroke:#000000;stroke-width:7.92"/>
	<text x="2895.12" y="5049.95" style="font-family:'Helvetica';font-size:137.52px;fill:#000000" text-anchor="middle">10</text>
	<text x="2000.70" y="5201.15" style="font-family:'Helvetica';font-size:137.52px;fill:#000000" text-anchor="middle">OR or HR* and 95% CI</text>
	<rect x="612.36" y="5317.56" width="2776.50" height="256.32" style="fill:#FFFFFF"/>
	<rect x="616.32" y="5321.52" width="2768.58" height="248.40" style="fill:none;stroke:#000000;stroke-width:7.92"/>
	<circle cx="692.46" cy="5445.72" r="26.64" style="fill:#000000"/>
	<circle cx="692.46" cy="5445.72" r="20.70" style="fill:none;stroke:#000000;stroke-width:11.88"/>
	<circle cx="2067.30" cy="5445.72" r="26.64" style="fill:#909090"/>
	<circle cx="2067.30" cy="5445.72" r="20.70" style="fill:none;stroke:#909090;stroke-width:11.88"/>
	<text x="795.42" y="5493.90" style="font-family:'Helvetica';font-size:137.52px;fill:#000000">COVID-19 death</text>
	<text x="2170.44" y="5493.90" style="font-family:'Helvetica';font-size:137.52px;fill:#000000">Non-COVID death</text>
	<text x="2000.70" y="296.96" style="font-family:'Helvetica';font-size:192.42px;fill:#1E2D53" text-anchor="middle">Stroke</text>
</svg>
