<?xml version="1.0" encoding="UTF-8" standalone="no"?>
<!-- This is a Stata 16.1 generated SVG file (http://www.stata.com) -->

<svg version="1.1" width="5.50in" height="8.00in" viewBox="0 0 3960 5760" xmlns="http://www.w3.org/2000/svg" xmlns:xlink="http://www.w3.org/1999/xlink">
	<desc>Stata Graph - Graph</desc>
	<rect x="0" y="0" width="3960" height="5760" style="fill:#EAF2F3;stroke:none"/>
	<rect x="0.00" y="0.00" width="3960.00" height="5760.00" style="fill:#EAF2F3"/>
	<rect x="3.96" y="3.96" width="3952.08" height="5752.08" style="fill:none;stroke:#EAF2F3;stroke-width:7.92"/>
	<rect x="179.82" y="138.60" width="3641.58" height="5084.10" style="fill:#FFFFFF"/>
	<rect x="183.78" y="142.56" width="3633.66" height="5076.18" style="fill:none;stroke:#FFFFFF;stroke-width:7.92"/>
	<line x1="1964.52" y1="5222.70" x2="1964.52" y2="5143.50" style="stroke:#C10534;stroke-width:11.88"/>
	<line x1="1964.52" y1="5103.90" x2="1964.52" y2="5024.70" style="stroke:#C10534;stroke-width:11.88"/>
	<line x1="1964.52" y1="4985.10" x2="1964.52" y2="4905.90" style="stroke:#C10534;stroke-width:11.88"/>
	<line x1="1964.52" y1="4866.30" x2="1964.52" y2="4786.92" style="stroke:#C10534;stroke-width:11.88"/>
	<line x1="1964.52" y1="4747.32" x2="1964.52" y2="4668.12" style="stroke:#C10534;stroke-width:11.88"/>
	<line x1="1964.52" y1="4628.52" x2="1964.52" y2="4549.32" style="stroke:#C10534;stroke-width:11.88"/>
	<line x1="1964.52" y1="4509.72" x2="1964.52" y2="4430.52" style="stroke:#C10534;stroke-width:11.88"/>
	<line x1="1964.52" y1="4390.92" x2="1964.52" y2="4311.72" style="stroke:#C10534;stroke-width:11.88"/>
	<line x1="1964.52" y1="4272.12" x2="1964.52" y2="4192.92" style="stroke:#C10534;stroke-width:11.88"/>
	<line x1="1964.52" y1="4153.14" x2="1964.52" y2="4073.94" style="stroke:#C10534;stroke-width:11.88"/>
	<line x1="1964.52" y1="4034.34" x2="1964.52" y2="3955.14" style="stroke:#C10534;stroke-width:11.88"/>
	<line x1="1964.52" y1="3915.54" x2="1964.52" y2="3836.34" style="stroke:#C10534;stroke-width:11.88"/>
	<line x1="1964.52" y1="3796.74" x2="1964.52" y2="3717.54" style="stroke:#C10534;stroke-width:11.88"/>
	<line x1="1964.52" y1="3677.94" x2="1964.52" y2="3598.74" style="stroke:#C10534;stroke-width:11.88"/>
	<line x1="1964.52" y1="3559.14" x2="1964.52" y2="3479.76" style="stroke:#C10534;stroke-width:11.88"/>
	<line x1="1964.52" y1="3440.16" x2="1964.52" y2="3360.96" style="stroke:#C10534;stroke-width:11.88"/>
	<line x1="1964.52" y1="3321.36" x2="1964.52" y2="3242.16" style="stroke:#C10534;stroke-width:11.88"/>
	<line x1="1964.52" y1="3202.56" x2="1964.52" y2="3123.36" style="stroke:#C10534;stroke-width:11.88"/>
	<line x1="1964.52" y1="3083.76" x2="1964.52" y2="3004.56" style="stroke:#C10534;stroke-width:11.88"/>
	<line x1="1964.52" y1="2964.96" x2="1964.52" y2="2885.76" style="stroke:#C10534;stroke-width:11.88"/>
	<line x1="1964.52" y1="2845.98" x2="1964.52" y2="2766.78" style="stroke:#C10534;stroke-width:11.88"/>
	<line x1="1964.52" y1="2727.18" x2="1964.52" y2="2647.98" style="stroke:#C10534;stroke-width:11.88"/>
	<line x1="1964.52" y1="2608.38" x2="1964.52" y2="2529.18" style="stroke:#C10534;stroke-width:11.88"/>
	<line x1="1964.52" y1="2489.58" x2="1964.52" y2="2410.38" style="stroke:#C10534;stroke-width:11.88"/>
	<line x1="1964.52" y1="2370.78" x2="1964.52" y2="2291.58" style="stroke:#C10534;stroke-width:11.88"/>
	<line x1="1964.52" y1="2251.98" x2="1964.52" y2="2172.60" style="stroke:#C10534;stroke-width:11.88"/>
	<line x1="1964.52" y1="2133.00" x2="1964.52" y2="2053.80" style="stroke:#C10534;stroke-width:11.88"/>
	<line x1="1964.52" y1="2014.20" x2="1964.52" y2="1935.00" style="stroke:#C10534;stroke-width:11.88"/>
	<line x1="1964.52" y1="1895.40" x2="1964.52" y2="1816.20" style="stroke:#C10534;stroke-width:11.88"/>
	<line x1="1964.52" y1="1776.60" x2="1964.52" y2="1697.40" style="stroke:#C10534;stroke-width:11.88"/>
	<line x1="1964.52" y1="1657.80" x2="1964.52" y2="1578.42" style="stroke:#C10534;stroke-width:11.88"/>
	<line x1="1964.52" y1="1538.82" x2="1964.52" y2="1459.62" style="stroke:#C10534;stroke-width:11.88"/>
	<line x1="1964.52" y1="1420.02" x2="1964.52" y2="1340.82" style="stroke:#C10534;stroke-width:11.88"/>
	<line x1="1964.52" y1="1301.22" x2="1964.52" y2="1222.02" style="stroke:#C10534;stroke-width:11.88"/>
	<line x1="1964.52" y1="1182.42" x2="1964.52" y2="1103.22" style="stroke:#C10534;stroke-width:11.88"/>
	<line x1="1964.52" y1="1063.62" x2="1964.52" y2="984.42" style="stroke:#C10534;stroke-width:11.88"/>
	<line x1="1964.52" y1="944.64" x2="1964.52" y2="865.44" style="stroke:#C10534;stroke-width:11.88"/>
	<line x1="1964.52" y1="825.84" x2="1964.52" y2="746.64" style="stroke:#C10534;stroke-width:11.88"/>
	<line x1="1964.52" y1="707.04" x2="1964.52" y2="627.84" style="stroke:#C10534;stroke-width:11.88"/>
	<line x1="1964.52" y1="588.24" x2="1964.52" y2="509.04" style="stroke:#C10534;stroke-width:11.88"/>
	<line x1="1964.52" y1="469.44" x2="1964.52" y2="390.24" style="stroke:#C10534;stroke-width:11.88"/>
	<line x1="1964.52" y1="350.64" x2="1964.52" y2="271.26" style="stroke:#C10534;stroke-width:11.88"/>
	<line x1="1964.52" y1="231.66" x2="1964.52" y2="152.46" style="stroke:#C10534;stroke-width:11.88"/>
	<circle cx="2049.30" cy="382.50" r="26.64" style="fill:#000000"/>
	<circle cx="2049.30" cy="382.50" r="20.70" style="fill:none;stroke:#000000;stroke-width:11.88"/>
	<circle cx="1964.34" cy="539.28" r="26.64" style="fill:#000000"/>
	<circle cx="1964.34" cy="539.28" r="20.70" style="fill:none;stroke:#000000;stroke-width:11.88"/>
	<circle cx="2140.20" cy="591.48" r="26.64" style="fill:#000000"/>
	<circle cx="2140.20" cy="591.48" r="20.70" style="fill:none;stroke:#000000;stroke-width:11.88"/>
	<circle cx="1964.34" cy="748.08" r="26.64" style="fill:#000000"/>
	<circle cx="1964.34" cy="748.08" r="20.70" style="fill:none;stroke:#000000;stroke-width:11.88"/>
	<circle cx="2216.16" cy="800.28" r="26.64" style="fill:#000000"/>
	<circle cx="2216.16" cy="800.28" r="20.70" style="fill:none;stroke:#000000;stroke-width:11.88"/>
	<circle cx="2321.82" cy="852.66" r="26.64" style="fill:#000000"/>
	<circle cx="2321.82" cy="852.66" r="20.70" style="fill:none;stroke:#000000;stroke-width:11.88"/>
	<circle cx="2381.40" cy="904.86" r="26.64" style="fill:#000000"/>
	<circle cx="2381.40" cy="904.86" r="20.70" style="fill:none;stroke:#000000;stroke-width:11.88"/>
	<circle cx="1964.34" cy="1061.46" r="26.64" style="fill:#000000"/>
	<circle cx="1964.34" cy="1061.46" r="20.70" style="fill:none;stroke:#000000;stroke-width:11.88"/>
	<circle cx="1993.32" cy="1113.84" r="26.64" style="fill:#000000"/>
	<circle cx="1993.32" cy="1113.84" r="20.70" style="fill:none;stroke:#000000;stroke-width:11.88"/>
	<circle cx="1474.56" cy="1166.04" r="26.64" style="fill:#000000"/>
	<circle cx="1474.56" cy="1166.04" r="20.70" style="fill:none;stroke:#000000;stroke-width:11.88"/>
	<circle cx="1964.34" cy="1322.64" r="26.64" style="fill:#000000"/>
	<circle cx="1964.34" cy="1322.64" r="20.70" style="fill:none;stroke:#000000;stroke-width:11.88"/>
	<circle cx="2334.24" cy="1374.84" r="26.64" style="fill:#000000"/>
	<circle cx="2334.24" cy="1374.84" r="20.70" style="fill:none;stroke:#000000;stroke-width:11.88"/>
	<circle cx="2542.68" cy="1427.22" r="26.64" style="fill:#000000"/>
	<circle cx="2542.68" cy="1427.22" r="20.70" style="fill:none;stroke:#000000;stroke-width:11.88"/>
	<circle cx="2430.00" cy="1479.42" r="26.64" style="fill:#000000"/>
	<circle cx="2430.00" cy="1479.42" r="20.70" style="fill:none;stroke:#000000;stroke-width:11.88"/>
	<circle cx="2413.62" cy="1531.62" r="26.64" style="fill:#000000"/>
	<circle cx="2413.62" cy="1531.62" r="20.70" style="fill:none;stroke:#000000;stroke-width:11.88"/>
	<circle cx="1964.34" cy="1688.40" r="26.64" style="fill:#000000"/>
	<circle cx="1964.34" cy="1688.40" r="20.70" style="fill:none;stroke:#000000;stroke-width:11.88"/>
	<circle cx="1992.96" cy="1740.60" r="26.64" style="fill:#000000"/>
	<circle cx="1992.96" cy="1740.60" r="20.70" style="fill:none;stroke:#000000;stroke-width:11.88"/>
	<circle cx="2022.30" cy="1792.80" r="26.64" style="fill:#000000"/>
	<circle cx="2022.30" cy="1792.80" r="20.70" style="fill:none;stroke:#000000;stroke-width:11.88"/>
	<circle cx="2093.94" cy="1845.00" r="26.64" style="fill:#000000"/>
	<circle cx="2093.94" cy="1845.00" r="20.70" style="fill:none;stroke:#000000;stroke-width:11.88"/>
	<circle cx="2126.70" cy="1897.20" r="26.64" style="fill:#000000"/>
	<circle cx="2126.70" cy="1897.20" r="20.70" style="fill:none;stroke:#000000;stroke-width:11.88"/>
	<circle cx="1964.34" cy="2053.98" r="26.64" style="fill:#000000"/>
	<circle cx="1964.34" cy="2053.98" r="20.70" style="fill:none;stroke:#000000;stroke-width:11.88"/>
	<circle cx="2073.60" cy="2106.18" r="26.64" style="fill:#000000"/>
	<circle cx="2073.60" cy="2106.18" r="20.70" style="fill:none;stroke:#000000;stroke-width:11.88"/>
	<circle cx="2233.62" cy="2158.38" r="26.64" style="fill:#000000"/>
	<circle cx="2233.62" cy="2158.38" r="20.70" style="fill:none;stroke:#000000;stroke-width:11.88"/>
	<circle cx="2059.20" cy="2210.58" r="26.64" style="fill:#000000"/>
	<circle cx="2059.20" cy="2210.58" r="20.70" style="fill:none;stroke:#000000;stroke-width:11.88"/>
	<circle cx="1964.34" cy="2367.36" r="26.64" style="fill:#000000"/>
	<circle cx="1964.34" cy="2367.36" r="20.70" style="fill:none;stroke:#000000;stroke-width:11.88"/>
	<circle cx="960.66" cy="2419.56" r="26.64" style="fill:#000000"/>
	<circle cx="960.66" cy="2419.56" r="20.70" style="fill:none;stroke:#000000;stroke-width:11.88"/>
	<circle cx="1356.30" cy="2471.76" r="26.64" style="fill:#000000"/>
	<circle cx="1356.30" cy="2471.76" r="20.70" style="fill:none;stroke:#000000;stroke-width:11.88"/>
	<circle cx="1716.48" cy="2523.96" r="26.64" style="fill:#000000"/>
	<circle cx="1716.48" cy="2523.96" r="20.70" style="fill:none;stroke:#000000;stroke-width:11.88"/>
	<circle cx="1964.34" cy="2680.74" r="26.64" style="fill:#000000"/>
	<circle cx="1964.34" cy="2680.74" r="20.70" style="fill:none;stroke:#000000;stroke-width:11.88"/>
	<circle cx="1599.30" cy="2732.94" r="26.64" style="fill:#000000"/>
	<circle cx="1599.30" cy="2732.94" r="20.70" style="fill:none;stroke:#000000;stroke-width:11.88"/>
	<circle cx="1905.48" cy="2785.14" r="26.64" style="fill:#000000"/>
	<circle cx="1905.48" cy="2785.14" r="20.70" style="fill:none;stroke:#000000;stroke-width:11.88"/>
	<circle cx="1952.28" cy="2837.34" r="26.64" style="fill:#000000"/>
	<circle cx="1952.28" cy="2837.34" r="20.70" style="fill:none;stroke:#000000;stroke-width:11.88"/>
	<circle cx="1964.34" cy="2994.12" r="26.64" style="fill:#000000"/>
	<circle cx="1964.34" cy="2994.12" r="20.70" style="fill:none;stroke:#000000;stroke-width:11.88"/>
	<circle cx="2068.02" cy="3046.32" r="26.64" style="fill:#000000"/>
	<circle cx="2068.02" cy="3046.32" r="20.70" style="fill:none;stroke:#000000;stroke-width:11.88"/>
	<circle cx="2044.08" cy="3098.52" r="26.64" style="fill:#000000"/>
	<circle cx="2044.08" cy="3098.52" r="20.70" style="fill:none;stroke:#000000;stroke-width:11.88"/>
	<circle cx="2086.92" cy="3150.72" r="26.64" style="fill:#000000"/>
	<circle cx="2086.92" cy="3150.72" r="20.70" style="fill:none;stroke:#000000;stroke-width:11.88"/>
	<circle cx="1964.34" cy="3307.50" r="26.64" style="fill:#000000"/>
	<circle cx="1964.34" cy="3307.50" r="20.70" style="fill:none;stroke:#000000;stroke-width:11.88"/>
	<circle cx="2041.92" cy="3359.70" r="26.64" style="fill:#000000"/>
	<circle cx="2041.92" cy="3359.70" r="20.70" style="fill:none;stroke:#000000;stroke-width:11.88"/>
	<circle cx="2150.28" cy="3411.90" r="26.64" style="fill:#000000"/>
	<circle cx="2150.28" cy="3411.90" r="20.70" style="fill:none;stroke:#000000;stroke-width:11.88"/>
	<circle cx="1932.84" cy="3568.68" r="26.64" style="fill:#000000"/>
	<circle cx="1932.84" cy="3568.68" r="20.70" style="fill:none;stroke:#000000;stroke-width:11.88"/>
	<circle cx="1960.20" cy="3725.28" r="26.64" style="fill:#000000"/>
	<circle cx="1960.20" cy="3725.28" r="20.70" style="fill:none;stroke:#000000;stroke-width:11.88"/>
	<circle cx="1975.68" cy="3882.06" r="26.64" style="fill:#000000"/>
	<circle cx="1975.68" cy="3882.06" r="20.70" style="fill:none;stroke:#000000;stroke-width:11.88"/>
	<circle cx="1635.48" cy="4038.84" r="26.64" style="fill:#000000"/>
	<circle cx="1635.48" cy="4038.84" r="20.70" style="fill:none;stroke:#000000;stroke-width:11.88"/>
	<circle cx="2249.10" cy="4195.44" r="26.64" style="fill:#000000"/>
	<circle cx="2249.10" cy="4195.44" r="20.70" style="fill:none;stroke:#000000;stroke-width:11.88"/>
	<circle cx="2052.36" cy="4352.22" r="26.64" style="fill:#000000"/>
	<circle cx="2052.36" cy="4352.22" r="20.70" style="fill:none;stroke:#000000;stroke-width:11.88"/>
	<circle cx="2113.20" cy="4508.82" r="26.64" style="fill:#000000"/>
	<circle cx="2113.20" cy="4508.82" r="20.70" style="fill:none;stroke:#000000;stroke-width:11.88"/>
	<circle cx="2283.48" cy="4665.60" r="26.64" style="fill:#000000"/>
	<circle cx="2283.48" cy="4665.60" r="20.70" style="fill:none;stroke:#000000;stroke-width:11.88"/>
	<circle cx="1804.14" cy="4822.20" r="26.64" style="fill:#000000"/>
	<circle cx="1804.14" cy="4822.20" r="20.70" style="fill:none;stroke:#000000;stroke-width:11.88"/>
	<circle cx="2030.58" cy="4978.98" r="26.64" style="fill:#000000"/>
	<circle cx="2030.58" cy="4978.98" r="20.70" style="fill:none;stroke:#000000;stroke-width:11.88"/>
	<circle cx="1911.06" cy="5135.58" r="26.64" style="fill:#000000"/>
	<circle cx="1911.06" cy="5135.58" r="20.70" style="fill:none;stroke:#000000;stroke-width:11.88"/>
	<line x1="2040.66" y1="382.50" x2="2058.12" y2="382.50" style="stroke:#000000;stroke-width:11.88"/>
	<line x1="2058.12" y1="412.74" x2="2058.12" y2="352.26" stroke-linecap="round" style="stroke:#000000;stroke-width:11.88"/>
	<line x1="2040.66" y1="412.74" x2="2040.66" y2="352.26" stroke-linecap="round" style="stroke:#000000;stroke-width:11.88"/>
	<line x1="1964.52" y1="539.10" x2="1964.52" y2="539.10" style="stroke:#000000;stroke-width:11.88"/>
	<line x1="1964.52" y1="569.34" x2="1964.52" y2="508.86" stroke-linecap="round" style="stroke:#000000;stroke-width:11.88"/>
	<line x1="1964.52" y1="569.34" x2="1964.52" y2="508.86" stroke-linecap="round" style="stroke:#000000;stroke-width:11.88"/>
	<line x1="2119.32" y1="591.30" x2="2161.26" y2="591.30" style="stroke:#000000;stroke-width:11.88"/>
	<line x1="2161.26" y1="621.54" x2="2161.26" y2="561.06" stroke-linecap="round" style="stroke:#000000;stroke-width:11.88"/>
	<line x1="2119.32" y1="621.54" x2="2119.32" y2="561.06" stroke-linecap="round" style="stroke:#000000;stroke-width:11.88"/>
	<line x1="1964.52" y1="748.08" x2="1964.52" y2="748.08" style="stroke:#000000;stroke-width:11.88"/>
	<line x1="1964.52" y1="778.32" x2="1964.52" y2="717.84" stroke-linecap="round" style="stroke:#000000;stroke-width:11.88"/>
	<line x1="1964.52" y1="778.32" x2="1964.52" y2="717.84" stroke-linecap="round" style="stroke:#000000;stroke-width:11.88"/>
	<line x1="2187.18" y1="800.28" x2="2245.14" y2="800.28" style="stroke:#000000;stroke-width:11.88"/>
	<line x1="2245.14" y1="830.52" x2="2245.14" y2="770.04" stroke-linecap="round" style="stroke:#000000;stroke-width:11.88"/>
	<line x1="2187.18" y1="830.52" x2="2187.18" y2="770.04" stroke-linecap="round" style="stroke:#000000;stroke-width:11.88"/>
	<line x1="2278.98" y1="852.48" x2="2364.84" y2="852.48" style="stroke:#000000;stroke-width:11.88"/>
	<line x1="2364.84" y1="882.72" x2="2364.84" y2="822.24" stroke-linecap="round" style="stroke:#000000;stroke-width:11.88"/>
	<line x1="2278.98" y1="882.72" x2="2278.98" y2="822.24" stroke-linecap="round" style="stroke:#000000;stroke-width:11.88"/>
	<line x1="2323.26" y1="904.68" x2="2439.54" y2="904.68" style="stroke:#000000;stroke-width:11.88"/>
	<line x1="2439.54" y1="934.92" x2="2439.54" y2="874.44" stroke-linecap="round" style="stroke:#000000;stroke-width:11.88"/>
	<line x1="2323.26" y1="934.92" x2="2323.26" y2="874.44" stroke-linecap="round" style="stroke:#000000;stroke-width:11.88"/>
	<line x1="1964.52" y1="1061.46" x2="1964.52" y2="1061.46" style="stroke:#000000;stroke-width:11.88"/>
	<line x1="1964.52" y1="1091.70" x2="1964.52" y2="1031.22" stroke-linecap="round" style="stroke:#000000;stroke-width:11.88"/>
	<line x1="1964.52" y1="1091.70" x2="1964.52" y2="1031.22" stroke-linecap="round" style="stroke:#000000;stroke-width:11.88"/>
	<line x1="1970.46" y1="1113.66" x2="2016.18" y2="1113.66" style="stroke:#000000;stroke-width:11.88"/>
	<line x1="2016.18" y1="1143.90" x2="2016.18" y2="1083.42" stroke-linecap="round" style="stroke:#000000;stroke-width:11.88"/>
	<line x1="1970.46" y1="1143.90" x2="1970.46" y2="1083.42" stroke-linecap="round" style="stroke:#000000;stroke-width:11.88"/>
	<line x1="1430.46" y1="1165.86" x2="1518.84" y2="1165.86" style="stroke:#000000;stroke-width:11.88"/>
	<line x1="1518.84" y1="1196.10" x2="1518.84" y2="1135.62" stroke-linecap="round" style="stroke:#000000;stroke-width:11.88"/>
	<line x1="1430.46" y1="1196.10" x2="1430.46" y2="1135.62" stroke-linecap="round" style="stroke:#000000;stroke-width:11.88"/>
	<line x1="1964.52" y1="1322.64" x2="1964.52" y2="1322.64" style="stroke:#000000;stroke-width:11.88"/>
	<line x1="1964.52" y1="1352.88" x2="1964.52" y2="1292.40" stroke-linecap="round" style="stroke:#000000;stroke-width:11.88"/>
	<line x1="1964.52" y1="1352.88" x2="1964.52" y2="1292.40" stroke-linecap="round" style="stroke:#000000;stroke-width:11.88"/>
	<line x1="2173.68" y1="1374.84" x2="2494.98" y2="1374.84" style="stroke:#000000;stroke-width:11.88"/>
	<line x1="2494.98" y1="1405.08" x2="2494.98" y2="1344.60" stroke-linecap="round" style="stroke:#000000;stroke-width:11.88"/>
	<line x1="2173.68" y1="1405.08" x2="2173.68" y2="1344.60" stroke-linecap="round" style="stroke:#000000;stroke-width:11.88"/>
	<line x1="2487.42" y1="1427.04" x2="2598.30" y2="1427.04" style="stroke:#000000;stroke-width:11.88"/>
	<line x1="2598.30" y1="1457.28" x2="2598.30" y2="1396.80" stroke-linecap="round" style="stroke:#000000;stroke-width:11.88"/>
	<line x1="2487.42" y1="1457.28" x2="2487.42" y2="1396.80" stroke-linecap="round" style="stroke:#000000;stroke-width:11.88"/>
	<line x1="2345.22" y1="1479.24" x2="2514.96" y2="1479.24" style="stroke:#000000;stroke-width:11.88"/>
	<line x1="2514.96" y1="1509.48" x2="2514.96" y2="1449.00" stroke-linecap="round" style="stroke:#000000;stroke-width:11.88"/>
	<line x1="2345.22" y1="1509.48" x2="2345.22" y2="1449.00" stroke-linecap="round" style="stroke:#000000;stroke-width:11.88"/>
	<line x1="2295.54" y1="1531.44" x2="2532.06" y2="1531.44" style="stroke:#000000;stroke-width:11.88"/>
	<line x1="2532.06" y1="1561.68" x2="2532.06" y2="1501.20" stroke-linecap="round" style="stroke:#000000;stroke-width:11.88"/>
	<line x1="2295.54" y1="1561.68" x2="2295.54" y2="1501.20" stroke-linecap="round" style="stroke:#000000;stroke-width:11.88"/>
	<line x1="1964.52" y1="1688.22" x2="1964.52" y2="1688.22" style="stroke:#000000;stroke-width:11.88"/>
	<line x1="1964.52" y1="1718.46" x2="1964.52" y2="1657.98" stroke-linecap="round" style="stroke:#000000;stroke-width:11.88"/>
	<line x1="1964.52" y1="1718.46" x2="1964.52" y2="1657.98" stroke-linecap="round" style="stroke:#000000;stroke-width:11.88"/>
	<line x1="1958.58" y1="1740.42" x2="2027.52" y2="1740.42" style="stroke:#000000;stroke-width:11.88"/>
	<line x1="2027.52" y1="1770.66" x2="2027.52" y2="1710.18" stroke-linecap="round" style="stroke:#000000;stroke-width:11.88"/>
	<line x1="1958.58" y1="1770.66" x2="1958.58" y2="1710.18" stroke-linecap="round" style="stroke:#000000;stroke-width:11.88"/>
	<line x1="1987.92" y1="1792.62" x2="2056.68" y2="1792.62" style="stroke:#000000;stroke-width:11.88"/>
	<line x1="2056.68" y1="1822.86" x2="2056.68" y2="1762.38" stroke-linecap="round" style="stroke:#000000;stroke-width:11.88"/>
	<line x1="1987.92" y1="1822.86" x2="1987.92" y2="1762.38" stroke-linecap="round" style="stroke:#000000;stroke-width:11.88"/>
	<line x1="2060.10" y1="1845.00" x2="2127.96" y2="1845.00" style="stroke:#000000;stroke-width:11.88"/>
	<line x1="2127.96" y1="1875.24" x2="2127.96" y2="1814.76" stroke-linecap="round" style="stroke:#000000;stroke-width:11.88"/>
	<line x1="2060.10" y1="1875.24" x2="2060.10" y2="1814.76" stroke-linecap="round" style="stroke:#000000;stroke-width:11.88"/>
	<line x1="2092.32" y1="1897.20" x2="2161.08" y2="1897.20" style="stroke:#000000;stroke-width:11.88"/>
	<line x1="2161.08" y1="1927.44" x2="2161.08" y2="1866.96" stroke-linecap="round" style="stroke:#000000;stroke-width:11.88"/>
	<line x1="2092.32" y1="1927.44" x2="2092.32" y2="1866.96" stroke-linecap="round" style="stroke:#000000;stroke-width:11.88"/>
	<line x1="1964.52" y1="2053.80" x2="1964.52" y2="2053.80" style="stroke:#000000;stroke-width:11.88"/>
	<line x1="1964.52" y1="2084.04" x2="1964.52" y2="2023.56" stroke-linecap="round" style="stroke:#000000;stroke-width:11.88"/>
	<line x1="1964.52" y1="2084.04" x2="1964.52" y2="2023.56" stroke-linecap="round" style="stroke:#000000;stroke-width:11.88"/>
	<line x1="2047.32" y1="2106.00" x2="2099.88" y2="2106.00" style="stroke:#000000;stroke-width:11.88"/>
	<line x1="2099.88" y1="2136.24" x2="2099.88" y2="2075.76" stroke-linecap="round" style="stroke:#000000;stroke-width:11.88"/>
	<line x1="2047.32" y1="2136.24" x2="2047.32" y2="2075.76" stroke-linecap="round" style="stroke:#000000;stroke-width:11.88"/>
	<line x1="2199.60" y1="2158.38" x2="2267.64" y2="2158.38" style="stroke:#000000;stroke-width:11.88"/>
	<line x1="2267.64" y1="2188.62" x2="2267.64" y2="2128.14" stroke-linecap="round" style="stroke:#000000;stroke-width:11.88"/>
	<line x1="2199.60" y1="2188.62" x2="2199.60" y2="2128.14" stroke-linecap="round" style="stroke:#000000;stroke-width:11.88"/>
	<line x1="2005.20" y1="2210.58" x2="2113.56" y2="2210.58" style="stroke:#000000;stroke-width:11.88"/>
	<line x1="2113.56" y1="2240.82" x2="2113.56" y2="2180.34" stroke-linecap="round" style="stroke:#000000;stroke-width:11.88"/>
	<line x1="2005.20" y1="2240.82" x2="2005.20" y2="2180.34" stroke-linecap="round" style="stroke:#000000;stroke-width:11.88"/>
	<line x1="1964.52" y1="2367.18" x2="1964.52" y2="2367.18" style="stroke:#000000;stroke-width:11.88"/>
	<line x1="1964.52" y1="2397.42" x2="1964.52" y2="2336.94" stroke-linecap="round" style="stroke:#000000;stroke-width:11.88"/>
	<line x1="1964.52" y1="2397.42" x2="1964.52" y2="2336.94" stroke-linecap="round" style="stroke:#000000;stroke-width:11.88"/>
	<line x1="885.96" y1="2419.56" x2="1035.54" y2="2419.56" style="stroke:#000000;stroke-width:11.88"/>
	<line x1="1035.54" y1="2449.80" x2="1035.54" y2="2389.32" stroke-linecap="round" style="stroke:#000000;stroke-width:11.88"/>
	<line x1="885.96" y1="2449.80" x2="885.96" y2="2389.32" stroke-linecap="round" style="stroke:#000000;stroke-width:11.88"/>
	<line x1="1305.00" y1="2471.76" x2="1407.78" y2="2471.76" style="stroke:#000000;stroke-width:11.88"/>
	<line x1="1407.78" y1="2502.00" x2="1407.78" y2="2441.52" stroke-linecap="round" style="stroke:#000000;stroke-width:11.88"/>
	<line x1="1305.00" y1="2502.00" x2="1305.00" y2="2441.52" stroke-linecap="round" style="stroke:#000000;stroke-width:11.88"/>
	<line x1="1683.18" y1="2523.96" x2="1749.96" y2="2523.96" style="stroke:#000000;stroke-width:11.88"/>
	<line x1="1749.96" y1="2554.20" x2="1749.96" y2="2493.72" stroke-linecap="round" style="stroke:#000000;stroke-width:11.88"/>
	<line x1="1683.18" y1="2554.20" x2="1683.18" y2="2493.72" stroke-linecap="round" style="stroke:#000000;stroke-width:11.88"/>
	<line x1="1964.52" y1="2680.56" x2="1964.52" y2="2680.56" style="stroke:#000000;stroke-width:11.88"/>
	<line x1="1964.52" y1="2710.80" x2="1964.52" y2="2650.32" stroke-linecap="round" style="stroke:#000000;stroke-width:11.88"/>
	<line x1="1964.52" y1="2710.80" x2="1964.52" y2="2650.32" stroke-linecap="round" style="stroke:#000000;stroke-width:11.88"/>
	<line x1="1429.38" y1="2732.94" x2="1769.22" y2="2732.94" style="stroke:#000000;stroke-width:11.88"/>
	<line x1="1769.22" y1="2763.18" x2="1769.22" y2="2702.70" stroke-linecap="round" style="stroke:#000000;stroke-width:11.88"/>
	<line x1="1429.38" y1="2763.18" x2="1429.38" y2="2702.70" stroke-linecap="round" style="stroke:#000000;stroke-width:11.88"/>
	<line x1="1801.98" y1="2785.14" x2="2008.98" y2="2785.14" style="stroke:#000000;stroke-width:11.88"/>
	<line x1="2008.98" y1="2815.38" x2="2008.98" y2="2754.90" stroke-linecap="round" style="stroke:#000000;stroke-width:11.88"/>
	<line x1="1801.98" y1="2815.38" x2="1801.98" y2="2754.90" stroke-linecap="round" style="stroke:#000000;stroke-width:11.88"/>
	<line x1="1870.38" y1="2837.34" x2="2034.36" y2="2837.34" style="stroke:#000000;stroke-width:11.88"/>
	<line x1="2034.36" y1="2867.58" x2="2034.36" y2="2807.10" stroke-linecap="round" style="stroke:#000000;stroke-width:11.88"/>
	<line x1="1870.38" y1="2867.58" x2="1870.38" y2="2807.10" stroke-linecap="round" style="stroke:#000000;stroke-width:11.88"/>
	<line x1="1964.52" y1="2993.94" x2="1964.52" y2="2993.94" style="stroke:#000000;stroke-width:11.88"/>
	<line x1="1964.52" y1="3024.18" x2="1964.52" y2="2963.70" stroke-linecap="round" style="stroke:#000000;stroke-width:11.88"/>
	<line x1="1964.52" y1="3024.18" x2="1964.52" y2="2963.70" stroke-linecap="round" style="stroke:#000000;stroke-width:11.88"/>
	<line x1="2044.62" y1="3046.32" x2="2091.78" y2="3046.32" style="stroke:#000000;stroke-width:11.88"/>
	<line x1="2091.78" y1="3076.56" x2="2091.78" y2="3016.08" stroke-linecap="round" style="stroke:#000000;stroke-width:11.88"/>
	<line x1="2044.62" y1="3076.56" x2="2044.62" y2="3016.08" stroke-linecap="round" style="stroke:#000000;stroke-width:11.88"/>
	<line x1="1998.72" y1="3098.52" x2="2089.62" y2="3098.52" style="stroke:#000000;stroke-width:11.88"/>
	<line x1="2089.62" y1="3128.76" x2="2089.62" y2="3068.28" stroke-linecap="round" style="stroke:#000000;stroke-width:11.88"/>
	<line x1="1998.72" y1="3128.76" x2="1998.72" y2="3068.28" stroke-linecap="round" style="stroke:#000000;stroke-width:11.88"/>
	<line x1="2015.28" y1="3150.72" x2="2158.74" y2="3150.72" style="stroke:#000000;stroke-width:11.88"/>
	<line x1="2158.74" y1="3180.96" x2="2158.74" y2="3120.48" stroke-linecap="round" style="stroke:#000000;stroke-width:11.88"/>
	<line x1="2015.28" y1="3180.96" x2="2015.28" y2="3120.48" stroke-linecap="round" style="stroke:#000000;stroke-width:11.88"/>
	<line x1="1964.52" y1="3307.50" x2="1964.52" y2="3307.50" style="stroke:#000000;stroke-width:11.88"/>
	<line x1="1964.52" y1="3337.74" x2="1964.52" y2="3277.26" stroke-linecap="round" style="stroke:#000000;stroke-width:11.88"/>
	<line x1="1964.52" y1="3337.74" x2="1964.52" y2="3277.26" stroke-linecap="round" style="stroke:#000000;stroke-width:11.88"/>
	<line x1="2009.16" y1="3359.70" x2="2075.04" y2="3359.70" style="stroke:#000000;stroke-width:11.88"/>
	<line x1="2075.04" y1="3389.94" x2="2075.04" y2="3329.46" stroke-linecap="round" style="stroke:#000000;stroke-width:11.88"/>
	<line x1="2009.16" y1="3389.94" x2="2009.16" y2="3329.46" stroke-linecap="round" style="stroke:#000000;stroke-width:11.88"/>
	<line x1="2090.88" y1="3411.90" x2="2210.04" y2="3411.90" style="stroke:#000000;stroke-width:11.88"/>
	<line x1="2210.04" y1="3442.14" x2="2210.04" y2="3381.66" stroke-linecap="round" style="stroke:#000000;stroke-width:11.88"/>
	<line x1="2090.88" y1="3442.14" x2="2090.88" y2="3381.66" stroke-linecap="round" style="stroke:#000000;stroke-width:11.88"/>
	<line x1="1907.46" y1="3568.50" x2="1958.40" y2="3568.50" style="stroke:#000000;stroke-width:11.88"/>
	<line x1="1958.40" y1="3598.74" x2="1958.40" y2="3538.26" stroke-linecap="round" style="stroke:#000000;stroke-width:11.88"/>
	<line x1="1907.46" y1="3598.74" x2="1907.46" y2="3538.26" stroke-linecap="round" style="stroke:#000000;stroke-width:11.88"/>
	<line x1="1938.42" y1="3725.28" x2="1982.16" y2="3725.28" style="stroke:#000000;stroke-width:11.88"/>
	<line x1="1982.16" y1="3755.52" x2="1982.16" y2="3695.04" stroke-linecap="round" style="stroke:#000000;stroke-width:11.88"/>
	<line x1="1938.42" y1="3755.52" x2="1938.42" y2="3695.04" stroke-linecap="round" style="stroke:#000000;stroke-width:11.88"/>
	<line x1="1951.92" y1="3881.88" x2="1999.62" y2="3881.88" style="stroke:#000000;stroke-width:11.88"/>
	<line x1="1999.62" y1="3912.12" x2="1999.62" y2="3851.64" stroke-linecap="round" style="stroke:#000000;stroke-width:11.88"/>
	<line x1="1951.92" y1="3912.12" x2="1951.92" y2="3851.64" stroke-linecap="round" style="stroke:#000000;stroke-width:11.88"/>
	<line x1="1554.30" y1="4038.66" x2="1716.66" y2="4038.66" style="stroke:#000000;stroke-width:11.88"/>
	<line x1="1716.66" y1="4068.90" x2="1716.66" y2="4008.42" stroke-linecap="round" style="stroke:#000000;stroke-width:11.88"/>
	<line x1="1554.30" y1="4068.90" x2="1554.30" y2="4008.42" stroke-linecap="round" style="stroke:#000000;stroke-width:11.88"/>
	<line x1="2209.32" y1="4195.44" x2="2289.06" y2="4195.44" style="stroke:#000000;stroke-width:11.88"/>
	<line x1="2289.06" y1="4225.68" x2="2289.06" y2="4165.20" stroke-linecap="round" style="stroke:#000000;stroke-width:11.88"/>
	<line x1="2209.32" y1="4225.68" x2="2209.32" y2="4165.20" stroke-linecap="round" style="stroke:#000000;stroke-width:11.88"/>
	<line x1="2024.64" y1="4352.04" x2="2080.08" y2="4352.04" style="stroke:#000000;stroke-width:11.88"/>
	<line x1="2080.08" y1="4382.28" x2="2080.08" y2="4321.80" stroke-linecap="round" style="stroke:#000000;stroke-width:11.88"/>
	<line x1="2024.64" y1="4382.28" x2="2024.64" y2="4321.80" stroke-linecap="round" style="stroke:#000000;stroke-width:11.88"/>
	<line x1="2070.36" y1="4508.82" x2="2156.40" y2="4508.82" style="stroke:#000000;stroke-width:11.88"/>
	<line x1="2156.40" y1="4539.06" x2="2156.40" y2="4478.58" stroke-linecap="round" style="stroke:#000000;stroke-width:11.88"/>
	<line x1="2070.36" y1="4539.06" x2="2070.36" y2="4478.58" stroke-linecap="round" style="stroke:#000000;stroke-width:11.88"/>
	<line x1="2139.66" y1="4665.42" x2="2427.30" y2="4665.42" style="stroke:#000000;stroke-width:11.88"/>
	<line x1="2427.30" y1="4695.66" x2="2427.30" y2="4635.18" stroke-linecap="round" style="stroke:#000000;stroke-width:11.88"/>
	<line x1="2139.66" y1="4695.66" x2="2139.66" y2="4635.18" stroke-linecap="round" style="stroke:#000000;stroke-width:11.88"/>
	<line x1="1630.80" y1="4822.20" x2="1977.66" y2="4822.20" style="stroke:#000000;stroke-width:11.88"/>
	<line x1="1977.66" y1="4852.44" x2="1977.66" y2="4791.96" stroke-linecap="round" style="stroke:#000000;stroke-width:11.88"/>
	<line x1="1630.80" y1="4852.44" x2="1630.80" y2="4791.96" stroke-linecap="round" style="stroke:#000000;stroke-width:11.88"/>
	<line x1="1994.76" y1="4978.80" x2="2066.76" y2="4978.80" style="stroke:#000000;stroke-width:11.88"/>
	<line x1="2066.76" y1="5009.04" x2="2066.76" y2="4948.56" stroke-linecap="round" style="stroke:#000000;stroke-width:11.88"/>
	<line x1="1994.76" y1="5009.04" x2="1994.76" y2="4948.56" stroke-linecap="round" style="stroke:#000000;stroke-width:11.88"/>
	<line x1="1751.58" y1="5135.58" x2="2070.54" y2="5135.58" style="stroke:#000000;stroke-width:11.88"/>
	<line x1="2070.54" y1="5165.82" x2="2070.54" y2="5105.34" stroke-linecap="round" style="stroke:#000000;stroke-width:11.88"/>
	<line x1="1751.58" y1="5165.82" x2="1751.58" y2="5105.34" stroke-linecap="round" style="stroke:#000000;stroke-width:11.88"/>
	<text x="324.72" y="401.82" style="font-family:'Helvetica';font-size:55.08px;fill:#000000">Age (per 10 year increase)</text>
	<text x="324.72" y="506.22" style="font-family:'Helvetica';font-size:55.08px;fill:#000000">Sex</text>
	<text x="324.72" y="715.20" style="font-family:'Helvetica';font-size:55.08px;fill:#000000">Obesity</text>
	<text x="324.72" y="1028.58" style="font-family:'Helvetica';font-size:55.08px;fill:#000000">Smoking status</text>
	<text x="324.72" y="1289.76" style="font-family:'Helvetica';font-size:55.08px;fill:#000000">Ethnicity</text>
	<text x="324.72" y="1655.34" style="font-family:'Helvetica';font-size:55.08px;fill:#000000">Deprivation (IMD) quintile</text>
	<text x="324.72" y="2020.92" style="font-family:'Helvetica';font-size:55.08px;fill:#000000">Diabetes</text>
	<text x="324.72" y="2334.30" style="font-family:'Helvetica';font-size:55.08px;fill:#000000">Cancer (non-haematological)</text>
	<text x="324.72" y="2647.68" style="font-family:'Helvetica';font-size:55.08px;fill:#000000">Haematological malignancy</text>
	<text x="324.72" y="2961.06" style="font-family:'Helvetica';font-size:55.08px;fill:#000000">Reduced kidney function</text>
	<text x="324.72" y="3274.44" style="font-family:'Helvetica';font-size:55.08px;fill:#000000">Asthma</text>
	<text x="324.72" y="3587.82" style="font-family:'Helvetica';font-size:55.08px;fill:#000000">Chronic respiratory disease</text>
	<text x="324.72" y="3744.60" style="font-family:'Helvetica';font-size:55.08px;fill:#000000">Chronic cardiac disease</text>
	<text x="324.72" y="3901.20" style="font-family:'Helvetica';font-size:55.08px;fill:#000000">Hypertension/high bp</text>
	<text x="324.72" y="4057.98" style="font-family:'Helvetica';font-size:55.08px;fill:#000000">Chronic liver disease</text>
	<text x="324.72" y="4214.76" style="font-family:'Helvetica';font-size:55.08px;fill:#000000">Dementia</text>
	<text x="324.72" y="4371.36" style="font-family:'Helvetica';font-size:55.08px;fill:#000000">Stroke</text>
	<text x="324.72" y="4528.14" style="font-family:'Helvetica';font-size:55.08px;fill:#000000">Other neurological</text>
	<text x="324.72" y="4684.74" style="font-family:'Helvetica';font-size:55.08px;fill:#000000">Organ transplant</text>
	<text x="324.72" y="4841.52" style="font-family:'Helvetica';font-size:55.08px;fill:#000000">Asplenia</text>
	<text x="324.72" y="4998.12" style="font-family:'Helvetica';font-size:55.08px;fill:#000000">Rheumatoid arthritis/Lupus/Psoriasis</text>
	<text x="324.72" y="5154.90" style="font-family:'Helvetica';font-size:55.08px;fill:#000000">Other immunosuppression</text>
	<text x="333.72" y="558.42" style="font-family:'Helvetica';font-size:55.08px;fill:#808080">Female (ref)</text>
	<text x="333.72" y="610.62" style="font-family:'Helvetica';font-size:55.08px;fill:#808080">Male</text>
	<text x="333.72" y="767.40" style="font-family:'Helvetica';font-size:55.08px;fill:#808080">Not obese (ref)</text>
	<text x="333.72" y="819.60" style="font-family:'Helvetica';font-size:55.08px;fill:#808080">Obese class I</text>
	<text x="333.72" y="871.80" style="font-family:'Helvetica';font-size:55.08px;fill:#808080">Obese class II</text>
	<text x="333.72" y="924.00" style="font-family:'Helvetica';font-size:55.08px;fill:#808080">Obese class III</text>
	<text x="333.72" y="1080.78" style="font-family:'Helvetica';font-size:55.08px;fill:#808080">Never (ref)</text>
	<text x="333.72" y="1132.98" style="font-family:'Helvetica';font-size:55.08px;fill:#808080">Ex-smoker</text>
	<text x="333.72" y="1185.18" style="font-family:'Helvetica';font-size:55.08px;fill:#808080">Current</text>
	<text x="333.72" y="1341.96" style="font-family:'Helvetica';font-size:55.08px;fill:#808080">White (ref)</text>
	<text x="333.72" y="1394.16" style="font-family:'Helvetica';font-size:55.08px;fill:#808080">Mixed</text>
	<text x="333.72" y="1446.36" style="font-family:'Helvetica';font-size:55.08px;fill:#808080">South Asian</text>
	<text x="333.72" y="1498.56" style="font-family:'Helvetica';font-size:55.08px;fill:#808080">Black</text>
	<text x="333.72" y="1550.76" style="font-family:'Helvetica';font-size:55.08px;fill:#808080">Other</text>
	<text x="333.72" y="1707.54" style="font-family:'Helvetica';font-size:55.08px;fill:#808080">1 (least deprived, ref)</text>
	<text x="333.72" y="1759.74" style="font-family:'Helvetica';font-size:55.08px;fill:#808080">2</text>
	<text x="333.72" y="1811.94" style="font-family:'Helvetica';font-size:55.08px;fill:#808080">3</text>
	<text x="333.72" y="1864.32" style="font-family:'Helvetica';font-size:55.08px;fill:#808080">4</text>
	<text x="333.72" y="1916.52" style="font-family:'Helvetica';font-size:55.08px;fill:#808080">5 (most deprived)</text>
	<text x="333.72" y="2073.12" style="font-family:'Helvetica';font-size:55.08px;fill:#808080">No diabetes (ref)</text>
	<text x="333.72" y="2125.32" style="font-family:'Helvetica';font-size:55.08px;fill:#808080">Controlled (HbA1c &lt;58mmol/mol)</text>
	<text x="333.72" y="2177.70" style="font-family:'Helvetica';font-size:55.08px;fill:#808080">Uncontrolled (HbA1c &gt;=58mmol/mol)</text>
	<text x="333.72" y="2229.90" style="font-family:'Helvetica';font-size:55.08px;fill:#808080">Unknown HbA1c</text>
	<text x="333.72" y="2386.50" style="font-family:'Helvetica';font-size:55.08px;fill:#808080">Never (ref)</text>
	<text x="333.72" y="2438.88" style="font-family:'Helvetica';font-size:55.08px;fill:#808080">&lt;1 year ago</text>
	<text x="333.72" y="2491.08" style="font-family:'Helvetica';font-size:55.08px;fill:#808080">1-4.9 years ago</text>
	<text x="333.72" y="2543.28" style="font-family:'Helvetica';font-size:55.08px;fill:#808080">5+ years ago</text>
	<text x="333.72" y="2699.88" style="font-family:'Helvetica';font-size:55.08px;fill:#808080">Never (ref)</text>
	<text x="333.72" y="2752.26" style="font-family:'Helvetica';font-size:55.08px;fill:#808080">&lt;1 year ago</text>
	<text x="333.72" y="2804.46" style="font-family:'Helvetica';font-size:55.08px;fill:#808080">1-4.9 years ago</text>
	<text x="333.72" y="2856.66" style="font-family:'Helvetica';font-size:55.08px;fill:#808080">5+ years ago</text>
	<text x="333.72" y="3013.26" style="font-family:'Helvetica';font-size:55.08px;fill:#808080">None (ref)</text>
	<text x="333.72" y="3065.64" style="font-family:'Helvetica';font-size:55.08px;fill:#808080">eGFR 30-60 (ml/min/1.73m2)</text>
	<text x="333.72" y="3117.84" style="font-family:'Helvetica';font-size:55.08px;fill:#808080">eGFR 15-&lt;30</text>
	<text x="333.72" y="3170.04" style="font-family:'Helvetica';font-size:55.08px;fill:#808080">eGFR &lt;15 or dialysis</text>
	<text x="333.72" y="3326.82" style="font-family:'Helvetica';font-size:55.08px;fill:#808080">No asthma (ref)</text>
	<text x="333.72" y="3379.02" style="font-family:'Helvetica';font-size:55.08px;fill:#808080">With no recent OCS use</text>
	<text x="333.72" y="3431.22" style="font-family:'Helvetica';font-size:55.08px;fill:#808080">With recent OCS use</text>
	<text x="3110.40" y="401.82" style="font-family:'Helvetica';font-size:55.08px;fill:#000000">1.14 (1.13-1.16)</text>
	<text x="3110.40" y="558.42" style="font-family:'Helvetica';font-size:55.08px;fill:#000000">1.00 (1.00-1.00)</text>
	<text x="3110.40" y="610.62" style="font-family:'Helvetica';font-size:55.08px;fill:#000000">1.32 (1.27-1.36)</text>
	<text x="3110.40" y="767.40" style="font-family:'Helvetica';font-size:55.08px;fill:#000000">1.00 (1.00-1.00)</text>
	<text x="3110.40" y="819.60" style="font-family:'Helvetica';font-size:55.08px;fill:#000000">1.48 (1.42-1.55)</text>
	<text x="3110.40" y="871.80" style="font-family:'Helvetica';font-size:55.08px;fill:#000000">1.75 (1.64-1.87)</text>
	<text x="3110.40" y="924.00" style="font-family:'Helvetica';font-size:55.08px;fill:#000000">1.92 (1.75-2.10)</text>
	<text x="3110.40" y="1080.78" style="font-family:'Helvetica';font-size:55.08px;fill:#000000">1.00 (1.00-1.00)</text>
	<text x="3110.40" y="1132.98" style="font-family:'Helvetica';font-size:55.08px;fill:#000000">1.05 (1.01-1.08)</text>
	<text x="3110.40" y="1185.18" style="font-family:'Helvetica';font-size:55.08px;fill:#000000">0.46 (0.43-0.50)</text>
	<text x="3110.40" y="1341.96" style="font-family:'Helvetica';font-size:55.08px;fill:#000000">1.00 (1.00-1.00)</text>
	<text x="3110.40" y="1394.16" style="font-family:'Helvetica';font-size:55.08px;fill:#000000">1.79 (1.39-2.30)</text>
	<text x="3110.40" y="1446.36" style="font-family:'Helvetica';font-size:55.08px;fill:#000000">2.47 (2.27-2.70)</text>
	<text x="3110.40" y="1498.56" style="font-family:'Helvetica';font-size:55.08px;fill:#000000">2.07 (1.82-2.37)</text>
	<text x="3110.40" y="1550.76" style="font-family:'Helvetica';font-size:55.08px;fill:#000000">2.02 (1.68-2.43)</text>
	<text x="3110.40" y="1707.54" style="font-family:'Helvetica';font-size:55.08px;fill:#000000">1.00 (1.00-1.00)</text>
	<text x="3110.40" y="1759.74" style="font-family:'Helvetica';font-size:55.08px;fill:#000000">1.05 (0.99-1.10)</text>
	<text x="3110.40" y="1811.94" style="font-family:'Helvetica';font-size:55.08px;fill:#000000">1.09 (1.04-1.16)</text>
	<text x="3110.40" y="1864.32" style="font-family:'Helvetica';font-size:55.08px;fill:#000000">1.23 (1.16-1.29)</text>
	<text x="3110.40" y="1916.52" style="font-family:'Helvetica';font-size:55.08px;fill:#000000">1.29 (1.22-1.36)</text>
	<text x="3110.40" y="2073.12" style="font-family:'Helvetica';font-size:55.08px;fill:#000000">1.00 (1.00-1.00)</text>
	<text x="3110.40" y="2125.32" style="font-family:'Helvetica';font-size:55.08px;fill:#000000">1.19 (1.14-1.24)</text>
	<text x="3110.40" y="2177.70" style="font-family:'Helvetica';font-size:55.08px;fill:#000000">1.52 (1.45-1.61)</text>
	<text x="3110.40" y="2229.90" style="font-family:'Helvetica';font-size:55.08px;fill:#000000">1.16 (1.07-1.26)</text>
	<text x="3110.40" y="2386.50" style="font-family:'Helvetica';font-size:55.08px;fill:#000000">1.00 (1.00-1.00)</text>
	<text x="3110.40" y="2438.88" style="font-family:'Helvetica';font-size:55.08px;fill:#000000">0.21 (0.18-0.23)</text>
	<text x="3110.40" y="2491.08" style="font-family:'Helvetica';font-size:55.08px;fill:#000000">0.39 (0.36-0.42)</text>
	<text x="3110.40" y="2543.28" style="font-family:'Helvetica';font-size:55.08px;fill:#000000">0.68 (0.64-0.71)</text>
	<text x="3110.40" y="2699.88" style="font-family:'Helvetica';font-size:55.08px;fill:#000000">1.00 (1.00-1.00)</text>
	<text x="3110.40" y="2752.26" style="font-family:'Helvetica';font-size:55.08px;fill:#000000">0.56 (0.43-0.74)</text>
	<text x="3110.40" y="2804.46" style="font-family:'Helvetica';font-size:55.08px;fill:#000000">0.91 (0.78-1.07)</text>
	<text x="3110.40" y="2856.66" style="font-family:'Helvetica';font-size:55.08px;fill:#000000">0.98 (0.86-1.12)</text>
	<text x="3110.40" y="3013.26" style="font-family:'Helvetica';font-size:55.08px;fill:#000000">1.00 (1.00-1.00)</text>
	<text x="3110.40" y="3065.64" style="font-family:'Helvetica';font-size:55.08px;fill:#000000">1.18 (1.13-1.22)</text>
	<text x="3110.40" y="3117.84" style="font-family:'Helvetica';font-size:55.08px;fill:#000000">1.13 (1.06-1.22)</text>
	<text x="3110.40" y="3170.04" style="font-family:'Helvetica';font-size:55.08px;fill:#000000">1.21 (1.08-1.36)</text>
	<text x="3110.40" y="3326.82" style="font-family:'Helvetica';font-size:55.08px;fill:#000000">1.00 (1.00-1.00)</text>
	<text x="3110.40" y="3379.02" style="font-family:'Helvetica';font-size:55.08px;fill:#000000">1.13 (1.07-1.19)</text>
	<text x="3110.40" y="3431.22" style="font-family:'Helvetica';font-size:55.08px;fill:#000000">1.34 (1.22-1.47)</text>
	<text x="3110.40" y="3587.82" style="font-family:'Helvetica';font-size:55.08px;fill:#000000">0.95 (0.91-0.99)</text>
	<text x="3110.40" y="3744.60" style="font-family:'Helvetica';font-size:55.08px;fill:#000000">0.99 (0.96-1.03)</text>
	<text x="3110.40" y="3901.20" style="font-family:'Helvetica';font-size:55.08px;fill:#000000">1.02 (0.98-1.06)</text>
	<text x="3110.40" y="4057.98" style="font-family:'Helvetica';font-size:55.08px;fill:#000000">0.60 (0.53-0.68)</text>
	<text x="3110.40" y="4214.76" style="font-family:'Helvetica';font-size:55.08px;fill:#000000">1.56 (1.47-1.66)</text>
	<text x="3110.40" y="4371.36" style="font-family:'Helvetica';font-size:55.08px;fill:#000000">1.15 (1.10-1.20)</text>
	<text x="3110.40" y="4528.14" style="font-family:'Helvetica';font-size:55.08px;fill:#000000">1.26 (1.18-1.35)</text>
	<text x="3110.40" y="4684.74" style="font-family:'Helvetica';font-size:55.08px;fill:#000000">1.65 (1.32-2.06)</text>
	<text x="3110.40" y="4841.52" style="font-family:'Helvetica';font-size:55.08px;fill:#000000">0.78 (0.59-1.02)</text>
	<text x="3110.40" y="4998.12" style="font-family:'Helvetica';font-size:55.08px;fill:#000000">1.11 (1.05-1.17)</text>
	<text x="3110.40" y="5154.90" style="font-family:'Helvetica';font-size:55.08px;fill:#000000">0.92 (0.72-1.18)</text>
	<text x="2406.96" y="269.88" style="font-family:'Helvetica';font-size:55.08px;fill:#000000" text-anchor="middle">Stronger risk factor</text>
	<text x="2406.96" y="324.96" style="font-family:'Helvetica';font-size:55.08px;fill:#000000" text-anchor="middle">for COVID-19 deaths</text>
	<text x="1522.08" y="269.88" style="font-family:'Helvetica';font-size:55.08px;fill:#000000" text-anchor="middle">Stronger risk factor</text>
	<text x="1522.08" y="324.96" style="font-family:'Helvetica';font-size:55.08px;fill:#000000" text-anchor="middle">for non-COVID deaths</text>
	<text x="3291.84" y="297.24" style="font-family:'Helvetica';font-size:55.08px;fill:#000000" text-anchor="middle">OR (95% CI)</text>
	<line x1="179.82" y1="5222.70" x2="179.82" y2="138.60" style="stroke:#000000;stroke-width:7.92"/>
	<line x1="179.82" y1="5222.70" x2="3821.40" y2="5222.70" style="stroke:#000000;stroke-width:7.92"/>
	<line x1="1079.46" y1="5222.70" x2="1079.46" y2="5277.60" style="stroke:#000000;stroke-width:7.92"/>
	<text x="1079.46" y="5401.31" style="font-family:'Helvetica';font-size:137.52px;fill:#000000" text-anchor="middle">.25</text>
	<line x1="1522.08" y1="5222.70" x2="1522.08" y2="5277.60" style="stroke:#000000;stroke-width:7.92"/>
	<text x="1522.08" y="5401.31" style="font-family:'Helvetica';font-size:137.52px;fill:#000000" text-anchor="middle">.5</text>
	<line x1="1964.52" y1="5222.70" x2="1964.52" y2="5277.60" style="stroke:#000000;stroke-width:7.92"/>
	<text x="1964.52" y="5401.31" style="font-family:'Helvetica';font-size:137.52px;fill:#000000" text-anchor="middle">1</text>
	<line x1="2406.96" y1="5222.70" x2="2406.96" y2="5277.60" style="stroke:#000000;stroke-width:7.92"/>
	<text x="2406.96" y="5401.31" style="font-family:'Helvetica';font-size:137.52px;fill:#000000" text-anchor="middle">2</text>
	<line x1="2849.40" y1="5222.70" x2="2849.40" y2="5277.60" style="stroke:#000000;stroke-width:7.92"/>
	<text x="2849.40" y="5401.31" style="font-family:'Helvetica';font-size:137.52px;fill:#000000" text-anchor="middle">4</text>
	<text x="2000.70" y="5552.51" style="font-family:'Helvetica';font-size:137.52px;fill:#000000" text-anchor="middle">Odds Ratio &amp; 95% CI</text>
</svg>
